<?xml version="1.0" encoding="UTF-8"?>
<!DOCTYPE svg PUBLIC "-//W3C//DTD SVG 1.1 Tiny//EN" "http://www.w3.org/Graphics/SVG/1.1/DTD/svg11-tiny.dtd">
<svg xmlns="http://www.w3.org/2000/svg" xmlns:xlink="http://www.w3.org/1999/xlink" baseProfile="tiny" height="44.006px" version="1.1" viewBox="0 0 44 44.006" width="44px" x="0px" y="0px">
<path d="M36.504,34.804V8.949c0-2.279-1.642-3.086-3.047-3.086L9.928,5.869c-0.553,0-1,0.447-1,1v2.47  c-1.113,0-1.935,0.815-1.935,1.819c0,1.001,0.712,1.817,1.935,1.817v3.434c-1.113,0-1.935,0.815-1.935,1.819  c0,1.001,0.759,1.817,1.935,1.817v3.485c-1.145,0-1.935,0.815-1.935,1.819c0,1.002,0.806,1.817,1.935,1.817v3.461  c-1.145,0-1.935,0.815-1.935,1.817c0,1.003,0.821,1.819,1.935,1.819v2.879c0,0.552,0.447,1,1,1h23.117  C35.189,38.144,36.504,36.771,36.504,34.804z" fill-opacity="0.2" stroke-opacity="0.2"/>
<path d="M35.505,34.803V10.452L8.813,10.338c-0.451,0-0.819,0.363-0.819,0.818c0,0.451,0.368,0.818,0.819,0.818h1.114  v5.433H8.813c-0.451,0-0.819,0.365-0.819,0.82c0,0.451,0.368,0.818,0.819,0.818h1.114v5.484H8.813c-0.451,0-0.819,0.365-0.819,0.82  c0,0.451,0.368,0.816,0.819,0.816h1.114v5.46H8.813c-0.451,0-0.819,0.363-0.819,0.818c0,0.453,0.368,0.818,0.819,0.818h1.114v3.881  h23.119C35.685,37.145,35.505,34.803,35.505,34.803z" fill-opacity="0.5" stroke-opacity="0.5"/>
<rect fill="none" height="44.006" width="44"/>
<linearGradient gradientUnits="userSpaceOnUse" id="SVGID_1_" x1="22.7168" x2="22.7168" y1="2.6196" y2="42.6339">
<stop offset="0" style="stop-color:#3687FF"/>
<stop offset="1" style="stop-color:#051F7D"/>
</linearGradient>
<path d="M33.046,36.145H9.927V5.869h23.369c0,0,2.209-0.229,2.209,2.08v25.854  C35.505,33.803,35.685,36.145,33.046,36.145z" fill="url(#SVGID_1_)"/>
<polygon fill-opacity="0.4" points="12.595,32.129 9.927,33.867 9.927,32.156 " stroke-opacity="0.4"/>
<circle cx="12.227" cy="31.451" r="1.168"/>
<linearGradient gradientUnits="userSpaceOnUse" id="SVGID_2_" x1="10.4668" x2="10.4668" y1="30.1924" y2="33.4658">
<stop offset="0" style="stop-color:#FFFFFF"/>
<stop offset="0.1978" style="stop-color:#FFFFFF"/>
<stop offset="0.8462" style="stop-color:#000000"/>
<stop offset="1" style="stop-color:#000000"/>
</linearGradient>
<path d="M12.941,31.445c0,0.453-0.364,0.818-0.816,0.818H8.813c-0.451,0-0.819-0.365-0.819-0.818l0,0  c0-0.455,0.368-0.818,0.819-0.818h3.313C12.577,30.627,12.941,30.99,12.941,31.445L12.941,31.445z" fill="url(#SVGID_2_)"/>
<polygon fill-opacity="0.4" points="12.595,25.024 9.927,26.763 9.927,25.052 " stroke-opacity="0.4"/>
<circle cx="12.227" cy="24.354" r="1.168"/>
<linearGradient gradientUnits="userSpaceOnUse" id="SVGID_3_" x1="10.4668" x2="10.4668" y1="23.0957" y2="26.3691">
<stop offset="0" style="stop-color:#FFFFFF"/>
<stop offset="0.1978" style="stop-color:#FFFFFF"/>
<stop offset="0.8462" style="stop-color:#000000"/>
<stop offset="1" style="stop-color:#000000"/>
</linearGradient>
<path d="M12.941,24.351c0,0.451-0.364,0.816-0.816,0.816H8.813c-0.451,0-0.819-0.365-0.819-0.816l0,0  c0-0.455,0.368-0.82,0.819-0.82h3.313C12.577,23.53,12.941,23.896,12.941,24.351L12.941,24.351z" fill="url(#SVGID_3_)"/>
<polygon fill-opacity="0.4" points="12.595,17.925 9.927,19.663 9.927,17.952 " stroke-opacity="0.4"/>
<circle cx="12.227" cy="17.267" r="1.168"/>
<linearGradient gradientUnits="userSpaceOnUse" id="SVGID_4_" x1="10.4668" x2="10.4668" y1="15.9722" y2="19.2495">
<stop offset="0" style="stop-color:#FFFFFF"/>
<stop offset="0.1978" style="stop-color:#FFFFFF"/>
<stop offset="0.8462" style="stop-color:#000000"/>
<stop offset="1" style="stop-color:#000000"/>
</linearGradient>
<path d="M12.941,17.228c0,0.451-0.364,0.818-0.816,0.818H8.813c-0.451,0-0.819-0.367-0.819-0.818l0,0  c0-0.455,0.368-0.82,0.819-0.82h3.313C12.577,16.407,12.941,16.772,12.941,17.228L12.941,17.228z" fill="url(#SVGID_4_)"/>
<polygon fill-opacity="0.4" points="12.595,10.838 9.927,12.576 9.927,10.865 " stroke-opacity="0.4"/>
<circle cx="12.227" cy="10.227" r="1.168"/>
<linearGradient gradientUnits="userSpaceOnUse" id="SVGID_5_" x1="10.4668" x2="10.4668" y1="8.9033" y2="12.1768">
<stop offset="0" style="stop-color:#FFFFFF"/>
<stop offset="0.1978" style="stop-color:#FFFFFF"/>
<stop offset="0.8462" style="stop-color:#000000"/>
<stop offset="1" style="stop-color:#000000"/>
</linearGradient>
<path d="M12.941,10.156c0,0.451-0.364,0.818-0.816,0.818H8.813c-0.451,0-0.819-0.367-0.819-0.818l0,0  c0-0.455,0.368-0.818,0.819-0.818h3.313C12.577,9.338,12.941,9.701,12.941,10.156L12.941,10.156z" fill="url(#SVGID_5_)"/>
<linearGradient gradientUnits="userSpaceOnUse" id="SVGID_6_" x1="23.6406" x2="23.6406" y1="11.1069" y2="42.3992">
<stop offset="0" style="stop-color:#F2F2F2"/>
<stop offset="0.1364" style="stop-color:#E4EDF0"/>
<stop offset="0.3929" style="stop-color:#C0DFEB"/>
<stop offset="0.7391" style="stop-color:#86C8E3"/>
<stop offset="0.9945" style="stop-color:#57B6DD"/>
<stop offset="1" style="stop-color:#57B6DD"/>
</linearGradient>
<path d="M25.46,20.76c-1.317,0.777-2.427,0.73-3.732,0.021c-3.713,0.674-4.901,3.396-4.901,6.652v1.244  c0,3.063,13.629,3.063,13.629,0v-1.244C30.455,24.147,29.25,21.404,25.46,20.76z M26.249,17.999  c0.723-1.343,0.883-2.334,0.883-3.422c0-1.982-1.54-3.62-3.491-3.62s-3.487,1.638-3.487,3.62c0,1.088,0.16,2.079,0.882,3.422  C22.405,20.574,24.633,20.661,26.249,17.999z" fill="url(#SVGID_6_)"/>
<path d="M23.676,11.655c1.873,0,3.322,1.52,3.435,3.399c0.235-1.517-0.812-4.099-3.435-4.099  c-2.314,0-3.721,2.051-3.501,4.099C20.287,13.175,21.803,11.655,23.676,11.655z" fill="#051F7D"/>
<path d="M25.46,20.76c-1.224,0.793-2.661,0.699-3.732,0.021c-5.413,0.912-4.901,6.568-4.901,7.353  c0-3.175,1.188-5.979,4.901-6.652c1.29,0.774,2.462,0.696,3.732-0.021c3.79,0.645,4.995,3.421,4.995,6.674  C30.627,24.162,29.25,21.404,25.46,20.76z" fill="#051F7D"/>
<path d="M23.676,11.655c1.873,0,3.322,1.52,3.435,3.399c0.235-1.517-0.812-4.099-3.435-4.099  c-2.314,0-3.721,2.051-3.501,4.099C20.287,13.175,21.803,11.655,23.676,11.655z" fill-opacity="0.2" stroke-opacity="0.2"/>
<path d="M25.46,20.76c-1.224,0.793-2.661,0.699-3.732,0.021c-5.413,0.912-4.901,6.568-4.901,7.353  c0-3.175,1.188-5.979,4.901-6.652c1.29,0.774,2.462,0.696,3.732-0.021c3.79,0.645,4.995,3.421,4.995,6.674  C30.627,24.162,29.25,21.404,25.46,20.76z" fill-opacity="0.2" stroke-opacity="0.2"/>
</svg>
