<?xml version="1.0" encoding="UTF-8"?>
<!DOCTYPE svg PUBLIC "-//W3C//DTD SVG 1.1 Tiny//EN" "http://www.w3.org/Graphics/SVG/1.1/DTD/svg11-tiny.dtd">
<svg xmlns="http://www.w3.org/2000/svg" xmlns:xlink="http://www.w3.org/1999/xlink" baseProfile="tiny" height="36px" version="1.1" viewBox="0 0 42 36" width="42px" x="0px" y="0px">
<g>
<path d="M31.645,13.146l0.615-0.729c0.636-0.688,0.518-1.726-0.208-2.451l-2.254-1.889   c-0.628-0.496-1.577-0.649-2.437,0.21l-0.63,0.749c-0.742-0.359-1.518-0.647-2.318-0.862c0.284-0.407,0.442-0.893,0.442-1.392   V5.485c0-1.451-1.248-2.487-2.518-2.487H19.58c-1.386,0-2.515,1.112-2.52,2.478l-0.006,1.298c0,0.512,0.164,1.013,0.45,1.42   c-0.772,0.21-1.521,0.493-2.243,0.843l-0.637-0.76c-0.693-0.694-1.611-0.869-2.447-0.214L9.926,9.953   c-0.729,0.615-0.823,1.709-0.21,2.44l0.635,0.759c-1.611,2.232-2.493,4.938-2.493,7.705C7.857,28.104,13.754,34,21.001,34   s13.142-5.896,13.142-13.144C34.143,18.088,33.26,15.38,31.645,13.146z" fill-opacity="0.2" stroke-opacity="0.2"/>
<path d="M30.359,13.121l1.139-1.352c0.126-0.149,0.333-0.613-0.09-1.036c0,0-8.445-2.526-8.186-2.759   s0.632-0.702,0.633-1.192V5.484c0-3.06-5.795-2.977-5.795-0.004l-0.005,1.293c0,0.792,0.405,1.063,0.705,1.224   s-8.188,2.719-8.188,2.719c-0.311,0.261-0.352,0.725-0.092,1.035l1.152,1.378c-1.733,2.099-2.775,4.791-2.775,7.727   C8.857,27.563,14.294,33,21,33s12.142-5.437,12.142-12.144C33.142,17.916,32.097,15.221,30.359,13.121z" fill-opacity="0.5" stroke-opacity="0.5"/>
<linearGradient gradientUnits="userSpaceOnUse" id="SVGID_1_" x1="20.9897" x2="20.9897" y1="5.4976" y2="9.4238">
<stop offset="0" style="stop-color:#E3E3E3"/>
<stop offset="1" style="stop-color:#404040"/>
</linearGradient>
<polygon fill="url(#SVGID_1_)" points="23.217,8.361 18.756,8.359 18.762,6.58 23.225,6.582  "/>
<linearGradient gradientUnits="userSpaceOnUse" id="SVGID_2_" x1="20.9556" x2="20.9556" y1="2.9473" y2="7.9531">
<stop offset="0" style="stop-color:#E3E3E3"/>
<stop offset="1" style="stop-color:#404040"/>
</linearGradient>
<path d="M19.58,3c-0.838,0-1.518,0.665-1.52,1.48l-0.005,1.293c0,0.87,0.704,1.487,1.519,1.487h2.755   c0.841,0,1.524-0.664,1.526-1.479V4.484C23.855,3.659,23.154,3,22.338,3H19.58z" fill="url(#SVGID_2_)"/>
<linearGradient gradientUnits="userSpaceOnUse" id="SVGID_3_" x1="29.1807" x2="29.1807" y1="7.6104" y2="13.4045">
<stop offset="0" style="stop-color:#E3E3E3"/>
<stop offset="1" style="stop-color:#404040"/>
</linearGradient>
<path d="M31.408,9.732l-2.252-1.89c-0.312-0.26-0.772-0.22-1.031,0.088L26.693,9.63l3.26,2.972l1.545-1.834   C31.725,10.542,31.752,10.076,31.408,9.732z" fill="url(#SVGID_3_)"/>
<linearGradient gradientUnits="userSpaceOnUse" id="SVGID_4_" x1="12.7651" x2="12.7651" y1="7.5981" y2="13.0675">
<stop offset="0" style="stop-color:#E3E3E3"/>
<stop offset="1" style="stop-color:#404040"/>
</linearGradient>
<path d="M15.221,9.545l-1.361-1.626c-0.326-0.326-0.787-0.341-1.037-0.09l-2.25,1.888   c-0.311,0.261-0.352,0.725-0.092,1.035l1.303,1.56L15.221,9.545z" fill="url(#SVGID_4_)"/>
<linearGradient gradientUnits="userSpaceOnUse" id="SVGID_5_" x1="20.9995" x2="20.9995" y1="7.4136" y2="35.9486">
<stop offset="0" style="stop-color:#E3E3E3"/>
<stop offset="1" style="stop-color:#404040"/>
</linearGradient>
<circle cx="21" cy="19.856" fill="url(#SVGID_5_)" r="12.142"/>
<linearGradient gradientUnits="userSpaceOnUse" id="SVGID_6_" x1="21.0005" x2="21.0005" y1="38.2998" y2="4.598">
<stop offset="0" style="stop-color:#E3E3E3"/>
<stop offset="1" style="stop-color:#404040"/>
</linearGradient>
<path d="M31.406,19.856c0-5.75-4.658-10.408-10.406-10.408s-10.408,4.658-10.408,10.408   c0,5.749,4.66,10.407,10.408,10.409c5.748-0.001,10.406-4.66,10.408-10.409H31.406z" fill="url(#SVGID_6_)"/>
<linearGradient gradientUnits="userSpaceOnUse" id="SVGID_7_" x1="20.9995" x2="20.9995" y1="13.4536" y2="35.6489">
<stop offset="0" style="stop-color:#FFFFFF"/>
<stop offset="1" style="stop-color:#B2B2B2"/>
</linearGradient>
<circle cx="21" cy="19.856" fill="url(#SVGID_7_)" r="9.061"/>
<linearGradient gradientUnits="userSpaceOnUse" id="SVGID_8_" x1="24.9883" x2="24.9883" y1="10.8604" y2="51.6633">
<stop offset="0" style="stop-color:#EA2227"/>
<stop offset="0.3116" style="stop-color:#D22024"/>
<stop offset="0.9676" style="stop-color:#94191C"/>
<stop offset="1" style="stop-color:#91191C"/>
</linearGradient>
<path d="M21.041,11.925c-0.014,0-0.027,0.002-0.041,0.002v7.93l5.262,5.964   c1.66-1.455,2.715-3.585,2.715-5.96C28.977,15.485,25.416,11.925,21.041,11.925z" fill="url(#SVGID_8_)"/>
<linearGradient gradientTransform="matrix(1 -0.0026 0.0026 1 -3.0295 1.1779)" gradientUnits="userSpaceOnUse" id="SVGID_9_" x1="22.6797" x2="30.1016" y1="21.5" y2="21.5">
<stop offset="0" style="stop-color:#404040"/>
<stop offset="1" style="stop-color:#000000"/>
</linearGradient>
<path d="M27.137,25.928l-4.925-5.566c0.064-0.156,0.101-0.325,0.101-0.504   c-0.002-0.721-0.59-1.304-1.31-1.302c-0.722,0.001-1.305,0.588-1.304,1.309c0.004,0.72,0.588,1.303,1.311,1.302   c0.134,0,0.262-0.028,0.385-0.064l4.922,5.56L27.137,25.928z" fill="url(#SVGID_9_)"/>
<path d="M19.086,6.24c-0.13-0.125-0.203-0.29-0.203-0.463l0.006-1.295   c0-0.362,0.311-0.654,0.691-0.654h2.758c0.182,0,0.357,0.07,0.486,0.192l0.57-0.6C23.115,3.151,22.736,3,22.338,3H19.58   c-0.838,0-1.518,0.665-1.52,1.48l-0.005,1.293c0,0.4,0.167,0.788,0.458,1.065L19.086,6.24z" fill="#FFFFFF" fill-opacity="0.2" stroke-opacity="0.2"/>
<path d="M23.395,3.421l-0.57,0.6c0.13,0.124,0.203,0.289,0.203,0.464V5.78c-0.002,0.359-0.316,0.652-0.698,0.652   h-2.755c-0.184,0-0.36-0.068-0.488-0.191l-0.572,0.599c0.281,0.271,0.658,0.421,1.061,0.421h2.755c0.841,0,1.524-0.664,1.526-1.479   V4.484C23.855,4.08,23.692,3.702,23.395,3.421z" fill-opacity="0.2" stroke-opacity="0.2"/>
<path d="M21,11.92c-4.377,0-7.937,3.56-7.937,7.936c0,1.209,0.28,2.352,0.765,3.378l14.369-6.701   C26.938,13.814,24.189,11.92,21,11.92z" fill="#FFFFFF" fill-opacity="0.2" stroke-opacity="0.2"/>
<rect fill="none" height="36" width="42"/>
</g>
</svg>
