<?xml version="1.0" encoding="UTF-8"?>
<!DOCTYPE svg PUBLIC "-//W3C//DTD SVG 1.1 Tiny//EN" "http://www.w3.org/Graphics/SVG/1.1/DTD/svg11-tiny.dtd">
<svg baseProfile="tiny" height="98" viewBox="0 0 98 98" width="98" xmlns="http://www.w3.org/2000/svg" xmlns:xlink="http://www.w3.org/1999/xlink">
<g>
<rect fill="none" height="98" width="98"/>
<linearGradient gradientUnits="userSpaceOnUse" id="SVGID_1_" x1="48.9995" x2="48.9995" y1="14.333" y2="84.3335">
<stop offset="0" style="stop-color:#E5FFB2"/>
<stop offset="0.3879" style="stop-color:#6AAB18"/>
<stop offset="0.6788" style="stop-color:#247307"/>
<stop offset="1" style="stop-color:#C2FF4A"/>
</linearGradient>
<circle cx="49" cy="49" fill="url(#SVGID_1_)" r="35"/>
<radialGradient cx="49.333" cy="18.001" gradientUnits="userSpaceOnUse" id="SVGID_2_" r="64.3334">
<stop offset="0" style="stop-color:#AFED23"/>
<stop offset="0.8121" style="stop-color:#358C0C"/>
<stop offset="1" style="stop-color:#67AD1A"/>
</radialGradient>
<path d="M49,83c-18.748,0-34-15.252-34-34s15.252-34,34-34s34,15.252,34,34S67.748,83,49,83L49,83z" fill="url(#SVGID_2_)"/>
<polygon fill-opacity="0.1" points="41.248,45.476 44.588,45.476 44.588,74.392 54.314,74.392 54.314,39.938 41.248,39.938 " stroke-opacity="0.1"/>
<path d="M49.486,36.364c1.602,0,2.887-0.396,3.854-1.187s1.449-1.88,1.449-3.267c0-1.348-0.498-2.427-1.494-3.237  c-0.996-0.81-2.266-1.216-3.809-1.216c-1.621,0-2.904,0.4-3.852,1.201c-0.949,0.801-1.422,1.885-1.422,3.252  c0,1.387,0.484,2.476,1.451,3.267S47.904,36.364,49.486,36.364z" fill-opacity="0.1" stroke-opacity="0.1"/>
<polygon fill-opacity="0.2" points="41.248,44.476 44.588,44.476 44.588,73.392 54.314,73.392 54.314,38.938 41.248,38.938 " stroke-opacity="0.2"/>
<path d="M49.486,35.364c1.602,0,2.887-0.396,3.854-1.187s1.449-1.88,1.449-3.267c0-1.348-0.498-2.427-1.494-3.237  c-0.996-0.81-2.266-1.216-3.809-1.216c-1.621,0-2.904,0.4-3.852,1.201c-0.949,0.801-1.422,1.885-1.422,3.252  c0,1.387,0.484,2.476,1.451,3.267S47.904,35.364,49.486,35.364z" fill-opacity="0.2" stroke-opacity="0.2"/>
<linearGradient gradientUnits="userSpaceOnUse" id="SVGID_3_" x1="47.7808" x2="47.7808" y1="25.9463" y2="72.9483">
<stop offset="0" style="stop-color:#F6FDFF"/>
<stop offset="1" style="stop-color:#ADB3B5"/>
</linearGradient>
<polygon fill="url(#SVGID_3_)" points="41.248,43.476 44.588,43.476 44.588,72.392 54.314,72.392 54.314,37.938 41.248,37.938 "/>
<linearGradient gradientUnits="userSpaceOnUse" id="SVGID_4_" x1="49.4653" x2="49.4653" y1="25.9463" y2="72.9475">
<stop offset="0" style="stop-color:#F6FDFF"/>
<stop offset="1" style="stop-color:#ADB3B5"/>
</linearGradient>
<path d="M49.451,34.364c1.602,0,2.887-0.396,3.854-1.187s1.449-1.88,1.449-3.267  c0-1.348-0.498-2.427-1.494-3.237c-0.996-0.81-2.266-1.216-3.809-1.216c-1.621,0-2.904,0.4-3.852,1.201  c-0.949,0.801-1.422,1.885-1.422,3.252c0,1.387,0.484,2.476,1.451,3.267S47.869,34.364,49.451,34.364z" fill="url(#SVGID_4_)"/>
</g>
</svg>
