<?xml version="1.0" encoding="UTF-8"?>
<!DOCTYPE svg PUBLIC "-//W3C//DTD SVG 1.1 Tiny//EN" "http://www.w3.org/Graphics/SVG/1.1/DTD/svg11-tiny.dtd">
<svg baseProfile="tiny" height="98" viewBox="0 0 98 98" width="98" xmlns="http://www.w3.org/2000/svg" xmlns:xlink="http://www.w3.org/1999/xlink">
<g>
<linearGradient gradientUnits="userSpaceOnUse" id="SVGID_1_" x1="49" x2="49" y1="19.2656" y2="79.7642">
<stop offset="0" style="stop-color:#DDE3E6"/>
<stop offset="0.2364" style="stop-color:#C9CED1"/>
<stop offset="0.9636" style="stop-color:#899396"/>
<stop offset="1" style="stop-color:#899396"/>
</linearGradient>
<path d="M84.606,78.16c0,1.092-0.887,1.977-1.979,1.977H15.373  c-1.092,0-1.979-0.885-1.979-1.977V21.244c0-1.092,0.887-1.979,1.979-1.979h67.254c1.092,0,1.979,0.887,1.979,1.979V78.16z" fill="url(#SVGID_1_)" fill-rule="evenodd"/>
<linearGradient gradientUnits="userSpaceOnUse" id="SVGID_2_" x1="49" x2="49" y1="18.9404" y2="80.2004">
<stop offset="0" style="stop-color:#ECF3F5"/>
<stop offset="0.2485" style="stop-color:#ECF3F5"/>
<stop offset="0.8606" style="stop-color:#7E878A"/>
<stop offset="1" style="stop-color:#B0B8BB"/>
</linearGradient>
<path d="M82.627,20.266c0.539,0,0.979,0.438,0.979,0.979V78.16c0,0.539-0.439,0.977-0.979,0.977H15.373  c-0.539,0-0.979-0.438-0.979-0.977V21.244c0-0.541,0.439-0.979,0.979-0.979H82.627 M82.627,19.266H15.373  c-1.092,0-1.979,0.887-1.979,1.979V78.16c0,1.092,0.887,1.977,1.979,1.977h67.254c1.092,0,1.979-0.885,1.979-1.977V21.244  C84.606,20.152,83.719,19.266,82.627,19.266L82.627,19.266z" fill="url(#SVGID_2_)"/>
<linearGradient gradientUnits="userSpaceOnUse" id="SVGID_3_" x1="48.9502" x2="48.9502" y1="22.9092" y2="76.448">
<stop offset="0" style="stop-color:#707173"/>
<stop offset="1" style="stop-color:#000000"/>
</linearGradient>
<rect fill="url(#SVGID_3_)" fill-opacity="0.4" height="54.146" stroke-opacity="0.4" width="64.569" x="16.666" y="22.574"/>
<linearGradient gradientUnits="userSpaceOnUse" id="SVGID_4_" x1="62.1997" x2="65.9497" y1="77.8281" y2="83.8281">
<stop offset="0" style="stop-color:#737373"/>
<stop offset="1" style="stop-color:#DEDEDE"/>
</linearGradient>
<rect fill="url(#SVGID_4_)" fill-rule="evenodd" height="36.754" width="60.874" x="18.543" y="38.299"/>
<linearGradient gradientUnits="userSpaceOnUse" id="SVGID_5_" x1="53.1274" x2="42.4507" y1="70.0684" y2="35.2004">
<stop offset="0" style="stop-color:#FFFFFF"/>
<stop offset="1" style="stop-color:#CCCCCC"/>
</linearGradient>
<path d="M66.75,72.223c-4.826,1.26-18.686,2.748-18.686,2.748h-29.5  V38.217h60.874c0,0-0.883,24.525-1.729,27.943C76.961,69.18,73.698,70.406,66.75,72.223z" fill="url(#SVGID_5_)" fill-rule="evenodd"/>
<linearGradient gradientUnits="userSpaceOnUse" id="SVGID_6_" x1="49.001" x2="49.001" y1="24.3535" y2="37.9538">
<stop offset="0" style="stop-color:#FF7042"/>
<stop offset="1" style="stop-color:#991B23"/>
</linearGradient>
<rect fill="url(#SVGID_6_)" fill-rule="evenodd" height="13.783" width="60.874" x="18.564" y="24.434"/>
<linearGradient gradientUnits="userSpaceOnUse" id="SVGID_7_" x1="63.2749" x2="66.4312" y1="68.3789" y2="74.2852">
<stop offset="0" style="stop-color:#FFFFFF"/>
<stop offset="1" style="stop-color:#000000"/>
</linearGradient>
<path d="M66,72.992  c-4.43,0.859-10.518,1.668-18.852,1.75l31.176-14.738c0,0,0.027,3.207-0.615,6.156C77.709,66.16,77.19,70.824,66,72.992z" fill="url(#SVGID_7_)" fill-opacity="0.42" fill-rule="evenodd" stroke-opacity="0.42"/>
<linearGradient gradientUnits="userSpaceOnUse" id="SVGID_8_" x1="63.8638" x2="61.9573" y1="74.6855" y2="70.4662">
<stop offset="0" style="stop-color:#9C9C9C"/>
<stop offset="1" style="stop-color:#FFFFFF"/>
</linearGradient>
<path d="M46.292,74.963c0,0,18.148-0.158,24.898-9.408  c0,0,4.834,5.957,6.52,0.605C76.993,69.836,70.516,75.098,46.292,74.963z" fill="url(#SVGID_8_)" fill-rule="evenodd"/>
<path d="M71.336,66.539c0,0,3.605,3.793,5.654,1.264  c0.385-0.578,0.615-1.146,0.719-1.68c-1.686,5.352-6.52-0.605-6.52-0.605c-6.75,9.25-24.898,9.408-24.898,9.408  C54.708,74.926,67.139,72.289,71.336,66.539z" fill="#FFFFFF" fill-rule="evenodd"/>
<linearGradient gradientUnits="userSpaceOnUse" id="SVGID_9_" x1="56.1313" x2="32.1323" y1="80.3486" y2="50.1828">
<stop offset="0" style="stop-color:#303030"/>
<stop offset="1" style="stop-color:#000000"/>
</linearGradient>
<polygon fill="url(#SVGID_9_)" points="42.172,44.025 39.739,44.025 32.346,46.357 32.346,49.041 37.61,47.805 37.61,66.385   32.346,66.547 32.346,69.229 47.149,68.717 47.149,66.09 42.172,66.244 "/>
<linearGradient gradientUnits="userSpaceOnUse" id="SVGID_10_" x1="68.2446" x2="44.2454" y1="70.7119" y2="40.5459">
<stop offset="0" style="stop-color:#303030"/>
<stop offset="1" style="stop-color:#000000"/>
</linearGradient>
<path d="M55.233,65.611c0.045-0.965,0.305-1.857,0.779-2.676c0.475-0.816,1.061-1.57,1.752-2.256  c0.695-0.686,1.654-1.543,2.883-2.566c2.203-1.813,3.602-3.281,4.191-4.422c0.596-1.133,0.893-2.279,0.893-3.443  c0-2.068-0.66-3.631-1.98-4.691c-1.32-1.063-3.246-1.596-5.785-1.596c-2.055,0-4.17,0.332-6.338,0.994v2.906h0.037  c2.063-0.738,3.826-1.109,5.277-1.115c1.377-0.006,2.408,0.307,3.096,0.932c0.688,0.627,1.029,1.561,1.029,2.807  c0,0.709-0.213,1.426-0.635,2.152c-0.428,0.725-1.449,1.756-3.072,3.098c-1.35,1.125-2.469,2.162-3.35,3.105  c-0.887,0.947-1.629,2.088-2.234,3.418c-0.6,1.334-0.9,2.85-0.9,4.551v1.779l14.951-0.516v-2.783L55.233,65.611z" fill="url(#SVGID_10_)"/>
<polygon fill="#FFE6E6" points="79.438,24.828 18.564,24.828 18.564,24.041 79.438,24.041 79.438,24.828 "/>
<linearGradient gradientUnits="userSpaceOnUse" id="SVGID_11_" x1="64.397" x2="72.517" y1="30.7393" y2="30.7393">
<stop offset="0" style="stop-color:#FB6C41"/>
<stop offset="0.497" style="stop-color:#FFB69E"/>
<stop offset="1" style="stop-color:#FB6C41"/>
</linearGradient>
<path d="M72.374,30.738c0,2.09-1.803,3.785-4.02,3.785  c-2.221,0-4.021-1.695-4.021-3.785s1.801-3.783,4.021-3.783C70.571,26.955,72.374,28.648,72.374,30.738z" fill="url(#SVGID_11_)" fill-rule="evenodd"/>
<linearGradient gradientUnits="userSpaceOnUse" id="SVGID_12_" x1="26.0947" x2="34.2147" y1="30.7393" y2="30.7393">
<stop offset="0" style="stop-color:#FB6C41"/>
<stop offset="0.497" style="stop-color:#FFB69E"/>
<stop offset="1" style="stop-color:#FB6C41"/>
</linearGradient>
<ellipse cx="30.05" cy="30.738" fill="url(#SVGID_12_)" fill-rule="evenodd" rx="4.021" ry="3.785"/>
<linearGradient gradientUnits="userSpaceOnUse" id="SVGID_13_" x1="68.353" x2="68.353" y1="26.749" y2="33.5168">
<stop offset="0" style="stop-color:#4A050A"/>
<stop offset="1" style="stop-color:#B00F25"/>
</linearGradient>
<path d="M72.374,29.768c0,2.223-1.803,4.021-4.02,4.021  c-2.221,0-4.021-1.799-4.021-4.021c0-2.217,1.801-4.02,4.021-4.02C70.571,25.748,72.374,27.551,72.374,29.768z" fill="url(#SVGID_13_)" fill-rule="evenodd"/>
<rect fill="#231F20" fill-opacity="0.4" fill-rule="evenodd" height="10.041" stroke-opacity="0.4" width="7.928" x="26.094" y="19.266"/>
<rect fill="#231F20" fill-opacity="0.4" fill-rule="evenodd" height="10.041" stroke-opacity="0.4" width="7.928" x="64.344" y="19.266"/>
<linearGradient gradientUnits="userSpaceOnUse" id="SVGID_14_" x1="65.4976" x2="71.1949" y1="23.8818" y2="23.8818">
<stop offset="0" style="stop-color:#B6B4B5"/>
<stop offset="0.1152" style="stop-color:#FFFCFE"/>
<stop offset="0.6788" style="stop-color:#595959"/>
<stop offset="0.9455" style="stop-color:#D4D3D3"/>
<stop offset="1" style="stop-color:#D4D3D3"/>
</linearGradient>
<path d="M68.354,15.41c-1.586,0-2.871,1.287-2.871,2.873v11.199  c0,1.586,1.285,2.871,2.871,2.871c1.584,0,2.871-1.285,2.871-2.871V18.283C71.225,16.697,69.938,15.41,68.354,15.41z" fill="url(#SVGID_14_)" fill-rule="evenodd"/>
<linearGradient gradientUnits="userSpaceOnUse" id="SVGID_15_" x1="30.0503" x2="30.0503" y1="26.749" y2="33.5168">
<stop offset="0" style="stop-color:#4A050A"/>
<stop offset="1" style="stop-color:#B00F25"/>
</linearGradient>
<path d="M34.071,29.768c0,2.223-1.803,4.021-4.021,4.021  c-2.221,0-4.02-1.799-4.02-4.021c0-2.217,1.799-4.02,4.02-4.02C32.268,25.748,34.071,27.551,34.071,29.768z" fill="url(#SVGID_15_)" fill-rule="evenodd"/>
<linearGradient gradientUnits="userSpaceOnUse" id="SVGID_16_" x1="27.1948" x2="32.8922" y1="23.8818" y2="23.8818">
<stop offset="0" style="stop-color:#B6B4B5"/>
<stop offset="0.1152" style="stop-color:#FFFCFE"/>
<stop offset="0.6788" style="stop-color:#595959"/>
<stop offset="0.9455" style="stop-color:#D4D3D3"/>
<stop offset="1" style="stop-color:#D4D3D3"/>
</linearGradient>
<path d="M30.049,15.41c-1.586,0-2.869,1.287-2.869,2.873v11.199  c0,1.586,1.283,2.871,2.869,2.871c1.584,0,2.873-1.285,2.873-2.871V18.283C32.922,16.697,31.633,15.41,30.049,15.41z" fill="url(#SVGID_16_)" fill-rule="evenodd"/>
<polygon fill="#701619" points="79.438,38.609 18.564,38.609 18.564,37.824 79.438,37.824 79.438,38.609 "/>
<linearGradient gradientUnits="userSpaceOnUse" id="SVGID_19_" x1="75.146" x2="77.8342" y1="70.4629" y2="70.4629">
<stop offset="0" style="stop-color:#D2D3D4"/>
<stop offset="1" style="stop-color:#000000"/>
</linearGradient>
<path d="M75.186,68.404  c-4.209,3.393-14.305,5.395-20.689,6.361c17.529-1.008,22.609-5.357,23.213-8.605C76.961,68.408,76.069,68.381,75.186,68.404z" fill="url(#SVGID_19_)" fill-opacity="0.35" fill-rule="evenodd" stroke-opacity="0.35"/>
<rect fill="none" height="98" width="98"/>
</g>
</svg>
