<?xml version="1.0" encoding="UTF-8"?>
<!DOCTYPE svg PUBLIC "-//W3C//DTD SVG 1.1 Tiny//EN" "http://www.w3.org/Graphics/SVG/1.1/DTD/svg11-tiny.dtd">
<svg baseProfile="tiny" height="60" viewBox="0 0 60 60" width="60" xmlns="http://www.w3.org/2000/svg" xmlns:xlink="http://www.w3.org/1999/xlink">
<g>
<linearGradient gradientTransform="matrix(0.2118 0.9773 -0.9773 0.2118 -634.5609 -270.4865)" gradientUnits="userSpaceOnUse" id="SVGID_1_" x1="423.0967" x2="429.6524" y1="-578.646" y2="-582.9078">
<stop offset="0" style="stop-color:#A7E722"/>
<stop offset="0.1333" style="stop-color:#A7E722"/>
<stop offset="0.6303" style="stop-color:#428C0F"/>
<stop offset="1" style="stop-color:#5CA617"/>
</linearGradient>
<path d="M19.081,33.91c2.089-3.595,4.591-6.496,7.281-9.188c2.593-2.591,6.72-5.3,8.562-6.256l9.604-10.282  c-0.845-0.3-3.693-0.464-7.279,0.616c-3.586,1.083-11.736,6.303-16.979,11.547c-5.242,5.246-9.727,12.347-10.581,14.595  c-1.343,3.541-1.221,7.445-0.929,8.58c0,0,0.34,1.035,1.144,2.377C10.248,46.475,19.081,33.91,19.081,33.91z" fill="url(#SVGID_1_)"/>
<path d="M31.184,20.8c1.488-1.036,2.87-1.882,3.74-2.334L44.271,8.46  c-0.132-0.058-0.209-0.088-0.209-0.088c-0.247-0.088-0.642-0.162-1.124-0.219c-0.793,0.006-1.596,0.093-2.401,0.27  C34.843,9.673,31.019,14.958,31.184,20.8z" fill="#020202" fill-opacity="0.05" stroke-opacity="0.05"/>
<path d="M31.906,20.306c1.205-0.809,2.291-1.462,3.018-1.84l9.377-10.04  c-0.146-0.063-0.233-0.098-0.233-0.098c-0.231-0.08-0.604-0.152-1.06-0.203c-0.751,0.006-1.51,0.087-2.27,0.253  C35.275,9.576,31.636,14.695,31.906,20.306z" fill="#020202" fill-opacity="0.1" stroke-opacity="0.1"/>
<path d="M44.079,8.263c-0.21-0.073-0.55-0.137-0.962-0.186c-0.681,0.006-1.369,0.08-2.06,0.231  c-5.087,1.116-8.426,5.984-7.978,11.233c0.725-0.455,1.363-0.826,1.844-1.076l9.424-10.088C44.178,8.302,44.079,8.263,44.079,8.263z  " fill="#020202" fill-opacity="0.1" stroke-opacity="0.1"/>
<radialGradient cx="40.9697" cy="9.21" gradientUnits="userSpaceOnUse" id="SVGID_2_" r="12.2872">
<stop offset="0" style="stop-color:#A7E722"/>
<stop offset="0.6242" style="stop-color:#428C0F"/>
<stop offset="1" style="stop-color:#5CA617"/>
</radialGradient>
<path d="M34.924,18.466l0.929,1.55c0,0,15.101-6.784,14.084-8.038c-0.513-0.631-0.577-0.656-1.237-1.263  c-1.985-1.815-4.172-2.531-4.172-2.531c-0.186-0.063-0.481-0.12-0.845-0.161c-0.596,0.004-1.2,0.068-1.806,0.201  c-4.591,1.009-7.57,5.501-6.963,10.257C34.916,18.477,34.921,18.47,34.924,18.466z" fill="url(#SVGID_2_)"/>
<path d="M17.483,34.105c-0.988-0.139-2.007-0.119-3.027,0.105c-2.418,0.531-4.376,2.066-5.646,4.131  c-0.367,2.35-0.25,4.408-0.05,5.18c0,0,0.34,1.035,1.144,2.377c0.29,0.482,6.54-8.264,8.556-11.107L17.483,34.105z" fill="#020202" fill-opacity="0.1" stroke-opacity="0.1"/>
<path d="M18.366,34.135c-0.989-0.139-2.008-0.117-3.029,0.105c-3.313,0.727-5.775,3.332-6.76,6.623  c-0.026,1.025,0.034,1.873,0.127,2.398c0.003,0.012,0.005,0.033,0.01,0.047c0,0,0.34,1.033,1.144,2.379  c0.3,0.498,6.981-8.887,8.75-11.383L18.366,34.135z" fill="#020202" fill-opacity="0.1" stroke-opacity="0.1"/>
<radialGradient cx="437.4258" cy="-571.231" gradientTransform="matrix(0.2095 0.9787 -0.9682 0.2124 -629.4526 -270.6148)" gradientUnits="userSpaceOnUse" id="SVGID_3_" r="14.6187">
<stop offset="0" style="stop-color:#A7E722"/>
<stop offset="0.6242" style="stop-color:#428C0F"/>
<stop offset="1" style="stop-color:#5CA617"/>
</radialGradient>
<path d="M11.202,47.738c0.616,0.74,0.646,0.953,1.295,1.523c1.194,1.055,9.301-13.611,9.301-13.611  l-2.683-1.719c-0.941-0.111-1.914-0.08-2.89,0.135c-4.777,1.049-7.806,5.869-6.87,10.832C9.749,45.686,10.349,46.709,11.202,47.738z  " fill="url(#SVGID_3_)"/>
<path d="M49.937,11.978c-0.179-0.22-0.381-0.446-0.578-0.67l-13.944,7.959l0.438,0.749  C35.853,20.016,50.953,13.231,49.937,11.978z" fill="#020202" fill-opacity="0.4" stroke-opacity="0.4"/>
<linearGradient gradientTransform="matrix(0.2118 0.9773 -0.9773 0.2118 -634.5599 -270.4865)" gradientUnits="userSpaceOnUse" id="SVGID_4_" x1="422.2881" x2="427.4786" y1="-610.9287" y2="-594.4409">
<stop offset="0" style="stop-color:#C6FF45"/>
<stop offset="0.6788" style="stop-color:#387300"/>
<stop offset="1" style="stop-color:#66A00E"/>
</linearGradient>
<path d="M35.853,20.016l1.178,1.981c0.302,0.515,0.972,0.674,1.569,0.422l4.09-2.334l8.043-4.668  c0.632-0.363,0.878-1.119,0.549-1.686c0,0-0.333-0.501-1.349-1.751L35.853,20.016z" fill="url(#SVGID_4_)"/>
<path d="M21.798,35.65l-0.725-0.473l-9.215,13.486c0.216,0.205,0.43,0.414,0.639,0.598  C13.691,50.316,21.798,35.65,21.798,35.65z" fill="#020202" fill-opacity="0.4" stroke-opacity="0.4"/>
<linearGradient gradientTransform="matrix(0.2118 0.9773 -0.9773 0.2118 -634.5599 -270.4865)" gradientUnits="userSpaceOnUse" id="SVGID_5_" x1="439.6982" x2="451.5232" y1="-577.7549" y2="-564.7323">
<stop offset="0" style="stop-color:#C6FF45"/>
<stop offset="0.6788" style="stop-color:#387300"/>
<stop offset="1" style="stop-color:#66A00E"/>
</linearGradient>
<path d="M12.498,49.262c1.193,1.049,1.686,1.369,1.686,1.369c0.567,0.367,1.363,0.17,1.781-0.441l7.9-11.605  c0.419-0.615,0.307-1.412-0.26-1.777l-1.808-1.156L12.498,49.262z" fill="url(#SVGID_5_)"/>
<rect fill="none" height="60" width="60"/>
</g>
<g transform="matrix(1 0 0 1 30 30)">
<radialGradient cx="-142.8838" cy="18.7676" gradientTransform="matrix(0.9351 0 0 0.9319 154.8035 3.6541)" gradientUnits="userSpaceOnUse" id="SVGID_1__" r="5.9346">
<stop offset="0" style="stop-color:#FFA98E"/>
<stop offset="0.2" style="stop-color:#FFA98E"/>
<stop offset="0.9628" style="stop-color:#D45D36"/>
<stop offset="1" style="stop-color:#D45D36"/>
</radialGradient>
<path d="M23.455,18.677c-0.522-0.227-0.506-1.339-0.291-1.675c0.038-0.059,0.072-0.117,0.108-0.176h-4.366  c0.035,0.059,0.069,0.117,0.107,0.176c0.215,0.336,0.231,1.448-0.29,1.675c-0.523,0.227,2.427,2.202,2.427,2.202  S23.977,18.903,23.455,18.677z" fill="url(#SVGID_1__)"/>
<linearGradient gradientUnits="userSpaceOnUse" id="SVGID_2__" x1="21.0889" x2="21.0889" y1="18.4707" y2="23.043">
<stop offset="0" style="stop-color:#3BC8EB"/>
<stop offset="0.3879" style="stop-color:#2D9BD2"/>
<stop offset="0.8909" style="stop-color:#1347BA"/>
<stop offset="1" style="stop-color:#1347BA"/>
</linearGradient>
<path d="M26.594,19.836c-0.549-0.286-3.271-1.238-3.322-1.299l-2.079,1.729l-2.233-1.795  c-0.063,0.092-2.752,1.035-3.374,1.365c-0.713,0.378-1.877,1.247-1.877,3.207H28.47C28.47,21.083,27.143,20.121,26.594,19.836z" fill="url(#SVGID_2__)"/>
<polygon fill="#020202" fill-opacity="0.3" points="18.45,18.693 21.192,20.879 23.768,18.737 23.271,18.537 21.192,20.266   18.959,18.471 " stroke-opacity="0.3"/>
<linearGradient gradientUnits="userSpaceOnUse" id="SVGID_3__" x1="21.1094" x2="21.1094" y1="21.0742" y2="18.5501">
<stop offset="0" style="stop-color:#3BC8EB"/>
<stop offset="1" style="stop-color:#2D9BD2"/>
</linearGradient>
<polygon fill="url(#SVGID_3__)" points="21.192,20.879 18.45,18.693 18.291,18.763 21.192,21.074 23.929,18.8 23.77,18.736 "/>
<radialGradient cx="-142.5952" cy="7.793" gradientTransform="matrix(0.9351 0 0 0.9319 154.8035 3.6541)" gradientUnits="userSpaceOnUse" id="SVGID_4__" r="7.9669">
<stop offset="0" style="stop-color:#FFE2D9"/>
<stop offset="0.5091" style="stop-color:#FFC6B3"/>
<stop offset="0.7636" style="stop-color:#FFA98E"/>
<stop offset="1" style="stop-color:#E88160"/>
</radialGradient>
<path d="M24.71,13.564c-0.019-0.008-0.04-0.009-0.059-0.015c0-0.001,0-0.001,0-0.001  c-0.004-0.001-0.007-0.002-0.007-0.002c-0.033-0.008-0.062-0.014-0.092-0.016c-3.645-0.635-5.318-2.654-5.443-2.119  c-0.101,0.425-1.123,1.346-1.658,1.805c0.004,0.021,0.008,0.039,0.012,0.06c0,0,0.02,0.094,0.06,0.254  c-0.042,0.005-0.084,0.014-0.124,0.03c-0.341,0.145-0.448,0.702-0.239,1.248c0.209,0.545,0.653,0.871,0.995,0.728  c0.021-0.009,0.039-0.023,0.058-0.036c0.198,0.445,0.44,0.922,0.738,1.4c0.499,0.593,1.263,1.288,2.106,1.288  c1.02,0,1.645-0.559,2.073-1.121c0.011-0.024,0.022-0.047,0.034-0.065c0.318-0.497,0.576-0.996,0.785-1.46  c0.333,0.115,0.761-0.194,0.974-0.719C25.143,14.281,25.047,13.717,24.71,13.564z" fill="url(#SVGID_4__)"/>
<linearGradient gradientUnits="userSpaceOnUse" id="SVGID_5__" x1="19.7725" x2="22.9214" y1="18.5293" y2="15.405">
<stop offset="0" style="stop-color:#FFC6B3"/>
<stop offset="1" style="stop-color:#FFA98E"/>
</linearGradient>
<path d="M20.906,17.902c-0.621,0-1.247-0.289-1.708-0.726c0.487,0.513,1.144,1.012,1.858,1.012  c1.02,0,1.645-0.559,2.073-1.121c0.011-0.024,0.022-0.047,0.034-0.065c0.318-0.497,0.576-0.996,0.785-1.46  C22.789,17.57,21.927,17.902,20.906,17.902z" fill="url(#SVGID_5__)"/>
<linearGradient gradientUnits="userSpaceOnUse" id="SVGID_6_" x1="21.0273" x2="21.0273" y1="8.5513" y2="13.1887">
<stop offset="0" style="stop-color:#8A5D3B"/>
<stop offset="0.3758" style="stop-color:#632F00"/>
<stop offset="1" style="stop-color:#361700"/>
</linearGradient>
<path d="M20.954,8.483c-1.265,0-1.872,0.574-2.341,1.175c-0.764,0.117-1.973,0.817-1.119,3.882  c0.535-0.459,1.515-1.703,1.615-2.128c0.127-0.54,1.828,1.521,5.542,2.137c0.044-0.172,0.063-0.272,0.063-0.272  C25.298,10.659,24.029,8.586,20.954,8.483z" fill="url(#SVGID_6_)"/>
<linearGradient gradientUnits="userSpaceOnUse" id="SVGID_7_" x1="22.6123" x2="18.4104" y1="12.9878" y2="10.4933">
<stop offset="0" style="stop-color:#8A5D3B"/>
<stop offset="0.3636" style="stop-color:#632F00"/>
<stop offset="1" style="stop-color:#361700"/>
</linearGradient>
<path d="M19.113,11.161c0,0,1.818,2.389,5.512,2.384C24.625,13.545,22.887,13.272,19.113,11.161z" fill="url(#SVGID_7_)"/>
<linearGradient gradientUnits="userSpaceOnUse" id="SVGID_8_" x1="18.0322" x2="18.0691" y1="10.0083" y2="12.6765">
<stop offset="0" style="stop-color:#8A5D3B"/>
<stop offset="0.3758" style="stop-color:#632F00"/>
<stop offset="1" style="stop-color:#361700"/>
</linearGradient>
<path d="M18.677,9.836c0,0-1.78,0.106-1.12,3.123C17.557,12.959,17.339,10.893,18.677,9.836z" fill="url(#SVGID_8_)"/>
<linearGradient gradientUnits="userSpaceOnUse" id="SVGID_9_" x1="21.6152" x2="21.4844" y1="8.9487" y2="10.1581">
<stop offset="0" style="stop-color:#A87C4F"/>
<stop offset="1" style="stop-color:#632F00"/>
</linearGradient>
<path d="M21.816,10.254c-0.828-0.118-2.23-0.853-2.779-0.59c0,0,1.799-2.053,4.972,0.284  C24.009,9.948,23.253,10.458,21.816,10.254z" fill="url(#SVGID_9_)"/>
<radialGradient cx="-155.9072" cy="18.7676" gradientTransform="matrix(0.9351 0 0 0.9319 154.8035 3.6541)" gradientUnits="userSpaceOnUse" id="SVGID_10_" r="5.9335">
<stop offset="0" style="stop-color:#FFA98E"/>
<stop offset="0.2" style="stop-color:#FFA98E"/>
<stop offset="0.9628" style="stop-color:#D45D36"/>
<stop offset="1" style="stop-color:#D45D36"/>
</radialGradient>
<path d="M11.276,18.677c-0.521-0.227-0.505-1.339-0.29-1.675c0.037-0.059,0.072-0.117,0.108-0.176H6.729  c0.035,0.059,0.069,0.117,0.107,0.176c0.215,0.336,0.23,1.448-0.29,1.675c-0.523,0.227,2.427,2.202,2.427,2.202  S11.8,18.903,11.276,18.677z" fill="url(#SVGID_10_)"/>
<linearGradient gradientUnits="userSpaceOnUse" id="SVGID_11_" x1="8.9106" x2="8.9106" y1="18.4707" y2="23.043">
<stop offset="0" style="stop-color:#3BC8EB"/>
<stop offset="0.3879" style="stop-color:#2D9BD2"/>
<stop offset="0.8909" style="stop-color:#1347BA"/>
<stop offset="1" style="stop-color:#1347BA"/>
</linearGradient>
<path d="M14.416,19.836c-0.549-0.286-3.271-1.238-3.322-1.299l-2.079,1.729l-2.233-1.795  c-0.063,0.092-2.752,1.035-3.375,1.365c-0.712,0.378-1.876,1.247-1.876,3.207h14.761C16.291,21.083,14.965,20.121,14.416,19.836z" fill="url(#SVGID_11_)"/>
<polygon fill="#020202" fill-opacity="0.3" points="6.272,18.693 9.015,20.879 11.591,18.737 11.094,18.537 9.015,20.266 6.781,18.471   " stroke-opacity="0.3"/>
<linearGradient gradientUnits="userSpaceOnUse" id="SVGID_12_" x1="8.9321" x2="8.9321" y1="21.0742" y2="18.5501">
<stop offset="0" style="stop-color:#3BC8EB"/>
<stop offset="1" style="stop-color:#2D9BD2"/>
</linearGradient>
<polygon fill="url(#SVGID_12_)" points="9.015,20.879 6.271,18.693 6.113,18.763 9.015,21.074 11.751,18.8 11.592,18.736 "/>
<radialGradient cx="-155.6182" cy="7.793" gradientTransform="matrix(0.9351 0 0 0.9319 154.8035 3.6541)" gradientUnits="userSpaceOnUse" id="SVGID_13_" r="7.9667">
<stop offset="0" style="stop-color:#FFE2D9"/>
<stop offset="0.5091" style="stop-color:#FFC6B3"/>
<stop offset="0.7636" style="stop-color:#FFA98E"/>
<stop offset="1" style="stop-color:#E88160"/>
</radialGradient>
<path d="M12.532,13.564c-0.019-0.008-0.04-0.009-0.059-0.015c0-0.001,0-0.001,0-0.001  c-0.004-0.001-0.007-0.002-0.012-0.002c-0.028-0.008-0.057-0.014-0.087-0.016c-3.645-0.635-5.317-2.654-5.443-2.119  c-0.102,0.425-1.123,1.346-1.658,1.805c0.004,0.021,0.008,0.039,0.012,0.06c0,0,0.02,0.094,0.06,0.254  c-0.043,0.005-0.085,0.014-0.124,0.03c-0.341,0.145-0.447,0.702-0.239,1.248c0.209,0.545,0.653,0.871,0.995,0.728  c0.021-0.009,0.039-0.023,0.058-0.036c0.198,0.445,0.44,0.922,0.738,1.4c0.499,0.593,1.263,1.288,2.106,1.288  c1.02,0,1.645-0.559,2.073-1.121c0.011-0.024,0.022-0.047,0.034-0.065c0.318-0.497,0.576-0.996,0.785-1.46  c0.334,0.115,0.761-0.194,0.973-0.719C12.964,14.281,12.869,13.717,12.532,13.564z" fill="url(#SVGID_13_)"/>
<linearGradient gradientUnits="userSpaceOnUse" id="SVGID_14_" x1="7.5942" x2="10.7431" y1="18.5293" y2="15.405">
<stop offset="0" style="stop-color:#FFC6B3"/>
<stop offset="1" style="stop-color:#FFA98E"/>
</linearGradient>
<path d="M8.729,17.902c-0.621,0-1.247-0.289-1.708-0.726c0.487,0.513,1.144,1.012,1.858,1.012  c1.02,0,1.645-0.559,2.073-1.121c0.011-0.024,0.022-0.047,0.034-0.065c0.318-0.497,0.576-0.996,0.785-1.46  C10.611,17.57,9.749,17.902,8.729,17.902z" fill="url(#SVGID_14_)"/>
<linearGradient gradientUnits="userSpaceOnUse" id="SVGID_15_" x1="8.8491" x2="8.8491" y1="8.5513" y2="13.1887">
<stop offset="0" style="stop-color:#8A5D3B"/>
<stop offset="0.3758" style="stop-color:#632F00"/>
<stop offset="1" style="stop-color:#361700"/>
</linearGradient>
<path d="M8.776,8.483c-1.265,0-1.872,0.574-2.342,1.175c-0.763,0.117-1.973,0.817-1.118,3.882  c0.535-0.459,1.514-1.703,1.615-2.128c0.127-0.54,1.828,1.521,5.542,2.137c0.043-0.172,0.063-0.272,0.063-0.272  C13.12,10.659,11.852,8.586,8.776,8.483z" fill="url(#SVGID_15_)"/>
<linearGradient gradientUnits="userSpaceOnUse" id="SVGID_16_" x1="10.4355" x2="6.2336" y1="12.9878" y2="10.4933">
<stop offset="0" style="stop-color:#8A5D3B"/>
<stop offset="0.3636" style="stop-color:#632F00"/>
<stop offset="1" style="stop-color:#361700"/>
</linearGradient>
<path d="M6.936,11.161c0,0,1.818,2.389,5.513,2.384C12.448,13.545,10.708,13.272,6.936,11.161z" fill="url(#SVGID_16_)"/>
<linearGradient gradientUnits="userSpaceOnUse" id="SVGID_17_" x1="5.8545" x2="5.8914" y1="10.0088" y2="12.6762">
<stop offset="0" style="stop-color:#8A5D3B"/>
<stop offset="0.3758" style="stop-color:#632F00"/>
<stop offset="1" style="stop-color:#361700"/>
</linearGradient>
<path d="M6.498,9.836c0,0-1.779,0.106-1.119,3.123C5.379,12.959,5.161,10.893,6.498,9.836z" fill="url(#SVGID_17_)"/>
<linearGradient gradientUnits="userSpaceOnUse" id="SVGID_18_" x1="9.4375" x2="9.3067" y1="8.9487" y2="10.1581">
<stop offset="0" style="stop-color:#A87C4F"/>
<stop offset="1" style="stop-color:#632F00"/>
</linearGradient>
<path d="M9.639,10.254c-0.828-0.118-2.23-0.853-2.78-0.59c0,0,1.8-2.053,4.973,0.284  C11.831,9.948,11.074,10.458,9.639,10.254z" fill="url(#SVGID_18_)"/>
<path d="M23.32,20.432c-0.506-0.264-2.081-0.849-3.347-1.318l-0.711-0.265l-0.128-0.051l-0.166-0.064  l-0.318-0.128l-0.196,0.086c-0.001,0.001-0.003,0.001-0.004,0.002h-0.001c-0.826,0.323-2.406,0.898-2.864,1.143  c-0.179,0.095-0.386,0.221-0.596,0.387c-0.221-0.182-0.426-0.31-0.573-0.387c-0.395-0.205-1.904-0.753-2.746-1.068l-0.078-0.031  l-0.002,0.001l-0.349-0.141l-0.317,0.139c-0.311,0.122-0.693,0.268-1.103,0.423l-0.038,0.015c-1.21,0.46-2.582,0.981-3.107,1.261  c-1.178,0.625-2.026,1.509-2.526,2.609h9.559h2.583h9.52C25.027,21.409,23.678,20.617,23.32,20.432z" fill="#231F20" fill-opacity="0.15" stroke-opacity="0.15"/>
<path d="M9.052,11.436c-0.561,0.477-0.712,1.432-0.349,2.38c0.342,0.894,1.048,1.494,1.758,1.494  h0.002c0.106,0.221,0.217,0.439,0.331,0.654h-0.033l0.271,0.448c0,0,0.071,0.115,0.154,0.253c0.226-0.383,0.424-0.764,0.586-1.123  c0.334,0.115,0.761-0.194,0.973-0.719c0.22-0.542,0.125-1.106-0.212-1.259c-0.019-0.008-0.04-0.009-0.059-0.015  c0-0.001,0-0.001,0-0.001c-0.004-0.001-0.007-0.002-0.012-0.002c-0.028-0.008-0.057-0.014-0.087-0.016  c-0.007-0.002-0.012-0.003-0.019-0.005c-0.015-0.003-0.032-0.007-0.05-0.011c0.057,0.011,0.109,0.023,0.167,0.033  c0.043-0.172,0.063-0.272,0.063-0.272c0.583-2.617-0.686-4.69-3.761-4.793c-0.006,0-0.01,0.001-0.017,0.001  C8.68,9.317,8.773,10.3,9.052,11.436z" fill="#231F20" fill-opacity="0.15" stroke-opacity="0.15"/>
<path d="M18.613,9.658c-0.764,0.117-1.973,0.817-1.119,3.879c-0.033,0.006-0.064,0.011-0.096,0.023  c-0.341,0.145-0.448,0.702-0.239,1.248c0.209,0.545,0.653,0.871,0.995,0.728c0.021-0.009,0.039-0.023,0.058-0.036  c0.165,0.371,0.364,0.766,0.599,1.163c0.262-0.441,0.511-0.897,0.736-1.369c0.646-0.077,1.278-0.639,1.605-1.444  c0.372-0.919,0.253-1.873-0.272-2.37c0.235-1.062,0.272-2.073,0.117-2.993c-0.015-0.001-0.028-0.003-0.043-0.003  C19.689,8.483,19.082,9.058,18.613,9.658z M17.498,13.536c0.007-0.006,0.015-0.013,0.021-0.019c0,0.005,0.002,0.008,0.003,0.013  C17.515,13.531,17.506,13.535,17.498,13.536z M19.26,11.331L19.26,11.331c-0.009-0.002-0.021-0.007-0.029-0.008  C19.239,11.324,19.251,11.329,19.26,11.331z" fill="#231F20" fill-opacity="0.15" stroke-opacity="0.15"/>
<path d="M23.185,20.693c-0.49-0.255-2.056-0.836-3.314-1.304l-0.718-0.267l-0.124-0.05l-0.171-0.065  l-0.484-0.195c-0.016-0.021-0.027-0.05-0.041-0.073c-0.85,0.328-2.31,0.863-2.747,1.097c-0.179,0.095-0.386,0.221-0.596,0.387  c-0.221-0.182-0.426-0.31-0.573-0.387c-0.395-0.205-1.904-0.753-2.746-1.068l-0.043-0.018l-0.596,0.261  c-0.32,0.125-0.719,0.276-1.144,0.438c-1.202,0.457-2.565,0.976-3.074,1.245c-1.071,0.568-1.857,1.363-2.338,2.349h9.232h2.583h9.19  C24.732,21.578,23.514,20.864,23.185,20.693z" fill="#231F20" fill-opacity="0.3" stroke-opacity="0.3"/>
<path d="M8.979,13.71c0.298,0.78,0.894,1.304,1.481,1.304c0.062,0,0.122-0.005,0.181-0.017  c0.202,0.433,0.419,0.855,0.651,1.262h-0.009l0.068,0.112c0.155-0.283,0.3-0.563,0.419-0.829c0.334,0.115,0.761-0.194,0.973-0.719  c0.22-0.542,0.125-1.106-0.212-1.259c-0.019-0.008-0.04-0.009-0.059-0.015c0-0.001,0-0.001,0-0.001  c-0.004-0.001-0.007-0.002-0.012-0.002c-0.028-0.008-0.057-0.014-0.087-0.016c-0.007-0.002-0.012-0.003-0.019-0.005  c-0.015-0.003-0.032-0.007-0.05-0.011c0.057,0.011,0.109,0.023,0.167,0.033c0.043-0.172,0.063-0.272,0.063-0.272  c0.564-2.535-0.613-4.556-3.483-4.772C8.971,9.35,9.077,10.367,9.387,11.56C8.813,11.889,8.632,12.803,8.979,13.71z" fill="#231F20" fill-opacity="0.3" stroke-opacity="0.3"/>
<path d="M18.613,9.658c-0.764,0.117-1.973,0.817-1.119,3.879c-0.033,0.006-0.064,0.011-0.096,0.023  c-0.341,0.145-0.448,0.702-0.239,1.248c0.209,0.545,0.653,0.871,0.995,0.728c0.021-0.009,0.039-0.023,0.058-0.036  c0.124,0.278,0.268,0.569,0.429,0.864c0.255-0.439,0.497-0.891,0.715-1.357c0.013,0.001,0.025,0.001,0.039,0.001  c0.58,0,1.176-0.511,1.483-1.27c0.358-0.884,0.21-1.785-0.325-2.144c0.024-0.106,0.036-0.166,0.036-0.166  c0.233-1.043,0.267-2.035,0.11-2.931C19.61,8.572,19.049,9.101,18.613,9.658z M17.498,13.536c0.007-0.006,0.015-0.013,0.021-0.019  c0,0.005,0.002,0.008,0.003,0.013C17.515,13.531,17.506,13.535,17.498,13.536z M19.26,11.331L19.26,11.331  c-0.009-0.002-0.021-0.007-0.029-0.008C19.239,11.324,19.251,11.329,19.26,11.331z" fill="#231F20" fill-opacity="0.3" stroke-opacity="0.3"/>
<radialGradient cx="-149.3442" cy="20.6172" gradientTransform="matrix(0.9351 0 0 0.9319 154.8035 3.6541)" gradientUnits="userSpaceOnUse" id="SVGID_19_" r="8.6767">
<stop offset="0" style="stop-color:#FFA98E"/>
<stop offset="0.2" style="stop-color:#FFA98E"/>
<stop offset="0.9628" style="stop-color:#D45D36"/>
<stop offset="1" style="stop-color:#D45D36"/>
</radialGradient>
<path d="M18.459,19.261c-0.764-0.332-0.738-1.957-0.424-2.449c0.055-0.085,0.104-0.171,0.157-0.257h-6.385  c0.053,0.086,0.103,0.172,0.157,0.257c0.315,0.492,0.34,2.117-0.424,2.449c-0.764,0.331,3.549,3.219,3.549,3.219  S19.223,19.592,18.459,19.261z" fill="url(#SVGID_19_)"/>
<linearGradient gradientUnits="userSpaceOnUse" id="SVGID_20_" x1="14.9995" x2="14.9995" y1="18.96" y2="25.6436">
<stop offset="0" style="stop-color:#FF7236"/>
<stop offset="1" style="stop-color:#BA1212"/>
</linearGradient>
<path d="M23.049,20.955c-0.803-0.418-4.782-1.811-4.857-1.897l-3.04,2.525l-3.266-2.623  c-0.09,0.134-4.023,1.512-4.934,1.995c-1.042,0.553-2.743,1.823-2.743,4.688H25.79C25.79,22.778,23.85,21.373,23.049,20.955z" fill="url(#SVGID_20_)"/>
<linearGradient gradientUnits="userSpaceOnUse" id="SVGID_21_" x1="15.0298" x2="15.0298" y1="18.5215" y2="22.4308">
<stop offset="0" style="stop-color:#BC1C24"/>
<stop offset="1" style="stop-color:#6B1C24"/>
</linearGradient>
<polygon fill="url(#SVGID_21_)" points="11.142,19.284 15.151,22.479 18.918,19.35 18.191,19.058 15.151,21.583 11.886,18.96 "/>
<path d="M11.33,19.79c0,0-5.72,1.493-5.72,5.502c0,0-0.817,0-0.823,0C4.787,22.827,6.709,20.91,11.33,19.79z" fill="#FF7B56"/>
<path d="M18.595,19.697c0,0,5.72,1.494,5.72,5.502c0,0,0.818,0,0.824,0C25.139,22.734,23.216,20.818,18.595,19.697z" fill="#FF7B56"/>
<linearGradient gradientUnits="userSpaceOnUse" id="SVGID_22_" x1="15.0298" x2="15.0298" y1="22.7666" y2="19.0747">
<stop offset="0" style="stop-color:#FFA98E"/>
<stop offset="0.9628" style="stop-color:#D45D36"/>
<stop offset="1" style="stop-color:#D45D36"/>
</linearGradient>
<polygon fill="url(#SVGID_22_)" points="15.151,22.479 11.141,19.284 10.908,19.387 15.151,22.767 19.151,19.44 18.919,19.347 "/>
<radialGradient cx="-148.9219" cy="4.5708" gradientTransform="matrix(0.9351 0 0 0.9319 154.8035 3.6541)" gradientUnits="userSpaceOnUse" id="SVGID_23_" r="11.6481">
<stop offset="0" style="stop-color:#FFE2D9"/>
<stop offset="0.5091" style="stop-color:#FFC6B3"/>
<stop offset="0.7636" style="stop-color:#FFA98E"/>
<stop offset="1" style="stop-color:#E88160"/>
</radialGradient>
<path d="M20.294,11.787c-0.027-0.013-0.058-0.015-0.086-0.022c0-0.001,0-0.002,0-0.002  c-0.005-0.001-0.01-0.002-0.016-0.003c-0.042-0.011-0.085-0.021-0.128-0.022c-5.33-0.928-7.775-3.88-7.959-3.099  c-0.147,0.622-1.641,1.968-2.424,2.639c0.007,0.03,0.01,0.057,0.018,0.087c0,0,0.027,0.138,0.086,0.372  c-0.062,0.007-0.123,0.02-0.182,0.045c-0.498,0.21-0.654,1.026-0.349,1.823c0.305,0.798,0.956,1.274,1.454,1.065  c0.03-0.014,0.057-0.035,0.085-0.054c0.289,0.65,0.645,1.348,1.079,2.047c0.729,0.866,1.846,1.883,3.079,1.883  c1.491,0,2.404-0.816,3.032-1.64c0.016-0.034,0.031-0.066,0.051-0.095c0.465-0.727,0.842-1.455,1.146-2.134  c0.487,0.168,1.113-0.284,1.423-1.051C20.926,12.834,20.787,12.01,20.294,11.787z" fill="url(#SVGID_23_)"/>
<linearGradient gradientUnits="userSpaceOnUse" id="SVGID_24_" x1="13.0752" x2="17.6788" y1="19.0449" y2="14.4773">
<stop offset="0" style="stop-color:#FFC6B3"/>
<stop offset="1" style="stop-color:#FFA98E"/>
</linearGradient>
<path d="M14.732,18.128c-0.908,0-1.822-0.423-2.496-1.06c0.713,0.749,1.672,1.478,2.716,1.478  c1.491,0,2.404-0.816,3.032-1.64c0.016-0.034,0.031-0.066,0.051-0.095c0.465-0.727,0.842-1.455,1.146-2.134  C17.484,17.643,16.225,18.128,14.732,18.128z" fill="url(#SVGID_24_)"/>
<linearGradient gradientUnits="userSpaceOnUse" id="SVGID_25_" x1="14.9087" x2="14.9087" y1="4.457" y2="11.2365">
<stop offset="0" style="stop-color:#8A5D3B"/>
<stop offset="0.3758" style="stop-color:#632F00"/>
<stop offset="1" style="stop-color:#361700"/>
</linearGradient>
<path d="M14.802,4.357c-1.847,0-2.736,0.84-3.423,1.718c-1.114,0.172-2.883,1.195-1.635,5.675  c0.783-0.67,2.214-2.489,2.361-3.111c0.186-0.788,2.672,2.226,8.103,3.124c0.063-0.251,0.093-0.398,0.093-0.398  C21.153,7.539,19.299,4.507,14.802,4.357z" fill="url(#SVGID_25_)"/>
<linearGradient gradientUnits="userSpaceOnUse" id="SVGID_26_" x1="17.2275" x2="11.0844" y1="10.9434" y2="7.2965">
<stop offset="0" style="stop-color:#8A5D3B"/>
<stop offset="0.3636" style="stop-color:#632F00"/>
<stop offset="1" style="stop-color:#361700"/>
</linearGradient>
<path d="M12.111,8.272c0,0,2.658,3.492,8.059,3.485C20.17,11.758,17.627,11.358,12.111,8.272z" fill="url(#SVGID_26_)"/>
<linearGradient gradientUnits="userSpaceOnUse" id="SVGID_27_" x1="10.5313" x2="10.5852" y1="6.5864" y2="10.4881">
<stop offset="0" style="stop-color:#8A5D3B"/>
<stop offset="0.3758" style="stop-color:#632F00"/>
<stop offset="1" style="stop-color:#361700"/>
</linearGradient>
<path d="M11.473,6.335c0,0-2.603,0.155-1.637,4.566C9.836,10.901,9.518,7.881,11.473,6.335z" fill="url(#SVGID_27_)"/>
<linearGradient gradientUnits="userSpaceOnUse" id="SVGID_28_" x1="15.7695" x2="15.5783" y1="5.0376" y2="6.806">
<stop offset="0" style="stop-color:#A87C4F"/>
<stop offset="1" style="stop-color:#632F00"/>
</linearGradient>
<path d="M16.064,6.946c-1.212-0.173-3.262-1.247-4.065-0.863c0,0,2.63-3,7.271,0.415  C19.27,6.498,18.164,7.245,16.064,6.946z" fill="url(#SVGID_28_)"/>
<rect fill="none" height="30" width="30"/>
</g>
</svg>
