<?xml version="1.0" encoding="UTF-8"?>
<!DOCTYPE svg PUBLIC "-//W3C//DTD SVG 1.1 Tiny//EN" "http://www.w3.org/Graphics/SVG/1.1/DTD/svg11-tiny.dtd">
<svg baseProfile="tiny" height="40px" version="1.1" viewBox="0 0 40 40" width="40px" x="0px" xmlns="http://www.w3.org/2000/svg" xmlns:xlink="http://www.w3.org/1999/xlink" y="0px">
<rect fill="none" fill-opacity="0.5" height="40" stroke-opacity="0.5" width="40"/>
<path d="M7,29.658l0.203-0.268c0.204-0.269,0.549-0.491,1.832-1.299c3.349-2.109,5.38-3.613,6.21-4.599l0.649-0.771l-0.775-0.644  c-1.017-0.843-1.78-1.794-2.27-2.823c-0.91-1.926-1.027-5.992-0.851-8.887c0.037-2.277,2.188-4.549,4.495-5.662  C15.347,3.707,13.893,3,12.723,3h-1.457c-2.298,0-5.21,2.72-5.21,5.042c0,0-0.348,4.673,0.69,6.92  C7.315,16.188,7.848,17.217,9.013,18c0.003,0.16,0.014,0.842,0.004,1C8.874,21.279,2,24,2,24v6.576h5V29.658z"/>
<path d="M30.986,19c-0.011-0.168,0-0.861,0.003-1.031c1.138-0.785,1.635-1.804,2.234-3.007c1.11-2.228,0.704-6.92,0.704-6.92  C33.928,5.72,31.02,3,28.723,3h-1.457c-1.171,0-2.622,0.708-3.766,1.708c2.307,1.109,4.459,3.367,4.499,5.606  c0.208,2.965,0.102,7.047-0.875,8.967c-0.515,1.007-1.278,1.939-2.27,2.771l-0.759,0.636l0.629,0.765  c0.809,0.985,2.849,2.503,6.237,4.64c1.285,0.811,1.63,1.033,1.835,1.304L33,29.664v0.912h5v-6.572  C38,24.004,31.128,21.279,30.986,19z"/>
<path d="M17.29,21.197l0.442,0.291l0.012,0.652c0.005,0.197,0.009,0.449-0.001,0.604c-0.006,0.1-0.027,0.199-0.048,0.299h4.612  c-0.021-0.1-0.042-0.199-0.048-0.297c-0.011-0.164-0.006-0.426-0.002-0.633l0.012-0.65l0.433-0.292  c1.226-0.827,2.114-1.769,2.64-2.799c0.888-1.743,0.778-6.309,0.658-7.993C26,8.619,22.883,6,20.788,6h-1.589  c-2.09,0-5.199,2.619-5.201,4.441c-0.102,1.611-0.18,6.182,0.658,7.956C15.146,19.431,16.033,20.373,17.29,21.197z"/>
<path d="M29.896,29.785c-2.625-1.655-5.07-3.275-6.457-4.805L20,32.756l-3.438-7.775c-1.388,1.529-3.834,3.148-6.46,4.803  C9.709,30.03,9.28,30.301,9,30.486V36h22v-5.509C30.72,30.305,30.289,30.033,29.896,29.785z"/>
</svg>
