<?xml version="1.0" encoding="UTF-8"?>
<!DOCTYPE svg PUBLIC "-//W3C//DTD SVG 1.1 Tiny//EN" "http://www.w3.org/Graphics/SVG/1.1/DTD/svg11-tiny.dtd">
<svg baseProfile="tiny" height="34" viewBox="0 0 34 34" width="34" xmlns="http://www.w3.org/2000/svg" xmlns:xlink="http://www.w3.org/1999/xlink">
<g>
<path d="M28.756,8.553c-0.034,0.01-3.438,0.859-5.835,0.859c-1.021,0-1.432-0.158-1.562-0.227  c-0.32-0.168-0.647-0.623-1.025-1.15c-0.685-0.953-1.622-2.26-3.415-2.965c-0.372-0.147-0.827-0.219-1.391-0.219  c-1.39,0-3.277,0.453-4.528,0.803V3H4v4h1v24h5v-6.512l0.74-0.816c1.038-1.143,4.148-4.217,6.06-4.703  c0.443-0.113,1.529-0.221,2.487-0.316c0.892-0.09,1.733-0.174,2.217-0.273c3.973-0.818,7.928-7.592,8.365-8.361l1.158-2.037  L28.756,8.553z" fill-opacity="0.6" stroke-opacity="0.6"/>
<linearGradient gradientUnits="userSpaceOnUse" id="SVGID_1_" x1="9" x2="6.0412" y1="17.9995" y2="17.9995">
<stop offset="0" style="stop-color:#8C8E8F"/>
<stop offset="0.6545" style="stop-color:#D9D9D9"/>
<stop offset="1" style="stop-color:#AEB2B3"/>
</linearGradient>
<rect fill="url(#SVGID_1_)" height="24" width="3" x="6" y="6"/>
<linearGradient gradientUnits="userSpaceOnUse" id="SVGID_2_" x1="9.9585" x2="5.0415" y1="5" y2="5">
<stop offset="0" style="stop-color:#4F4F4F"/>
<stop offset="0.589" style="stop-color:#BFBFBF"/>
<stop offset="1" style="stop-color:#6B6B6B"/>
</linearGradient>
<rect fill="url(#SVGID_2_)" height="2" width="5" x="5" y="4"/>
<rect fill-opacity="0.2" height="1" stroke-opacity="0.2" width="3" x="6" y="6"/>
<linearGradient gradientUnits="userSpaceOnUse" id="SVGID_3_" x1="10" x2="29" y1="14.4258" y2="14.4258">
<stop offset="0" style="stop-color:#D82E09"/>
<stop offset="0.3553" style="stop-color:#DE4E29"/>
<stop offset="0.7017" style="stop-color:#DE8029"/>
<stop offset="1" style="stop-color:#DE8029"/>
</linearGradient>
<path d="M10,7c0,0,4.928-1.641,6.553-1c2.538,1,3.022,3.377,4.341,4.07C22.817,11.084,29,9.523,29,9.523  s-4.054,7.126-7.697,7.876c-0.954,0.196-3.805,0.36-4.75,0.601C13.932,18.667,10,23,10,23V7z" fill="url(#SVGID_3_)"/>
<path d="M16.553,7.148c2.538,1,3.022,3.377,4.341,4.07c1.491,0.785,5.528,0.026,7.275-0.355  C28.687,10.068,29,9.523,29,9.523s-6.183,1.561-8.106,0.547C19.575,9.377,19.091,7,16.553,6C14.928,5.359,10,7,10,7v1.148  C10,8.148,14.928,6.508,16.553,7.148z" fill="#FFFFFF" fill-opacity="0.4" stroke-opacity="0.4"/>
<rect fill="none" height="34" width="34"/>
</g>
</svg>
