<?xml version="1.0" encoding="UTF-8"?>
<!DOCTYPE svg PUBLIC "-//W3C//DTD SVG 1.1 Tiny//EN" "http://www.w3.org/Graphics/SVG/1.1/DTD/svg11-tiny.dtd">
<svg baseProfile="tiny" height="60" viewBox="0 0 60 60" width="60" xmlns="http://www.w3.org/2000/svg" xmlns:xlink="http://www.w3.org/1999/xlink">
<g>
<linearGradient gradientUnits="userSpaceOnUse" id="SVGID_1_" x1="24.8813" x2="24.8813" y1="7.5845" y2="43.0965">
<stop offset="0" style="stop-color:#FFE6DE"/>
<stop offset="1" style="stop-color:#DB7250"/>
</linearGradient>
<polygon fill="url(#SVGID_1_)" points="30.736,19.219 42.881,25.074 30.736,30.929 24.883,43.072 19.027,30.929 6.883,25.074   19.027,19.219 24.883,7.074 "/>
<linearGradient gradientUnits="userSpaceOnUse" id="SVGID_2_" x1="24.8823" x2="24.8823" y1="10.6411" y2="39.1127">
<stop offset="0" style="stop-color:#FF7236"/>
<stop offset="0.7879" style="stop-color:#D11414"/>
<stop offset="1" style="stop-color:#E8522A"/>
</linearGradient>
<polygon fill="url(#SVGID_2_)" points="39.816,25.074 29.74,29.931 24.883,40.007 20.023,29.931 9.949,25.074 20.023,20.217   24.883,10.141 29.74,20.217 "/>
<linearGradient gradientUnits="userSpaceOnUse" id="SVGID_3_" x1="24.8813" x2="24.8813" y1="4.7598" y2="45.2925">
<stop offset="0" style="stop-color:#FF3030"/>
<stop offset="1" style="stop-color:#9C2D31"/>
</linearGradient>
<path d="M24.883,7.474l5.549,11.511l0.176,0.364l0.363,0.177l11.512,5.549l-11.512,5.548l-0.363,0.177  l-0.176,0.364l-5.549,11.511l-5.551-11.511l-0.176-0.364l-0.363-0.177L7.281,25.074l11.512-5.549l0.363-0.177l0.176-0.364  L24.883,7.474 M24.883,4.808L18.291,18.48L4.615,25.074l13.676,6.591l6.592,13.675l6.592-13.675l13.674-6.591L31.475,18.48  L24.883,4.808L24.883,4.808z" fill="url(#SVGID_3_)"/>
<linearGradient gradientUnits="userSpaceOnUse" id="SVGID_4_" x1="42.7295" x2="42.7295" y1="31.2969" y2="53.7754">
<stop offset="0" style="stop-color:#FFE6DE"/>
<stop offset="1" style="stop-color:#DB7250"/>
</linearGradient>
<polygon fill="url(#SVGID_4_)" points="46.385,38.88 53.969,42.535 46.385,46.191 42.73,53.775 39.074,46.191 31.49,42.535   39.074,38.88 42.73,31.297 "/>
<linearGradient gradientUnits="userSpaceOnUse" id="SVGID_5_" x1="42.7295" x2="42.7295" y1="33.21" y2="51.8594">
<stop offset="0" style="stop-color:#FF7236"/>
<stop offset="0.7879" style="stop-color:#D11414"/>
<stop offset="1" style="stop-color:#E8522A"/>
</linearGradient>
<polygon fill="url(#SVGID_5_)" points="52.055,42.535 45.764,45.567 42.73,51.859 39.695,45.567 33.404,42.535 39.695,39.502   42.73,33.21 45.764,39.502 "/>
<linearGradient gradientUnits="userSpaceOnUse" id="SVGID_6_" x1="42.7295" x2="42.7295" y1="29.8491" y2="55.1621">
<stop offset="0" style="stop-color:#FF3030"/>
<stop offset="1" style="stop-color:#9C2D31"/>
</linearGradient>
<path d="M42.73,31.545l3.465,7.188l0.109,0.227l0.229,0.11l7.188,3.466L46.533,46l-0.229,0.11l-0.109,0.227  l-3.465,7.187l-3.465-7.187l-0.109-0.227L38.928,46l-7.188-3.465l7.188-3.466l0.229-0.11l0.109-0.227L42.73,31.545 M42.73,29.879  l-4.117,8.54l-8.539,4.116l8.539,4.115l4.117,8.541l4.115-8.541l8.539-4.115l-8.539-4.116L42.73,29.879L42.73,29.879z" fill="url(#SVGID_6_)"/>
<rect fill="none" height="60" width="60"/>
</g>
</svg>
