<?xml version="1.0" encoding="UTF-8"?>
<!DOCTYPE svg PUBLIC "-//W3C//DTD SVG 1.1 Tiny//EN" "http://www.w3.org/Graphics/SVG/1.1/DTD/svg11-tiny.dtd">
<svg baseProfile="tiny" height="30" viewBox="0 0 30 30" width="30" xmlns="http://www.w3.org/2000/svg" xmlns:xlink="http://www.w3.org/1999/xlink">
<g>
<path d="M22.493,24c-2.313,0-4.223-1.753-4.472-4h-6.057c-0.249,2.247-2.159,4-4.472,4s-4.223-1.753-4.472-4H1v-6.205  l4.379-1.031l1.022-5.639l16.206-1.19l0.4,2.704l0.628,4.098L29,13.76V20h-2.035C26.716,22.247,24.806,24,22.493,24L22.493,24z" fill-opacity="0.6" stroke-opacity="0.6"/>
<linearGradient gradientUnits="userSpaceOnUse" id="SVGID_1_" x1="14.9995" x2="14.9995" y1="6.7944" y2="19.9878">
<stop offset="0" style="stop-color:#DE8029"/>
<stop offset="0.2606" style="stop-color:#DE4E29"/>
<stop offset="1" style="stop-color:#D82E09"/>
</linearGradient>
<polygon fill="url(#SVGID_1_)" points="22.755,13.586 22.708,13.284 21.453,11.635 22.019,8.785 21.754,7 7.247,8.065 6.246,13.586   2,14.586 2,19 28,19 28,14.586 "/>
<linearGradient gradientUnits="userSpaceOnUse" id="SVGID_2_" x1="10.5132" x2="10.5132" y1="8.0869" y2="17.272">
<stop offset="0" style="stop-color:#FFFFFF"/>
<stop offset="1" style="stop-color:#4F4F4F"/>
</linearGradient>
<polygon fill="url(#SVGID_2_)" points="8.352,9.614 7.687,13.284 13.34,13.284 13.34,9.225 "/>
<linearGradient gradientUnits="userSpaceOnUse" id="SVGID_3_" x1="18.9775" x2="18.9775" y1="8.0874" y2="17.2715">
<stop offset="0" style="stop-color:#FFFFFF"/>
<stop offset="1" style="stop-color:#4F4F4F"/>
</linearGradient>
<polygon fill="url(#SVGID_3_)" points="22.019,8.785 15.247,9.108 15.247,13.253 22.708,13.284 "/>
<linearGradient gradientUnits="userSpaceOnUse" id="SVGID_4_" x1="7.4932" x2="7.4932" y1="13.0752" y2="22.7844">
<stop offset="0" style="stop-color:#808080"/>
<stop offset="0.5" style="stop-color:#636363"/>
<stop offset="1" style="stop-color:#1C1C1C"/>
</linearGradient>
<circle cx="7.493" cy="19.5" fill="url(#SVGID_4_)" r="3.5"/>
<circle cx="7.493" cy="19.5" fill="#A3A3A3" r="1.5"/>
<linearGradient gradientUnits="userSpaceOnUse" id="SVGID_5_" x1="22.4932" x2="22.4932" y1="13.0752" y2="22.7844">
<stop offset="0" style="stop-color:#808080"/>
<stop offset="0.5" style="stop-color:#636363"/>
<stop offset="1" style="stop-color:#1C1C1C"/>
</linearGradient>
<circle cx="22.493" cy="19.5" fill="url(#SVGID_5_)" r="3.5"/>
<circle cx="22.493" cy="19.5" fill="#A3A3A3" r="1.5"/>
<rect fill="none" height="30" width="30"/>
</g>
</svg>
