<?xml version="1.0" encoding="utf-8"?>
<!-- Generator: Adobe Illustrator 14.0.0, SVG Export Plug-In  -->
<!DOCTYPE svg PUBLIC "-//W3C//DTD SVG 1.1//EN" "http://www.w3.org/Graphics/SVG/1.1/DTD/svg11.dtd" [
	<!ENTITY ns_flows "http://ns.adobe.com/Flows/1.0/">
]>
<svg version="1.1"
	 xmlns="http://www.w3.org/2000/svg" xmlns:xlink="http://www.w3.org/1999/xlink" xmlns:a="http://ns.adobe.com/AdobeSVGViewerExtensions/3.0/"
	 x="0px" y="0px" width="30px" height="30px" viewBox="0 0 30 30" enable-background="new 0 0 30 30" xml:space="preserve">
<defs>
</defs>
<path d="M8.61,22H4.459l6.825-7.251l1.341,1.173c0.437-0.512,0.886-1.014,1.347-1.479L4.323,6h21.354l-2.813,2.461
	C24.142,8.084,25.193,8,25.852,8c0.196,0,0.362,0.021,0.538,0.033L27,7.5v0.616c0.155,0.032,0.319,0.059,0.45,0.105
	c0.093,0.029,1.361,0.468,2.55,1.525V3H0v22h8.019C8.068,24.072,8.244,23.011,8.61,22z M3,7.5l7.154,6.26L3,21.361V7.5z"/>
<path d="M29.674,13.479l-5.662,3.269c-0.278,0.117-0.591,0.042-0.732-0.196l-0.983-1.648c-0.002,0.001-0.003,0.006-0.005,0.007
	c0-0.001,0-0.003,0-0.004c-0.86,0.447-2.783,1.709-3.99,2.916c-1.255,1.257-2.422,2.609-3.397,4.289c0,0-0.005,0.007-0.006,0.007
	c0.007,0.001,0.014,0.001,0.021,0.002l2.097,1.343c0.263,0.169,0.317,0.542,0.122,0.827l-3.688,5.418
	c-0.195,0.283-0.566,0.378-0.831,0.205c0,0-0.228-0.148-0.786-0.638c0,0-0.001,0-0.002,0c-0.302-0.266-0.315-0.365-0.604-0.712
	c-0.245-0.295-0.44-0.588-0.602-0.857c-0.001-0.001-0.004,0-0.005-0.002c-0.032-0.054-0.062-0.105-0.091-0.158
	c-0.004-0.007-0.009-0.015-0.011-0.019c-0.301-0.537-0.43-0.932-0.43-0.932c-0.138-0.53-0.195-2.351,0.432-4.005
	c0.399-1.049,2.492-4.361,4.938-6.811c2.445-2.448,6.249-4.884,7.924-5.389c1.673-0.505,3.002-0.427,3.396-0.286
	c0,0,1.021,0.333,1.946,1.18c0.308,0.283,0.338,0.295,0.578,0.589c0.001,0.002,0,0.005,0.001,0.006
	c-0.001-0.001-0.001-0.003-0.003-0.004c0.473,0.583,0.629,0.817,0.629,0.817C30.084,12.958,29.968,13.312,29.674,13.479z"/>
<path d="M27,17.332v4.029l-2.506-2.664l-1.063,1.063L25.541,22h-7.168c0.422,0.364,0.717,0.848,0.829,1.406
	c0.108,0.535,0.037,1.094-0.186,1.594H30v-9.399L27,17.332z"/>
<rect fill="none" width="30" height="30"/>
</svg>
