<?xml version="1.0" encoding="UTF-8"?>
<!DOCTYPE svg PUBLIC "-//W3C//DTD SVG 1.1 Tiny//EN" "http://www.w3.org/Graphics/SVG/1.1/DTD/svg11-tiny.dtd">
<svg baseProfile="tiny" height="60" viewBox="0 0 60 60" width="60" xmlns="http://www.w3.org/2000/svg" xmlns:xlink="http://www.w3.org/1999/xlink">
<g>
<linearGradient gradientTransform="matrix(0.2118 0.9773 -0.9773 0.2118 -634.5609 -270.4865)" gradientUnits="userSpaceOnUse" id="SVGID_1_" x1="423.0967" x2="429.6524" y1="-578.646" y2="-582.9078">
<stop offset="0" style="stop-color:#A7E722"/>
<stop offset="0.1333" style="stop-color:#A7E722"/>
<stop offset="0.6303" style="stop-color:#428C0F"/>
<stop offset="1" style="stop-color:#5CA617"/>
</linearGradient>
<path d="M19.081,33.91c2.089-3.595,4.591-6.496,7.281-9.188c2.593-2.591,6.72-5.3,8.562-6.256l9.604-10.282  c-0.845-0.3-3.693-0.464-7.279,0.616c-3.586,1.083-11.736,6.303-16.979,11.547c-5.242,5.246-9.727,12.347-10.581,14.595  c-1.343,3.541-1.221,7.445-0.929,8.58c0,0,0.34,1.035,1.144,2.377C10.248,46.475,19.081,33.91,19.081,33.91z" fill="url(#SVGID_1_)"/>
<path d="M31.184,20.8c1.488-1.036,2.87-1.882,3.74-2.334L44.271,8.46  c-0.132-0.058-0.209-0.088-0.209-0.088c-0.247-0.088-0.642-0.162-1.124-0.219c-0.793,0.006-1.596,0.093-2.401,0.27  C34.843,9.673,31.019,14.958,31.184,20.8z" fill="#020202" fill-opacity="0.05" stroke-opacity="0.05"/>
<path d="M31.906,20.306c1.205-0.809,2.291-1.462,3.018-1.84l9.377-10.04  c-0.146-0.063-0.233-0.098-0.233-0.098c-0.231-0.08-0.604-0.152-1.06-0.203c-0.751,0.006-1.51,0.087-2.27,0.253  C35.275,9.576,31.636,14.695,31.906,20.306z" fill="#020202" fill-opacity="0.1" stroke-opacity="0.1"/>
<path d="M44.079,8.263c-0.21-0.073-0.55-0.137-0.962-0.186c-0.681,0.006-1.369,0.08-2.06,0.231  c-5.087,1.116-8.426,5.984-7.978,11.233c0.725-0.455,1.363-0.826,1.844-1.076l9.424-10.088C44.178,8.302,44.079,8.263,44.079,8.263z  " fill="#020202" fill-opacity="0.1" stroke-opacity="0.1"/>
<radialGradient cx="40.9697" cy="9.21" gradientUnits="userSpaceOnUse" id="SVGID_2_" r="12.2872">
<stop offset="0" style="stop-color:#A7E722"/>
<stop offset="0.6242" style="stop-color:#428C0F"/>
<stop offset="1" style="stop-color:#5CA617"/>
</radialGradient>
<path d="M34.924,18.466l0.929,1.55c0,0,15.101-6.784,14.084-8.038c-0.513-0.631-0.577-0.656-1.237-1.263  c-1.985-1.815-4.172-2.531-4.172-2.531c-0.186-0.063-0.481-0.12-0.845-0.161c-0.596,0.004-1.2,0.068-1.806,0.201  c-4.591,1.009-7.57,5.501-6.963,10.257C34.916,18.477,34.921,18.47,34.924,18.466z" fill="url(#SVGID_2_)"/>
<path d="M17.483,34.105c-0.988-0.139-2.007-0.119-3.027,0.105c-2.418,0.531-4.376,2.066-5.646,4.131  c-0.367,2.35-0.25,4.408-0.05,5.18c0,0,0.34,1.035,1.144,2.377c0.29,0.482,6.54-8.264,8.556-11.107L17.483,34.105z" fill="#020202" fill-opacity="0.1" stroke-opacity="0.1"/>
<path d="M18.366,34.135c-0.989-0.139-2.008-0.117-3.029,0.105c-3.313,0.727-5.775,3.332-6.76,6.623  c-0.026,1.025,0.034,1.873,0.127,2.398c0.003,0.012,0.005,0.033,0.01,0.047c0,0,0.34,1.033,1.144,2.379  c0.3,0.498,6.981-8.887,8.75-11.383L18.366,34.135z" fill="#020202" fill-opacity="0.1" stroke-opacity="0.1"/>
<radialGradient cx="437.4258" cy="-571.231" gradientTransform="matrix(0.2095 0.9787 -0.9682 0.2124 -629.4526 -270.6148)" gradientUnits="userSpaceOnUse" id="SVGID_3_" r="14.6187">
<stop offset="0" style="stop-color:#A7E722"/>
<stop offset="0.6242" style="stop-color:#428C0F"/>
<stop offset="1" style="stop-color:#5CA617"/>
</radialGradient>
<path d="M11.202,47.738c0.616,0.74,0.646,0.953,1.295,1.523c1.194,1.055,9.301-13.611,9.301-13.611  l-2.683-1.719c-0.941-0.111-1.914-0.08-2.89,0.135c-4.777,1.049-7.806,5.869-6.87,10.832C9.749,45.686,10.349,46.709,11.202,47.738z  " fill="url(#SVGID_3_)"/>
<path d="M49.937,11.978c-0.179-0.22-0.381-0.446-0.578-0.67l-13.944,7.959l0.438,0.749  C35.853,20.016,50.953,13.231,49.937,11.978z" fill="#020202" fill-opacity="0.4" stroke-opacity="0.4"/>
<linearGradient gradientTransform="matrix(0.2118 0.9773 -0.9773 0.2118 -634.5599 -270.4865)" gradientUnits="userSpaceOnUse" id="SVGID_4_" x1="422.2881" x2="427.4786" y1="-610.9287" y2="-594.4409">
<stop offset="0" style="stop-color:#C6FF45"/>
<stop offset="0.6788" style="stop-color:#387300"/>
<stop offset="1" style="stop-color:#66A00E"/>
</linearGradient>
<path d="M35.853,20.016l1.178,1.981c0.302,0.515,0.972,0.674,1.569,0.422l4.09-2.334l8.043-4.668  c0.632-0.363,0.878-1.119,0.549-1.686c0,0-0.333-0.501-1.349-1.751L35.853,20.016z" fill="url(#SVGID_4_)"/>
<path d="M21.798,35.65l-0.725-0.473l-9.215,13.486c0.216,0.205,0.43,0.414,0.639,0.598  C13.691,50.316,21.798,35.65,21.798,35.65z" fill="#020202" fill-opacity="0.4" stroke-opacity="0.4"/>
<linearGradient gradientTransform="matrix(0.2118 0.9773 -0.9773 0.2118 -634.5599 -270.4865)" gradientUnits="userSpaceOnUse" id="SVGID_5_" x1="439.6982" x2="451.5232" y1="-577.7549" y2="-564.7323">
<stop offset="0" style="stop-color:#C6FF45"/>
<stop offset="0.6788" style="stop-color:#387300"/>
<stop offset="1" style="stop-color:#66A00E"/>
</linearGradient>
<path d="M12.498,49.262c1.193,1.049,1.686,1.369,1.686,1.369c0.567,0.367,1.363,0.17,1.781-0.441l7.9-11.605  c0.419-0.615,0.307-1.412-0.26-1.777l-1.808-1.156L12.498,49.262z" fill="url(#SVGID_5_)"/>
<rect fill="none" height="60" width="60"/>
</g>
<g transform="matrix(1 0 0 1 30 30)">
<linearGradient gradientUnits="userSpaceOnUse" id="SVGID_1__" x1="24.2559" x2="3.9098" y1="9.6294" y2="21.619">
<stop offset="0" style="stop-color:#FF7236"/>
<stop offset="1" style="stop-color:#BA1212"/>
</linearGradient>
<polygon fill="url(#SVGID_1__)" points="24.906,14.512 22.037,13.527 21.988,13.213 20.682,11.494 21.27,8.527 20.996,6.668   15.602,7.752 7.967,7.777 6.924,13.527 6.535,13.619 4.268,14.578 2.5,14.568 2.5,19.168 27.5,19.168 27.5,14.568 "/>
<linearGradient gradientUnits="userSpaceOnUse" id="SVGID_2__" x1="24.7686" x2="24.7686" y1="10.4985" y2="21.347">
<stop offset="0" style="stop-color:#FF7236"/>
<stop offset="1" style="stop-color:#BA1212"/>
</linearGradient>
<polygon fill="url(#SVGID_2__)" points="22.523,14.465 27.5,15.367 27.5,14.568 22.037,13.527 "/>
<linearGradient gradientUnits="userSpaceOnUse" id="SVGID_3__" x1="4.5176" x2="4.5176" y1="6.7505" y2="25.9531">
<stop offset="0" style="stop-color:#FF7236"/>
<stop offset="1" style="stop-color:#BA1212"/>
</linearGradient>
<polygon fill="url(#SVGID_3__)" points="6.375,14.465 6.535,13.619 2.5,14.568 2.5,15.334 "/>
<linearGradient gradientUnits="userSpaceOnUse" id="SVGID_4__" x1="14.4692" x2="14.4692" y1="6.7544" y2="25.9488">
<stop offset="0" style="stop-color:#FF824D"/>
<stop offset="1" style="stop-color:#CC2F21"/>
</linearGradient>
<polygon fill="url(#SVGID_4__)" points="21.129,7.568 20.996,6.668 7.967,7.777 7.811,8.645 "/>
<linearGradient gradientUnits="userSpaceOnUse" id="SVGID_5__" x1="11.3682" x2="11.3682" y1="7.7993" y2="17.3666">
<stop offset="0" style="stop-color:#FFFFFF"/>
<stop offset="1" style="stop-color:#4F4F4F"/>
</linearGradient>
<polygon fill="url(#SVGID_5__)" points="9.115,9.391 8.424,13.213 14.313,13.213 14.313,8.984 "/>
<linearGradient gradientUnits="userSpaceOnUse" id="SVGID_6_" x1="19.1436" x2="19.1436" y1="7.8008" y2="17.3656">
<stop offset="0" style="stop-color:#FFFFFF"/>
<stop offset="0.6182" style="stop-color:#868686"/>
<stop offset="0.9636" style="stop-color:#E4E4E4"/>
<stop offset="1" style="stop-color:#E4E4E4"/>
</linearGradient>
<polygon fill="url(#SVGID_6_)" points="21.27,8.527 16.299,8.863 16.299,13.18 21.988,13.213 "/>
<path d="M11.869,19.037c0-2.014-1.633-3.646-3.646-3.646s-3.646,1.633-3.646,3.646c0,0.045,0.012,0.086,0.014,0.131  h7.266C11.857,19.123,11.869,19.082,11.869,19.037z" fill-opacity="0.3" stroke-opacity="0.3"/>
<path d="M21.764,15.391c-2.012,0-3.645,1.633-3.645,3.646c0,0.045,0.012,0.086,0.012,0.131h7.266  c0.002-0.045,0.014-0.086,0.014-0.131C25.41,17.023,23.779,15.391,21.764,15.391z" fill-opacity="0.3" stroke-opacity="0.3"/>
<linearGradient gradientUnits="userSpaceOnUse" id="SVGID_7_" x1="8.2227" x2="8.2227" y1="13.5347" y2="22.8341">
<stop offset="0" style="stop-color:#808080"/>
<stop offset="0.5" style="stop-color:#636363"/>
<stop offset="1" style="stop-color:#1C1C1C"/>
</linearGradient>
<circle cx="8.223" cy="19.688" fill="url(#SVGID_7_)" r="3.354"/>
<linearGradient gradientUnits="userSpaceOnUse" id="SVGID_8_" x1="8.2227" x2="8.2227" y1="16" y2="23.4217">
<stop offset="0" style="stop-color:#B0B0B0"/>
<stop offset="1" style="stop-color:#444444"/>
</linearGradient>
<path d="M8.223,16.563c1.723,0,3.125,1.402,3.125,3.125s-1.402,3.125-3.125,3.125s-3.125-1.402-3.125-3.125  S6.5,16.563,8.223,16.563 M8.223,16.043c-2.014,0-3.646,1.631-3.646,3.645s1.633,3.646,3.646,3.646s3.646-1.633,3.646-3.646  S10.236,16.043,8.223,16.043L8.223,16.043z" fill="url(#SVGID_8_)"/>
<circle cx="8.223" cy="19.688" fill="#A3A3A3" r="1.563"/>
<linearGradient gradientUnits="userSpaceOnUse" id="SVGID_9_" x1="21.7646" x2="21.7646" y1="13.5347" y2="22.8341">
<stop offset="0" style="stop-color:#808080"/>
<stop offset="0.5" style="stop-color:#636363"/>
<stop offset="1" style="stop-color:#1C1C1C"/>
</linearGradient>
<circle cx="21.765" cy="19.688" fill="url(#SVGID_9_)" r="3.353"/>
<linearGradient gradientUnits="userSpaceOnUse" id="SVGID_10_" x1="21.7646" x2="21.7646" y1="16.1309" y2="23.4219">
<stop offset="0" style="stop-color:#B0B0B0"/>
<stop offset="1" style="stop-color:#444444"/>
</linearGradient>
<path d="M21.764,16.563c1.725,0,3.125,1.402,3.125,3.125s-1.4,3.125-3.125,3.125  c-1.723,0-3.125-1.402-3.125-3.125S20.041,16.563,21.764,16.563 M21.764,16.043c-2.012,0-3.645,1.631-3.645,3.645  s1.633,3.646,3.645,3.646c2.016,0,3.646-1.633,3.646-3.646S23.779,16.043,21.764,16.043L21.764,16.043z" fill="url(#SVGID_10_)"/>
<circle cx="21.764" cy="19.688" fill="#A3A3A3" r="1.563"/>
<rect fill="none" height="30" width="30"/>
</g>
</svg>
