<?xml version="1.0" encoding="UTF-8"?>
<!DOCTYPE svg PUBLIC "-//W3C//DTD SVG 1.1 Tiny//EN" "http://www.w3.org/Graphics/SVG/1.1/DTD/svg11-tiny.dtd">
<svg baseProfile="tiny" height="60" viewBox="0 0 60 60" width="60" xmlns="http://www.w3.org/2000/svg" xmlns:xlink="http://www.w3.org/1999/xlink">
<g>
<linearGradient gradientTransform="matrix(0.2118 0.9773 -0.9773 0.2118 -634.5609 -270.4865)" gradientUnits="userSpaceOnUse" id="SVGID_1_" x1="423.0967" x2="429.6524" y1="-578.646" y2="-582.9078">
<stop offset="0" style="stop-color:#A7E722"/>
<stop offset="0.1333" style="stop-color:#A7E722"/>
<stop offset="0.6303" style="stop-color:#428C0F"/>
<stop offset="1" style="stop-color:#5CA617"/>
</linearGradient>
<path d="M19.081,33.91c2.089-3.595,4.591-6.496,7.281-9.188c2.593-2.591,6.72-5.3,8.562-6.256l9.604-10.282  c-0.845-0.3-3.693-0.464-7.279,0.616c-3.586,1.083-11.736,6.303-16.979,11.547c-5.242,5.246-9.727,12.347-10.581,14.595  c-1.343,3.541-1.221,7.445-0.929,8.58c0,0,0.34,1.035,1.144,2.377C10.248,46.475,19.081,33.91,19.081,33.91z" fill="url(#SVGID_1_)"/>
<path d="M31.184,20.8c1.488-1.036,2.87-1.882,3.74-2.334L44.271,8.46  c-0.132-0.058-0.209-0.088-0.209-0.088c-0.247-0.088-0.642-0.162-1.124-0.219c-0.793,0.006-1.596,0.093-2.401,0.27  C34.843,9.673,31.019,14.958,31.184,20.8z" fill="#020202" fill-opacity="0.05" stroke-opacity="0.05"/>
<path d="M31.906,20.306c1.205-0.809,2.291-1.462,3.018-1.84l9.377-10.04  c-0.146-0.063-0.233-0.098-0.233-0.098c-0.231-0.08-0.604-0.152-1.06-0.203c-0.751,0.006-1.51,0.087-2.27,0.253  C35.275,9.576,31.636,14.695,31.906,20.306z" fill="#020202" fill-opacity="0.1" stroke-opacity="0.1"/>
<path d="M44.079,8.263c-0.21-0.073-0.55-0.137-0.962-0.186c-0.681,0.006-1.369,0.08-2.06,0.231  c-5.087,1.116-8.426,5.984-7.978,11.233c0.725-0.455,1.363-0.826,1.844-1.076l9.424-10.088C44.178,8.302,44.079,8.263,44.079,8.263z  " fill="#020202" fill-opacity="0.1" stroke-opacity="0.1"/>
<radialGradient cx="40.9697" cy="9.21" gradientUnits="userSpaceOnUse" id="SVGID_2_" r="12.2872">
<stop offset="0" style="stop-color:#A7E722"/>
<stop offset="0.6242" style="stop-color:#428C0F"/>
<stop offset="1" style="stop-color:#5CA617"/>
</radialGradient>
<path d="M34.924,18.466l0.929,1.55c0,0,15.101-6.784,14.084-8.038c-0.513-0.631-0.577-0.656-1.237-1.263  c-1.985-1.815-4.172-2.531-4.172-2.531c-0.186-0.063-0.481-0.12-0.845-0.161c-0.596,0.004-1.2,0.068-1.806,0.201  c-4.591,1.009-7.57,5.501-6.963,10.257C34.916,18.477,34.921,18.47,34.924,18.466z" fill="url(#SVGID_2_)"/>
<path d="M17.483,34.105c-0.988-0.139-2.007-0.119-3.027,0.105c-2.418,0.531-4.376,2.066-5.646,4.131  c-0.367,2.35-0.25,4.408-0.05,5.18c0,0,0.34,1.035,1.144,2.377c0.29,0.482,6.54-8.264,8.556-11.107L17.483,34.105z" fill="#020202" fill-opacity="0.1" stroke-opacity="0.1"/>
<path d="M18.366,34.135c-0.989-0.139-2.008-0.117-3.029,0.105c-3.313,0.727-5.775,3.332-6.76,6.623  c-0.026,1.025,0.034,1.873,0.127,2.398c0.003,0.012,0.005,0.033,0.01,0.047c0,0,0.34,1.033,1.144,2.379  c0.3,0.498,6.981-8.887,8.75-11.383L18.366,34.135z" fill="#020202" fill-opacity="0.1" stroke-opacity="0.1"/>
<radialGradient cx="437.4258" cy="-571.231" gradientTransform="matrix(0.2095 0.9787 -0.9682 0.2124 -629.4526 -270.6148)" gradientUnits="userSpaceOnUse" id="SVGID_3_" r="14.6187">
<stop offset="0" style="stop-color:#A7E722"/>
<stop offset="0.6242" style="stop-color:#428C0F"/>
<stop offset="1" style="stop-color:#5CA617"/>
</radialGradient>
<path d="M11.202,47.738c0.616,0.74,0.646,0.953,1.295,1.523c1.194,1.055,9.301-13.611,9.301-13.611  l-2.683-1.719c-0.941-0.111-1.914-0.08-2.89,0.135c-4.777,1.049-7.806,5.869-6.87,10.832C9.749,45.686,10.349,46.709,11.202,47.738z  " fill="url(#SVGID_3_)"/>
<path d="M49.937,11.978c-0.179-0.22-0.381-0.446-0.578-0.67l-13.944,7.959l0.438,0.749  C35.853,20.016,50.953,13.231,49.937,11.978z" fill="#020202" fill-opacity="0.4" stroke-opacity="0.4"/>
<linearGradient gradientTransform="matrix(0.2118 0.9773 -0.9773 0.2118 -634.5599 -270.4865)" gradientUnits="userSpaceOnUse" id="SVGID_4_" x1="422.2881" x2="427.4786" y1="-610.9287" y2="-594.4409">
<stop offset="0" style="stop-color:#C6FF45"/>
<stop offset="0.6788" style="stop-color:#387300"/>
<stop offset="1" style="stop-color:#66A00E"/>
</linearGradient>
<path d="M35.853,20.016l1.178,1.981c0.302,0.515,0.972,0.674,1.569,0.422l4.09-2.334l8.043-4.668  c0.632-0.363,0.878-1.119,0.549-1.686c0,0-0.333-0.501-1.349-1.751L35.853,20.016z" fill="url(#SVGID_4_)"/>
<path d="M21.798,35.65l-0.725-0.473l-9.215,13.486c0.216,0.205,0.43,0.414,0.639,0.598  C13.691,50.316,21.798,35.65,21.798,35.65z" fill="#020202" fill-opacity="0.4" stroke-opacity="0.4"/>
<linearGradient gradientTransform="matrix(0.2118 0.9773 -0.9773 0.2118 -634.5599 -270.4865)" gradientUnits="userSpaceOnUse" id="SVGID_5_" x1="439.6982" x2="451.5232" y1="-577.7549" y2="-564.7323">
<stop offset="0" style="stop-color:#C6FF45"/>
<stop offset="0.6788" style="stop-color:#387300"/>
<stop offset="1" style="stop-color:#66A00E"/>
</linearGradient>
<path d="M12.498,49.262c1.193,1.049,1.686,1.369,1.686,1.369c0.567,0.367,1.363,0.17,1.781-0.441l7.9-11.605  c0.419-0.615,0.307-1.412-0.26-1.777l-1.808-1.156L12.498,49.262z" fill="url(#SVGID_5_)"/>
<rect fill="none" height="60" width="60"/>
</g>
<g transform="matrix(1 0 0 1 30 30)">
<linearGradient gradientUnits="userSpaceOnUse" id="SVGID_1__" x1="14.9995" x2="14.9995" y1="4.1328" y2="11.1849">
<stop offset="0" style="stop-color:#D9D9D9"/>
<stop offset="0.5382" style="stop-color:#B3B3B3"/>
<stop offset="1" style="stop-color:#B3B3B3"/>
</linearGradient>
<rect fill="url(#SVGID_1__)" height="6.735" width="15.307" x="7.347" y="4.133"/>
<linearGradient gradientUnits="userSpaceOnUse" id="SVGID_2__" x1="14.9995" x2="14.9995" y1="4.0679" y2="10.3499">
<stop offset="0" style="stop-color:#EDEDED"/>
<stop offset="1" style="stop-color:#BDBDBD"/>
</linearGradient>
<polygon fill="url(#SVGID_2__)" points="22.653,6.799 22.653,10.868 7.347,10.868 7.347,4.133 13.112,4.133 16.27,4.293   22.041,5.944 22.502,6.425 "/>
<rect fill="#020202" fill-opacity="0.2" height="0.306" stroke-opacity="0.2" width="11.326" x="11.327" y="10.256"/>
<rect fill="#020202" fill-opacity="0.1" height="0.306" stroke-opacity="0.1" width="11.326" x="11.327" y="9.95"/>
<rect fill="#020202" fill-opacity="0.5" height="0.306" stroke-opacity="0.5" width="11.02" x="9.49" y="8.419"/>
<rect fill="#020202" fill-opacity="0.2" height="0.307" stroke-opacity="0.2" width="11.02" x="9.49" y="8.112"/>
<rect fill="#020202" fill-opacity="0.5" height="0.307" stroke-opacity="0.5" width="11.02" x="9.49" y="6.582"/>
<rect fill="#020202" fill-opacity="0.2" height="0.306" stroke-opacity="0.2" width="11.02" x="9.49" y="6.276"/>
<path d="M13.035,4.134c0,0,5.556,0.841,7.622,3.673  c0,0,1.562-2.143,1.996-0.978C22.434,5.704,20.451,4.093,13.035,4.134z" fill="#050505" fill-opacity="0.05" fill-rule="evenodd" stroke-opacity="0.05"/>
<path d="M13.035,4.134c0,0,5.556,0.229,7.622,3.061  c0,0,1.562-1.837,1.996-0.365C22.434,5.704,20.451,4.093,13.035,4.134z" fill="#050505" fill-opacity="0.1" fill-rule="evenodd" stroke-opacity="0.1"/>
<linearGradient gradientUnits="userSpaceOnUse" id="SVGID_3__" x1="18.1348" x2="17.5577" y1="4.3999" y2="6.5435">
<stop offset="0" style="stop-color:#FFFFFF"/>
<stop offset="0.0061" style="stop-color:#FFFFFF"/>
<stop offset="1" style="stop-color:#D9D9D9"/>
</linearGradient>
<path d="M13.035,4.134c0,0,5.556,0.049,7.622,2.881  c0,0,1.479-1.824,1.996-0.186C22.434,5.704,20.451,4.093,13.035,4.134z" fill="url(#SVGID_3__)" fill-rule="evenodd"/>
<linearGradient gradientUnits="userSpaceOnUse" id="SVGID_4__" x1="14.9995" x2="14.9995" y1="10.3838" y2="25.6909">
<stop offset="0" style="stop-color:#D1D7D9"/>
<stop offset="0.0667" style="stop-color:#D1D7D9"/>
<stop offset="0.2606" style="stop-color:#BDC2C4"/>
<stop offset="0.6606" style="stop-color:#949DA1"/>
<stop offset="0.9636" style="stop-color:#ADB3B5"/>
<stop offset="1" style="stop-color:#595C5E"/>
</linearGradient>
<path d="M25.408,24.644c0,0.676-0.549,1.225-1.225,1.225H5.816c-0.676,0-1.225-0.549-1.225-1.225V11.786  c0-0.676,0.549-1.225,1.225-1.225h18.367c0.676,0,1.225,0.549,1.225,1.225V24.644z" fill="url(#SVGID_4__)"/>
<linearGradient gradientUnits="userSpaceOnUse" id="SVGID_5__" x1="14.9995" x2="14.9995" y1="10.3838" y2="25.6909">
<stop offset="0" style="stop-color:#E4EBED"/>
<stop offset="0.0667" style="stop-color:#E4EBED"/>
<stop offset="0.2606" style="stop-color:#D6DCDE"/>
<stop offset="0.6606" style="stop-color:#B2BEC2"/>
<stop offset="1" style="stop-color:#ADB3B5"/>
</linearGradient>
<path d="M24.184,10.562H5.816c-0.676,0-1.225,0.549-1.225,1.225v12.857c0,0.676,0.549,1.225,1.225,1.225  c-0.507,0-0.918-0.412-0.918-0.919v-0.306V12.093v-0.307c0-0.506,0.411-0.918,0.918-0.918h18.367c0.507,0,0.918,0.412,0.918,0.918  v0.307v12.551v0.306c0,0.507-0.411,0.919-0.918,0.919c0.676,0,1.225-0.549,1.225-1.225V11.786  C25.408,11.11,24.859,10.562,24.184,10.562z" fill="url(#SVGID_5__)"/>
<path d="M22.653,23.725h-1.225c-0.338,0-0.612-0.274-0.612-0.612v0.307  c0,0.338,0.274,0.612,0.612,0.612h1.225c0.338,0,0.612-0.274,0.612-0.612v-0.307C23.266,23.45,22.991,23.725,22.653,23.725z" fill="#231F20" fill-opacity="0.4" stroke-opacity="0.4"/>
<linearGradient gradientUnits="userSpaceOnUse" id="SVGID_6_" x1="22.041" x2="22.041" y1="21.2822" y2="23.7469">
<stop offset="0" style="stop-color:#646263"/>
<stop offset="0.2" style="stop-color:#4D4D4D"/>
<stop offset="0.7212" style="stop-color:#242424"/>
<stop offset="1" style="stop-color:#373737"/>
</linearGradient>
<path d="M21.429,23.725c-0.338,0-0.612-0.274-0.612-0.612v-1.224  c0-0.338,0.274-0.612,0.612-0.612h1.225c0.338,0,0.612,0.274,0.612,0.612v1.224c0,0.338-0.274,0.612-0.612,0.612H21.429z" fill="url(#SVGID_6_)" fill-opacity="0.8" stroke-opacity="0.8"/>
<linearGradient gradientUnits="userSpaceOnUse" id="SVGID_7_" x1="22.041" x2="22.041" y1="21.5596" y2="23.466">
<stop offset="0" style="stop-color:#A0A3A6"/>
<stop offset="0.1333" style="stop-color:#838688"/>
<stop offset="0.2606" style="stop-color:#7B7E80"/>
<stop offset="0.6606" style="stop-color:#474B4D"/>
<stop offset="1" style="stop-color:#707577"/>
</linearGradient>
<path d="M22.959,23.112c0,0.17-0.137,0.307-0.306,0.307h-1.225c-0.169,0-0.306-0.137-0.306-0.307v-1.224  c0-0.17,0.137-0.307,0.306-0.307h1.225c0.169,0,0.306,0.137,0.306,0.307V23.112z" fill="url(#SVGID_7_)"/>
<path d="M19.285,23.725h-1.224c-0.338,0-0.612-0.274-0.612-0.612v0.307  c0,0.338,0.274,0.612,0.612,0.612h1.224c0.338,0,0.613-0.274,0.613-0.612v-0.307C19.898,23.45,19.623,23.725,19.285,23.725z" fill="#231F20" fill-opacity="0.4" stroke-opacity="0.4"/>
<linearGradient gradientUnits="userSpaceOnUse" id="SVGID_8_" x1="18.6738" x2="18.6738" y1="21.2529" y2="23.7771">
<stop offset="0" style="stop-color:#646263"/>
<stop offset="0.2" style="stop-color:#4D4D4D"/>
<stop offset="0.7212" style="stop-color:#242424"/>
<stop offset="1" style="stop-color:#373737"/>
</linearGradient>
<path d="M18.062,23.725c-0.338,0-0.612-0.274-0.612-0.612v-1.224  c0-0.338,0.274-0.612,0.612-0.612h1.224c0.338,0,0.613,0.274,0.613,0.612v1.224c0,0.338-0.275,0.612-0.613,0.612H18.062z" fill="url(#SVGID_8_)" fill-opacity="0.8" stroke-opacity="0.8"/>
<linearGradient gradientUnits="userSpaceOnUse" id="SVGID_9_" x1="18.6738" x2="18.6738" y1="21.5596" y2="23.466">
<stop offset="0" style="stop-color:#A0A3A6"/>
<stop offset="0.1333" style="stop-color:#838688"/>
<stop offset="0.2606" style="stop-color:#7B7E80"/>
<stop offset="0.6606" style="stop-color:#474B4D"/>
<stop offset="1" style="stop-color:#707577"/>
</linearGradient>
<path d="M19.592,23.112c0,0.17-0.137,0.307-0.307,0.307h-1.224c-0.169,0-0.307-0.137-0.307-0.307v-1.224  c0-0.17,0.138-0.307,0.307-0.307h1.224c0.17,0,0.307,0.137,0.307,0.307V23.112z" fill="url(#SVGID_9_)"/>
<linearGradient gradientUnits="userSpaceOnUse" id="SVGID_10_" x1="15.3062" x2="15.3062" y1="21.2529" y2="23.7474">
<stop offset="0" style="stop-color:#646263"/>
<stop offset="0.2" style="stop-color:#4D4D4D"/>
<stop offset="0.7212" style="stop-color:#242424"/>
<stop offset="1" style="stop-color:#373737"/>
</linearGradient>
<path d="M14.693,23.725c-0.337,0-0.611-0.274-0.611-0.612v-1.224  c0-0.338,0.274-0.612,0.611-0.612h1.225c0.338,0,0.612,0.274,0.612,0.612v1.224c0,0.338-0.274,0.612-0.612,0.612H14.693z" fill="url(#SVGID_10_)" fill-opacity="0.8" stroke-opacity="0.8"/>
<path d="M15.918,23.725h-1.225c-0.337,0-0.611-0.274-0.611-0.612v0.307  c0,0.338,0.274,0.612,0.611,0.612h1.225c0.338,0,0.612-0.274,0.612-0.612v-0.307C16.53,23.45,16.256,23.725,15.918,23.725z" fill="#231F20" fill-opacity="0.4" stroke-opacity="0.4"/>
<linearGradient gradientUnits="userSpaceOnUse" id="SVGID_11_" x1="15.3062" x2="15.3062" y1="21.5596" y2="23.466">
<stop offset="0" style="stop-color:#A0A3A6"/>
<stop offset="0.1333" style="stop-color:#838688"/>
<stop offset="0.2606" style="stop-color:#7B7E80"/>
<stop offset="0.6606" style="stop-color:#474B4D"/>
<stop offset="1" style="stop-color:#707577"/>
</linearGradient>
<path d="M16.225,23.112c0,0.17-0.137,0.307-0.307,0.307h-1.225c-0.169,0-0.306-0.137-0.306-0.307v-1.224  c0-0.17,0.137-0.307,0.306-0.307h1.225c0.17,0,0.307,0.137,0.307,0.307V23.112z" fill="url(#SVGID_11_)"/>
<path d="M22.653,20.664h-1.225c-0.338,0-0.612-0.274-0.612-0.612v0.306  c0,0.338,0.274,0.612,0.612,0.612h1.225c0.338,0,0.612-0.274,0.612-0.612v-0.306C23.266,20.39,22.991,20.664,22.653,20.664z" fill="#231F20" fill-opacity="0.4" stroke-opacity="0.4"/>
<linearGradient gradientUnits="userSpaceOnUse" id="SVGID_12_" x1="22.041" x2="22.041" y1="18.2207" y2="20.6864">
<stop offset="0" style="stop-color:#646263"/>
<stop offset="0.2" style="stop-color:#4D4D4D"/>
<stop offset="0.7212" style="stop-color:#242424"/>
<stop offset="1" style="stop-color:#373737"/>
</linearGradient>
<path d="M21.429,20.664c-0.338,0-0.612-0.274-0.612-0.612v-1.225  c0-0.337,0.274-0.612,0.612-0.612h1.225c0.338,0,0.612,0.275,0.612,0.612v1.225c0,0.338-0.274,0.612-0.612,0.612H21.429z" fill="url(#SVGID_12_)" fill-opacity="0.8" stroke-opacity="0.8"/>
<linearGradient gradientUnits="userSpaceOnUse" id="SVGID_13_" x1="22.041" x2="22.041" y1="18.498" y2="20.4045">
<stop offset="0" style="stop-color:#A0A3A6"/>
<stop offset="0.1333" style="stop-color:#838688"/>
<stop offset="0.2606" style="stop-color:#7B7E80"/>
<stop offset="0.6606" style="stop-color:#474B4D"/>
<stop offset="1" style="stop-color:#707577"/>
</linearGradient>
<path d="M22.959,20.052c0,0.169-0.137,0.306-0.306,0.306h-1.225c-0.169,0-0.306-0.137-0.306-0.306v-1.225  c0-0.169,0.137-0.307,0.306-0.307h1.225c0.169,0,0.306,0.138,0.306,0.307V20.052z" fill="url(#SVGID_13_)"/>
<path d="M19.285,20.664h-1.224c-0.338,0-0.612-0.274-0.612-0.612v0.306  c0,0.338,0.274,0.612,0.612,0.612h1.224c0.338,0,0.613-0.274,0.613-0.612v-0.306C19.898,20.39,19.623,20.664,19.285,20.664z" fill="#231F20" fill-opacity="0.4" stroke-opacity="0.4"/>
<linearGradient gradientUnits="userSpaceOnUse" id="SVGID_14_" x1="18.6738" x2="18.6738" y1="18.1914" y2="20.7166">
<stop offset="0" style="stop-color:#646263"/>
<stop offset="0.2" style="stop-color:#4D4D4D"/>
<stop offset="0.7212" style="stop-color:#242424"/>
<stop offset="1" style="stop-color:#373737"/>
</linearGradient>
<path d="M18.062,20.664c-0.338,0-0.612-0.274-0.612-0.612v-1.225  c0-0.337,0.274-0.612,0.612-0.612h1.224c0.338,0,0.613,0.275,0.613,0.612v1.225c0,0.338-0.275,0.612-0.613,0.612H18.062z" fill="url(#SVGID_14_)" fill-opacity="0.8" stroke-opacity="0.8"/>
<linearGradient gradientUnits="userSpaceOnUse" id="SVGID_15_" x1="18.6738" x2="18.6738" y1="18.498" y2="20.4045">
<stop offset="0" style="stop-color:#A0A3A6"/>
<stop offset="0.1333" style="stop-color:#838688"/>
<stop offset="0.2606" style="stop-color:#7B7E80"/>
<stop offset="0.6606" style="stop-color:#474B4D"/>
<stop offset="1" style="stop-color:#707577"/>
</linearGradient>
<path d="M19.592,20.052c0,0.169-0.137,0.306-0.307,0.306h-1.224c-0.169,0-0.307-0.137-0.307-0.306v-1.225  c0-0.169,0.138-0.307,0.307-0.307h1.224c0.17,0,0.307,0.138,0.307,0.307V20.052z" fill="url(#SVGID_15_)"/>
<linearGradient gradientUnits="userSpaceOnUse" id="SVGID_16_" x1="15.3062" x2="15.3062" y1="18.1914" y2="20.6869">
<stop offset="0" style="stop-color:#646263"/>
<stop offset="0.2" style="stop-color:#4D4D4D"/>
<stop offset="0.7212" style="stop-color:#242424"/>
<stop offset="1" style="stop-color:#373737"/>
</linearGradient>
<path d="M14.693,20.664c-0.337,0-0.611-0.274-0.611-0.612v-1.225  c0-0.337,0.274-0.612,0.611-0.612h1.225c0.338,0,0.612,0.275,0.612,0.612v1.225c0,0.338-0.274,0.612-0.612,0.612H14.693z" fill="url(#SVGID_16_)" fill-opacity="0.8" stroke-opacity="0.8"/>
<path d="M15.918,20.664h-1.225c-0.337,0-0.611-0.274-0.611-0.612v0.306  c0,0.338,0.274,0.612,0.611,0.612h1.225c0.338,0,0.612-0.274,0.612-0.612v-0.306C16.53,20.39,16.256,20.664,15.918,20.664z" fill="#231F20" fill-opacity="0.4" stroke-opacity="0.4"/>
<linearGradient gradientUnits="userSpaceOnUse" id="SVGID_17_" x1="15.3062" x2="15.3062" y1="18.498" y2="20.4045">
<stop offset="0" style="stop-color:#A0A3A6"/>
<stop offset="0.1333" style="stop-color:#838688"/>
<stop offset="0.2606" style="stop-color:#7B7E80"/>
<stop offset="0.6606" style="stop-color:#474B4D"/>
<stop offset="1" style="stop-color:#707577"/>
</linearGradient>
<path d="M16.225,20.052c0,0.169-0.137,0.306-0.307,0.306h-1.225c-0.169,0-0.306-0.137-0.306-0.306v-1.225  c0-0.169,0.137-0.307,0.306-0.307h1.225c0.17,0,0.307,0.138,0.307,0.307V20.052z" fill="url(#SVGID_17_)"/>
<path d="M22.653,17.603h-1.225c-0.338,0-0.612-0.274-0.612-0.612v0.306  c0,0.338,0.274,0.612,0.612,0.612h1.225c0.338,0,0.612-0.274,0.612-0.612V16.99C23.266,17.328,22.991,17.603,22.653,17.603z" fill="#231F20" fill-opacity="0.4" stroke-opacity="0.4"/>
<linearGradient gradientUnits="userSpaceOnUse" id="SVGID_18_" x1="22.041" x2="22.041" y1="15.1592" y2="17.6254">
<stop offset="0" style="stop-color:#646263"/>
<stop offset="0.2" style="stop-color:#4D4D4D"/>
<stop offset="0.7212" style="stop-color:#242424"/>
<stop offset="1" style="stop-color:#373737"/>
</linearGradient>
<path d="M21.429,17.603c-0.338,0-0.612-0.274-0.612-0.612v-1.225  c0-0.337,0.274-0.612,0.612-0.612h1.225c0.338,0,0.612,0.275,0.612,0.612v1.225c0,0.338-0.274,0.612-0.612,0.612H21.429z" fill="url(#SVGID_18_)" fill-opacity="0.8" stroke-opacity="0.8"/>
<linearGradient gradientUnits="userSpaceOnUse" id="SVGID_19_" x1="22.041" x2="22.041" y1="15.437" y2="17.3429">
<stop offset="0" style="stop-color:#A0A3A6"/>
<stop offset="0.1333" style="stop-color:#838688"/>
<stop offset="0.2606" style="stop-color:#7B7E80"/>
<stop offset="0.6606" style="stop-color:#474B4D"/>
<stop offset="1" style="stop-color:#707577"/>
</linearGradient>
<path d="M22.959,16.99c0,0.169-0.137,0.306-0.306,0.306h-1.225c-0.169,0-0.306-0.137-0.306-0.306v-1.225  c0-0.169,0.137-0.306,0.306-0.306h1.225c0.169,0,0.306,0.137,0.306,0.306V16.99z" fill="url(#SVGID_19_)"/>
<path d="M19.285,17.603h-1.224c-0.338,0-0.612-0.274-0.612-0.612v0.306  c0,0.338,0.274,0.612,0.612,0.612h1.224c0.338,0,0.613-0.274,0.613-0.612V16.99C19.898,17.328,19.623,17.603,19.285,17.603z" fill="#231F20" fill-opacity="0.4" stroke-opacity="0.4"/>
<linearGradient gradientUnits="userSpaceOnUse" id="SVGID_20_" x1="18.6738" x2="18.6738" y1="15.1294" y2="17.6551">
<stop offset="0" style="stop-color:#646263"/>
<stop offset="0.2" style="stop-color:#4D4D4D"/>
<stop offset="0.7212" style="stop-color:#242424"/>
<stop offset="1" style="stop-color:#373737"/>
</linearGradient>
<path d="M18.062,17.603c-0.338,0-0.612-0.274-0.612-0.612v-1.225  c0-0.337,0.274-0.612,0.612-0.612h1.224c0.338,0,0.613,0.275,0.613,0.612v1.225c0,0.338-0.275,0.612-0.613,0.612H18.062z" fill="url(#SVGID_20_)" fill-opacity="0.8" stroke-opacity="0.8"/>
<linearGradient gradientUnits="userSpaceOnUse" id="SVGID_21_" x1="18.6738" x2="18.6738" y1="15.437" y2="17.3429">
<stop offset="0" style="stop-color:#A0A3A6"/>
<stop offset="0.1333" style="stop-color:#838688"/>
<stop offset="0.2606" style="stop-color:#7B7E80"/>
<stop offset="0.6606" style="stop-color:#474B4D"/>
<stop offset="1" style="stop-color:#707577"/>
</linearGradient>
<path d="M19.592,16.99c0,0.169-0.137,0.306-0.307,0.306h-1.224c-0.169,0-0.307-0.137-0.307-0.306v-1.225  c0-0.169,0.138-0.306,0.307-0.306h1.224c0.17,0,0.307,0.137,0.307,0.306V16.99z" fill="url(#SVGID_21_)"/>
<linearGradient gradientUnits="userSpaceOnUse" id="SVGID_22_" x1="15.3062" x2="15.3062" y1="15.1294" y2="17.6254">
<stop offset="0" style="stop-color:#646263"/>
<stop offset="0.2" style="stop-color:#4D4D4D"/>
<stop offset="0.7212" style="stop-color:#242424"/>
<stop offset="1" style="stop-color:#373737"/>
</linearGradient>
<path d="M14.693,17.603c-0.337,0-0.611-0.274-0.611-0.612v-1.225  c0-0.337,0.274-0.612,0.611-0.612h1.225c0.338,0,0.612,0.275,0.612,0.612v1.225c0,0.338-0.274,0.612-0.612,0.612H14.693z" fill="url(#SVGID_22_)" fill-opacity="0.8" stroke-opacity="0.8"/>
<path d="M15.918,17.603h-1.225c-0.337,0-0.611-0.274-0.611-0.612v0.306  c0,0.338,0.274,0.612,0.611,0.612h1.225c0.338,0,0.612-0.274,0.612-0.612V16.99C16.53,17.328,16.256,17.603,15.918,17.603z" fill="#231F20" fill-opacity="0.4" stroke-opacity="0.4"/>
<linearGradient gradientUnits="userSpaceOnUse" id="SVGID_23_" x1="15.3062" x2="15.3062" y1="15.437" y2="17.3429">
<stop offset="0" style="stop-color:#A0A3A6"/>
<stop offset="0.1333" style="stop-color:#838688"/>
<stop offset="0.2606" style="stop-color:#7B7E80"/>
<stop offset="0.6606" style="stop-color:#474B4D"/>
<stop offset="1" style="stop-color:#707577"/>
</linearGradient>
<path d="M16.225,16.99c0,0.169-0.137,0.306-0.307,0.306h-1.225c-0.169,0-0.306-0.137-0.306-0.306v-1.225  c0-0.169,0.137-0.306,0.306-0.306h1.225c0.17,0,0.307,0.137,0.307,0.306V16.99z" fill="url(#SVGID_23_)"/>
<linearGradient gradientUnits="userSpaceOnUse" id="SVGID_24_" x1="18.6758" x2="18.6758" y1="11.4868" y2="14.5609">
<stop offset="0" style="stop-color:#686C6E"/>
<stop offset="1" style="stop-color:#E4EEF2"/>
</linearGradient>
<path d="M13.776,14.541c-0.338,0-0.613-0.278-0.613-0.619v-1.821  c0-0.343,0.275-0.62,0.613-0.62h9.799c0.338,0,0.612,0.277,0.612,0.62v1.821c0,0.341-0.274,0.619-0.612,0.619H13.776z" fill="url(#SVGID_24_)" fill-opacity="0.4" stroke-opacity="0.4"/>
<linearGradient gradientUnits="userSpaceOnUse" id="SVGID_25_" x1="18.6738" x2="18.6738" y1="11.8003" y2="14.2777">
<stop offset="0" style="stop-color:#171717"/>
<stop offset="1" style="stop-color:#2E2E2E"/>
</linearGradient>
<path d="M23.878,13.922c0,0.171-0.137,0.31-0.307,0.31h-9.795c-0.169,0-0.307-0.139-0.307-0.31v-1.821  c0-0.172,0.138-0.311,0.307-0.311h9.795c0.17,0,0.307,0.139,0.307,0.311V13.922z" fill="url(#SVGID_25_)"/>
<linearGradient gradientUnits="userSpaceOnUse" id="SVGID_26_" x1="18.6738" x2="18.6738" y1="8.7837" y2="15.198">
<stop offset="0" style="stop-color:#45E8FF"/>
<stop offset="0.1455" style="stop-color:#45E8FF"/>
<stop offset="0.5576" style="stop-color:#30A4D5"/>
<stop offset="0.8727" style="stop-color:#1347BA"/>
<stop offset="1" style="stop-color:#1C65C3"/>
</linearGradient>
<rect fill="url(#SVGID_26_)" height="1.821" width="9.795" x="13.776" y="12.101"/>
<linearGradient gradientUnits="userSpaceOnUse" id="SVGID_27_" x1="18.6738" x2="18.6738" y1="10.0308" y2="14.4891">
<stop offset="0" style="stop-color:#45E8FF"/>
<stop offset="0.1455" style="stop-color:#45E8FF"/>
<stop offset="0.5576" style="stop-color:#4FADD5"/>
<stop offset="0.8727" style="stop-color:#1347BA"/>
<stop offset="1" style="stop-color:#1C65C3"/>
</linearGradient>
<polygon fill="url(#SVGID_27_)" points="13.776,12.908 23.571,12.386 23.571,12.093 13.776,12.093 "/>
<path d="M8.571,24.644h0.612c1.688,0,3.062-1.374,3.062-3.062V10.562c0-1.688-1.374-3.061-3.062-3.061  H8.571c-0.435,0-0.849,0.092-1.225,0.257v2.804h-1.53c-0.106,0-0.208,0.019-0.307,0.044v10.977  C5.51,23.27,6.884,24.644,8.571,24.644z" fill="#050505" fill-opacity="0.1" stroke-opacity="0.1"/>
<path d="M8.571,24.337h0.612c1.52,0,2.755-1.235,2.755-2.755V10.562c0-1.52-1.235-2.755-2.755-2.755  H8.571c-0.44,0-0.854,0.106-1.225,0.29v2.465h-1.53v11.021C5.816,23.102,7.053,24.337,8.571,24.337z" fill="#050505" fill-opacity="0.2" stroke-opacity="0.2"/>
<linearGradient gradientUnits="userSpaceOnUse" id="SVGID_28_" x1="8.8779" x2="8.8779" y1="8.1777" y2="24.3321">
<stop offset="0" style="stop-color:#727678"/>
<stop offset="0.7394" style="stop-color:#252629"/>
<stop offset="1" style="stop-color:#494C4F"/>
</linearGradient>
<path d="M11.633,21.582c0,1.353-1.096,2.449-2.449,2.449H8.571c-1.353,0-2.448-1.097-2.448-2.449V10.562  c0-1.353,1.096-2.449,2.448-2.449h0.612c1.354,0,2.449,1.097,2.449,2.449V21.582z" fill="url(#SVGID_28_)"/>
<linearGradient gradientUnits="userSpaceOnUse" id="SVGID_29_" x1="8.8779" x2="8.8779" y1="8.1299" y2="12.4793">
<stop offset="0" style="stop-color:#B5BCBF"/>
<stop offset="1" style="stop-color:#494C4F"/>
</linearGradient>
<path d="M9.184,8.112H8.571c-1.353,0-2.448,1.097-2.448,2.449v1.837c0-1.353,1.096-2.449,2.448-2.449h0.612  c1.354,0,2.449,1.097,2.449,2.449v-1.837C11.633,9.209,10.537,8.112,9.184,8.112z" fill="url(#SVGID_29_)"/>
<linearGradient gradientUnits="userSpaceOnUse" id="SVGID_30_" x1="8.8779" x2="8.8779" y1="8.1196" y2="11.2345">
<stop offset="0" style="stop-color:#D5DDE0"/>
<stop offset="1" style="stop-color:#494C4F"/>
</linearGradient>
<path d="M9.184,8.112H8.571c-1.353,0-2.448,1.097-2.448,2.449v0.307c0-1.353,1.096-2.449,2.448-2.449h0.612  c1.354,0,2.449,1.097,2.449,2.449v-0.307C11.633,9.209,10.537,8.112,9.184,8.112z" fill="url(#SVGID_30_)"/>
<linearGradient gradientUnits="userSpaceOnUse" id="SVGID_31_" x1="8.8774" x2="8.8774" y1="7.873" y2="24.1339">
<stop offset="0" style="stop-color:#A0A7A8"/>
<stop offset="0.7576" style="stop-color:#252629"/>
<stop offset="1" style="stop-color:#1F2021"/>
</linearGradient>
<path d="M9.184,9.949H8.571c-0.325,0-0.635,0.064-0.918,0.181v12.064h2.448V10.13  C9.818,10.014,9.509,9.949,9.184,9.949z" fill="url(#SVGID_31_)"/>
<linearGradient gradientUnits="userSpaceOnUse" id="SVGID_32_" x1="8.8779" x2="8.8779" y1="19.7627" y2="24.1121">
<stop offset="0" style="stop-color:#252629"/>
<stop offset="1" style="stop-color:#5A5D61"/>
</linearGradient>
<path d="M9.184,22.194H8.571c-1.353,0-2.448-1.097-2.448-2.449v1.837c0,1.353,1.096,2.449,2.448,2.449h0.612  c1.354,0,2.449-1.097,2.449-2.449v-1.837C11.633,21.098,10.537,22.194,9.184,22.194z" fill="url(#SVGID_32_)"/>
<rect fill="none" height="30" width="30"/>
</g>
</svg>
