<?xml version="1.0" encoding="UTF-8"?>
<!DOCTYPE svg PUBLIC "-//W3C//DTD SVG 1.1 Tiny//EN" "http://www.w3.org/Graphics/SVG/1.1/DTD/svg11-tiny.dtd">
<svg baseProfile="tiny" height="30" viewBox="0 0 30 30" width="30" xmlns="http://www.w3.org/2000/svg" xmlns:xlink="http://www.w3.org/1999/xlink">
<g>
<path d="M7.963,30C6.328,30,5,28.671,5,27.038V2.962C5,1.328,6.328,0,7.963,0h14.074C23.672,0,25,1.328,25,2.962  v24.076C25,28.671,23.672,30,22.037,30H7.963z" fill-opacity="0.6" stroke-opacity="0.6"/>
<linearGradient gradientUnits="userSpaceOnUse" id="SVGID_1_" x1="14.9995" x2="14.9995" y1="-5.6016" y2="28.9376">
<stop offset="0" style="stop-color:#FFFFFF"/>
<stop offset="1" style="stop-color:#9B9D9E"/>
</linearGradient>
<path d="M24,27.038C24,28.121,23.121,29,22.037,29H7.963C6.879,29,6,28.121,6,27.038V2.962  C6,1.878,6.879,1,7.963,1h14.074C23.121,1,24,1.878,24,2.962V27.038z" fill="url(#SVGID_1_)"/>
<linearGradient gradientUnits="userSpaceOnUse" id="SVGID_2_" x1="14.9995" x2="14.9995" y1="21.7803" y2="28.0757">
<stop offset="0" style="stop-color:#A6A8AB"/>
<stop offset="0.703" style="stop-color:#58595B"/>
<stop offset="1" style="stop-color:#808184"/>
</linearGradient>
<rect fill="url(#SVGID_2_)" height="4" width="4" x="13" y="24"/>
<linearGradient gradientUnits="userSpaceOnUse" id="SVGID_3_" x1="14.9995" x2="14.9995" y1="23.8896" y2="27.0373">
<stop offset="0" style="stop-color:#F0F0F0"/>
<stop offset="1" style="stop-color:#9B9D9E"/>
</linearGradient>
<rect fill="url(#SVGID_3_)" height="2" width="2" x="14" y="25"/>
<path d="M22.037,1H7.963C6.879,1,6,1.878,6,2.962v1C6,2.878,6.879,2,7.963,2h14.074  C23.121,2,24,2.878,24,3.962v-1C24,1.878,23.121,1,22.037,1z" fill="#FFFFFF" fill-opacity="0.2" stroke-opacity="0.2"/>
<linearGradient gradientUnits="userSpaceOnUse" id="SVGID_4_" x1="15.0005" x2="15.0005" y1="22.9375" y2="3.1175">
<stop offset="0" style="stop-color:#DADADB"/>
<stop offset="1" style="stop-color:#9B9D9E"/>
</linearGradient>
<rect fill="url(#SVGID_4_)" height="20.032" width="16" x="7" y="3"/>
<linearGradient gradientUnits="userSpaceOnUse" id="SVGID_5_" x1="14.9995" x2="14.9995" y1="4" y2="22.0022">
<stop offset="0" style="stop-color:#3BC8EB"/>
<stop offset="1" style="stop-color:#1347BA"/>
</linearGradient>
<rect fill="url(#SVGID_5_)" height="18.032" width="14" x="8" y="4"/>
<linearGradient gradientUnits="userSpaceOnUse" id="SVGID_6_" x1="9" x2="9" y1="25" y2="26.9844">
<stop offset="0" style="stop-color:#1CAB00"/>
<stop offset="1" style="stop-color:#1F6300"/>
</linearGradient>
<rect fill="url(#SVGID_6_)" height="2" width="4" x="7" y="25"/>
<linearGradient gradientUnits="userSpaceOnUse" id="SVGID_7_" x1="21" x2="21" y1="25" y2="27">
<stop offset="0" style="stop-color:#E63B00"/>
<stop offset="1" style="stop-color:#8C0000"/>
</linearGradient>
<rect fill="url(#SVGID_7_)" height="2" width="4" x="19" y="25"/>
<polygon fill="#FFFFFF" fill-opacity="0.2" points="22,10.13 22,4 8,4 8,11.269 " stroke-opacity="0.2"/>
<rect fill="none" height="30" width="30"/>
</g>
</svg>
