<?xml version="1.0" encoding="UTF-8"?>
<!DOCTYPE svg PUBLIC "-//W3C//DTD SVG 1.1 Tiny//EN" "http://www.w3.org/Graphics/SVG/1.1/DTD/svg11-tiny.dtd">
<svg baseProfile="tiny" height="60" viewBox="0 0 60 60" width="60" xmlns="http://www.w3.org/2000/svg" xmlns:xlink="http://www.w3.org/1999/xlink">
<g>
<linearGradient gradientTransform="matrix(0.2118 0.9773 -0.9773 0.2118 -634.5609 -270.4865)" gradientUnits="userSpaceOnUse" id="SVGID_1_" x1="423.0967" x2="429.6524" y1="-578.646" y2="-582.9078">
<stop offset="0" style="stop-color:#A7E722"/>
<stop offset="0.1333" style="stop-color:#A7E722"/>
<stop offset="0.6303" style="stop-color:#428C0F"/>
<stop offset="1" style="stop-color:#5CA617"/>
</linearGradient>
<path d="M19.081,33.91c2.089-3.595,4.591-6.496,7.281-9.188c2.593-2.591,6.72-5.3,8.562-6.256l9.604-10.282  c-0.845-0.3-3.693-0.464-7.279,0.616c-3.586,1.083-11.736,6.303-16.979,11.547c-5.242,5.246-9.727,12.347-10.581,14.595  c-1.343,3.541-1.221,7.445-0.929,8.58c0,0,0.34,1.035,1.144,2.377C10.248,46.475,19.081,33.91,19.081,33.91z" fill="url(#SVGID_1_)"/>
<path d="M31.184,20.8c1.488-1.036,2.87-1.882,3.74-2.334L44.271,8.46  c-0.132-0.058-0.209-0.088-0.209-0.088c-0.247-0.088-0.642-0.162-1.124-0.219c-0.793,0.006-1.596,0.093-2.401,0.27  C34.843,9.673,31.019,14.958,31.184,20.8z" fill="#020202" fill-opacity="0.05" stroke-opacity="0.05"/>
<path d="M31.906,20.306c1.205-0.809,2.291-1.462,3.018-1.84l9.377-10.04  c-0.146-0.063-0.233-0.098-0.233-0.098c-0.231-0.08-0.604-0.152-1.06-0.203c-0.751,0.006-1.51,0.087-2.27,0.253  C35.275,9.576,31.636,14.695,31.906,20.306z" fill="#020202" fill-opacity="0.1" stroke-opacity="0.1"/>
<path d="M44.079,8.263c-0.21-0.073-0.55-0.137-0.962-0.186c-0.681,0.006-1.369,0.08-2.06,0.231  c-5.087,1.116-8.426,5.984-7.978,11.233c0.725-0.455,1.363-0.826,1.844-1.076l9.424-10.088C44.178,8.302,44.079,8.263,44.079,8.263z  " fill="#020202" fill-opacity="0.1" stroke-opacity="0.1"/>
<radialGradient cx="40.9697" cy="9.21" gradientUnits="userSpaceOnUse" id="SVGID_2_" r="12.2872">
<stop offset="0" style="stop-color:#A7E722"/>
<stop offset="0.6242" style="stop-color:#428C0F"/>
<stop offset="1" style="stop-color:#5CA617"/>
</radialGradient>
<path d="M34.924,18.466l0.929,1.55c0,0,15.101-6.784,14.084-8.038c-0.513-0.631-0.577-0.656-1.237-1.263  c-1.985-1.815-4.172-2.531-4.172-2.531c-0.186-0.063-0.481-0.12-0.845-0.161c-0.596,0.004-1.2,0.068-1.806,0.201  c-4.591,1.009-7.57,5.501-6.963,10.257C34.916,18.477,34.921,18.47,34.924,18.466z" fill="url(#SVGID_2_)"/>
<path d="M17.483,34.105c-0.988-0.139-2.007-0.119-3.027,0.105c-2.418,0.531-4.376,2.066-5.646,4.131  c-0.367,2.35-0.25,4.408-0.05,5.18c0,0,0.34,1.035,1.144,2.377c0.29,0.482,6.54-8.264,8.556-11.107L17.483,34.105z" fill="#020202" fill-opacity="0.1" stroke-opacity="0.1"/>
<path d="M18.366,34.135c-0.989-0.139-2.008-0.117-3.029,0.105c-3.313,0.727-5.775,3.332-6.76,6.623  c-0.026,1.025,0.034,1.873,0.127,2.398c0.003,0.012,0.005,0.033,0.01,0.047c0,0,0.34,1.033,1.144,2.379  c0.3,0.498,6.981-8.887,8.75-11.383L18.366,34.135z" fill="#020202" fill-opacity="0.1" stroke-opacity="0.1"/>
<radialGradient cx="437.4258" cy="-571.231" gradientTransform="matrix(0.2095 0.9787 -0.9682 0.2124 -629.4526 -270.6148)" gradientUnits="userSpaceOnUse" id="SVGID_3_" r="14.6187">
<stop offset="0" style="stop-color:#A7E722"/>
<stop offset="0.6242" style="stop-color:#428C0F"/>
<stop offset="1" style="stop-color:#5CA617"/>
</radialGradient>
<path d="M11.202,47.738c0.616,0.74,0.646,0.953,1.295,1.523c1.194,1.055,9.301-13.611,9.301-13.611  l-2.683-1.719c-0.941-0.111-1.914-0.08-2.89,0.135c-4.777,1.049-7.806,5.869-6.87,10.832C9.749,45.686,10.349,46.709,11.202,47.738z  " fill="url(#SVGID_3_)"/>
<path d="M49.937,11.978c-0.179-0.22-0.381-0.446-0.578-0.67l-13.944,7.959l0.438,0.749  C35.853,20.016,50.953,13.231,49.937,11.978z" fill="#020202" fill-opacity="0.4" stroke-opacity="0.4"/>
<linearGradient gradientTransform="matrix(0.2118 0.9773 -0.9773 0.2118 -634.5599 -270.4865)" gradientUnits="userSpaceOnUse" id="SVGID_4_" x1="422.2881" x2="427.4786" y1="-610.9287" y2="-594.4409">
<stop offset="0" style="stop-color:#C6FF45"/>
<stop offset="0.6788" style="stop-color:#387300"/>
<stop offset="1" style="stop-color:#66A00E"/>
</linearGradient>
<path d="M35.853,20.016l1.178,1.981c0.302,0.515,0.972,0.674,1.569,0.422l4.09-2.334l8.043-4.668  c0.632-0.363,0.878-1.119,0.549-1.686c0,0-0.333-0.501-1.349-1.751L35.853,20.016z" fill="url(#SVGID_4_)"/>
<path d="M21.798,35.65l-0.725-0.473l-9.215,13.486c0.216,0.205,0.43,0.414,0.639,0.598  C13.691,50.316,21.798,35.65,21.798,35.65z" fill="#020202" fill-opacity="0.4" stroke-opacity="0.4"/>
<linearGradient gradientTransform="matrix(0.2118 0.9773 -0.9773 0.2118 -634.5599 -270.4865)" gradientUnits="userSpaceOnUse" id="SVGID_5_" x1="439.6982" x2="451.5232" y1="-577.7549" y2="-564.7323">
<stop offset="0" style="stop-color:#C6FF45"/>
<stop offset="0.6788" style="stop-color:#387300"/>
<stop offset="1" style="stop-color:#66A00E"/>
</linearGradient>
<path d="M12.498,49.262c1.193,1.049,1.686,1.369,1.686,1.369c0.567,0.367,1.363,0.17,1.781-0.441l7.9-11.605  c0.419-0.615,0.307-1.412-0.26-1.777l-1.808-1.156L12.498,49.262z" fill="url(#SVGID_5_)"/>
<rect fill="none" height="60" width="60"/>
</g>
<g transform="matrix(1 0 0 1 30 30)">
<rect fill="none" height="30" width="30"/>
<radialGradient cx="-4303.5044" cy="-2098.0122" gradientTransform="matrix(0.4285 0 0 0.4271 1859.2847 905.3612)" gradientUnits="userSpaceOnUse" id="SVGID_1__" r="38.9121">
<stop offset="0" style="stop-color:#FFE2D9"/>
<stop offset="0.5091" style="stop-color:#FFC6B3"/>
<stop offset="0.7636" style="stop-color:#FFA98E"/>
<stop offset="1" style="stop-color:#E88160"/>
</radialGradient>
<path d="M23.104,15.572c-0.04-0.019-0.086-0.023-0.129-0.036v-0.001c-0.009-0.002-0.016-0.003-0.025-0.004  c-0.064-0.018-0.127-0.032-0.195-0.035c-8.16-1.42-11.903-5.941-12.186-4.744c-0.225,0.951-2.512,3.014-3.711,4.04  c0.011,0.047,0.016,0.087,0.027,0.133c0,0,0.041,0.211,0.132,0.569c-0.095,0.011-0.188,0.031-0.278,0.068  c-0.763,0.322-1.002,1.571-0.533,2.793c0.465,1.22,1.462,1.951,2.225,1.63c0.048-0.021,0.088-0.054,0.13-0.081  c0.442,0.996,0.988,2.063,1.653,3.134c1.116,1.326,2.826,2.882,4.714,2.882c2.284,0,3.681-1.248,4.642-2.509  c0.027-0.054,0.05-0.103,0.078-0.146c0.712-1.113,1.289-2.229,1.756-3.268c0.746,0.258,1.703-0.436,2.178-1.609  C24.074,17.175,23.859,15.913,23.104,15.572z" fill="url(#SVGID_1__)"/>
<linearGradient gradientUnits="userSpaceOnUse" id="SVGID_2__" x1="11.7231" x2="18.7717" y1="27.0146" y2="20.0212">
<stop offset="0" style="stop-color:#FFC6B3"/>
<stop offset="1" style="stop-color:#FFA98E"/>
</linearGradient>
<path d="M14.592,25.281c-1.391,0-2.792-0.647-3.823-1.623c1.091,1.147,2.56,2.262,4.158,2.262  c2.284,0,3.681-1.248,4.642-2.509c0.027-0.054,0.05-0.103,0.078-0.146c0.712-1.113,1.289-2.229,1.756-3.268  C18.805,24.539,16.875,25.281,14.592,25.281z" fill="url(#SVGID_2__)"/>
<linearGradient gradientUnits="userSpaceOnUse" id="SVGID_3__" x1="14.8608" x2="14.8608" y1="4.3486" y2="14.7293">
<stop offset="0" style="stop-color:#8A5D3B"/>
<stop offset="0.3758" style="stop-color:#632F00"/>
<stop offset="1" style="stop-color:#361700"/>
</linearGradient>
<path d="M14.698,4.196c-2.829,0-4.19,1.287-5.241,2.63c-1.707,0.265-4.416,1.829-2.504,8.69  c1.197-1.027,3.391-3.813,3.615-4.765c0.285-1.208,4.092,3.408,12.406,4.783c0.098-0.384,0.141-0.61,0.141-0.61  C24.422,9.067,21.582,4.425,14.698,4.196z" fill="url(#SVGID_3__)"/>
<linearGradient gradientUnits="userSpaceOnUse" id="SVGID_4__" x1="18.4121" x2="9.0067" y1="14.2798" y2="8.6961">
<stop offset="0" style="stop-color:#8A5D3B"/>
<stop offset="0.3636" style="stop-color:#632F00"/>
<stop offset="1" style="stop-color:#361700"/>
</linearGradient>
<path d="M10.578,10.19c0,0,4.069,5.346,12.339,5.337C22.917,15.527,19.021,14.916,10.578,10.19z" fill="url(#SVGID_4__)"/>
<linearGradient gradientUnits="userSpaceOnUse" id="SVGID_5__" x1="8.1572" x2="8.2398" y1="7.6094" y2="13.5831">
<stop offset="0" style="stop-color:#8A5D3B"/>
<stop offset="0.3758" style="stop-color:#632F00"/>
<stop offset="1" style="stop-color:#361700"/>
</linearGradient>
<path d="M9.599,7.224c0,0-3.983,0.239-2.505,6.992C7.094,14.216,6.605,9.591,9.599,7.224z" fill="url(#SVGID_5__)"/>
<linearGradient gradientUnits="userSpaceOnUse" id="SVGID_6_" x1="16.1787" x2="15.886" y1="5.2383" y2="7.9443">
<stop offset="0" style="stop-color:#A87C4F"/>
<stop offset="1" style="stop-color:#632F00"/>
</linearGradient>
<path d="M16.629,8.159c-1.855-0.264-4.992-1.907-6.223-1.321c0,0,4.025-4.594,11.131,0.638  C21.537,7.476,19.844,8.617,16.629,8.159z" fill="url(#SVGID_6_)"/>
<path d="M14.927,25.92c0.786,0,1.464-0.149,2.06-0.396c0.17-0.223,0.273-0.476,0.273-0.751  c0-0.887-0.993-1.581-2.259-1.581c-0.761,0-1.452,0.26-1.862,0.68c-2.018-0.503-3.295-1.771-4.055-2.867  c0.149,0.301,0.309,0.605,0.478,0.912c0.005,0.008,0.009,0.016,0.013,0.023c0.17,0.309,0.35,0.619,0.541,0.932h-0.001  c0.015,0.024,0.028,0.048,0.044,0.072c0.006,0.012,0.014,0.022,0.021,0.034c0.012,0.021,0.022,0.039,0.034,0.06  C11.329,24.364,13.039,25.92,14.927,25.92z" fill="#020202" fill-opacity="0.3" stroke-opacity="0.3"/>
<path d="M6.449,18.866c0.039,0.062,0.076,0.12,0.113,0.179c0.09,0.136,0.188,0.263,0.288,0.375l0,0  c0.485,0.53,1.081,0.775,1.579,0.565c0.048-0.021,0.088-0.054,0.13-0.081c0.024,0.055,0.054,0.112,0.077,0.168  c0.166-0.489,0.242-1.124,0.225-1.955c-0.004-0.171-0.01-0.346-0.023-0.524c-0.072-1.102-0.262-1.946-0.561-2.512l-0.031-0.453  l0.006-0.154c0.066-5.089,2.76-8.507,6.703-8.507c3.969,0,6.664,3.45,6.705,8.588l0.005,0.042l-0.046,0.7  c-0.239,0.556-0.392,1.327-0.457,2.296c-0.014,0.179-0.019,0.354-0.025,0.556c-0.016,0.799,0.063,1.438,0.229,1.932  c0.012-0.027,0.026-0.055,0.037-0.082c0.586,0.202,1.299-0.186,1.809-0.928l0,0c0.068-0.099,0.133-0.206,0.196-0.315  c0.061-0.117,0.12-0.236,0.173-0.366c0.494-1.214,0.279-2.476-0.477-2.816c-0.04-0.019-0.086-0.023-0.129-0.036v-0.001  c0.098-0.384,0.141-0.61,0.141-0.61c0.05-0.222,0.092-0.441,0.129-0.66c0.01-0.061,0.02-0.123,0.03-0.185  c0.026-0.167,0.049-0.334,0.069-0.5c0.006-0.054,0.012-0.108,0.018-0.162c0.046-0.437,0.066-0.865,0.061-1.283  c0-0.037-0.002-0.075-0.004-0.112c-0.002-0.189-0.011-0.375-0.027-0.559c0-0.021-0.002-0.043-0.004-0.064  c-0.037-0.421-0.101-0.829-0.189-1.226c-0.005-0.019-0.01-0.039-0.016-0.058c-0.044-0.19-0.094-0.378-0.152-0.563  c-0.001-0.003-0.003-0.008-0.003-0.01c-0.36-0.923-0.819-1.758-1.364-2.491C21.66,7.052,21.66,7.052,21.66,7.052  c-0.359-0.42-0.771-0.799-1.235-1.136c-0.005-0.004-0.011-0.008-0.016-0.013c-0.224-0.158-0.458-0.307-0.704-0.446  c-0.022-0.012-0.043-0.023-0.064-0.035c-0.238-0.132-0.49-0.255-0.753-0.367c-0.032-0.013-0.064-0.027-0.098-0.042  c-0.26-0.106-0.53-0.205-0.811-0.293c-0.04-0.013-0.081-0.024-0.121-0.036c-0.282-0.084-0.576-0.16-0.883-0.223  c-0.04-0.008-0.08-0.017-0.121-0.023c-0.313-0.063-0.638-0.114-0.972-0.153c-0.03-0.004-0.061-0.006-0.092-0.01  c-0.353-0.038-0.715-0.066-1.093-0.078c-2.829,0-4.19,1.287-5.241,2.63C9.343,6.844,9.225,6.867,9.103,6.898  c-0.005,0-0.01,0.003-0.015,0.003C8.969,6.934,8.85,6.97,8.727,7.015C8.723,7.017,8.718,7.017,8.713,7.02  c-0.123,0.047-0.246,0.1-0.371,0.163C8.339,7.185,8.336,7.185,8.334,7.186c-0.127,0.065-0.252,0.14-0.375,0.224v0.002  C7.197,8.543,6.632,9.896,6.3,11.423c0,0.271,0.011,0.561,0.038,0.863c0,0.005,0,0.009,0,0.012c0.014,0.146,0.027,0.3,0.047,0.455  c0.002,0.015,0.005,0.029,0.006,0.044c0.019,0.146,0.039,0.294,0.063,0.447c0.004,0.029,0.01,0.062,0.014,0.092  c0.023,0.14,0.047,0.282,0.076,0.429c0.008,0.05,0.02,0.102,0.029,0.152c0.025,0.132,0.051,0.261,0.08,0.396  c0.018,0.079,0.04,0.162,0.057,0.242c0.027,0.112,0.053,0.224,0.082,0.339c0.049,0.199,0.102,0.402,0.161,0.611  c-0.074,0.011-0.146,0.027-0.214,0.057c-0.763,0.322-1.002,1.571-0.533,2.793c0.049,0.131,0.107,0.253,0.17,0.372  C6.398,18.775,6.424,18.821,6.449,18.866z M7.01,15.466c0.002,0.01,0.005,0.019,0.007,0.028C7,15.496,6.984,15.5,6.969,15.502  C6.98,15.49,6.996,15.478,7.01,15.466z" fill="#020202" fill-opacity="0.3" stroke-opacity="0.3"/>
<linearGradient gradientUnits="userSpaceOnUse" id="SVGID_7_" x1="6.8638" x2="15.4521" y1="22.2881" y2="22.2881">
<stop offset="0" style="stop-color:#454647"/>
<stop offset="0.4727" style="stop-color:#BDBEC3"/>
<stop offset="1" style="stop-color:#E4E6EB"/>
</linearGradient>
<path d="M15.001,25.451c-6.132,0-8.096-5.675-8.112-5.731c-0.082-0.236,0.047-0.493,0.285-0.571  c0.236-0.079,0.492,0.048,0.571,0.284c0.069,0.209,1.786,5.115,7.256,5.115c0.249,0,0.451,0.203,0.451,0.452  C15.452,25.25,15.25,25.451,15.001,25.451L15.001,25.451z" fill="url(#SVGID_7_)"/>
<linearGradient gradientUnits="userSpaceOnUse" id="SVGID_8_" x1="6.8711" x2="15.4521" y1="22.5137" y2="22.5137">
<stop offset="0" style="stop-color:#A6A8AB"/>
<stop offset="0.7394" style="stop-color:#58595B"/>
<stop offset="1" style="stop-color:#808184"/>
</linearGradient>
<path d="M15.001,25c-5.878,0-7.685-5.425-7.685-5.425H6.871c0,0.05,0,0.097,0.018,0.145  c0.017,0.057,1.98,5.731,8.112,5.731c0.249,0,0.451-0.201,0.451-0.451H15.001z" fill="url(#SVGID_8_)"/>
<linearGradient gradientUnits="userSpaceOnUse" id="SVGID_9_" x1="14.9565" x2="14.9565" y1="15.4707" y2="5.6055">
<stop offset="0" style="stop-color:#39393B"/>
<stop offset="0.0424" style="stop-color:#808184"/>
<stop offset="0.3333" style="stop-color:#58595B"/>
<stop offset="1" style="stop-color:#A6A8AB"/>
</linearGradient>
<path d="M23.137,14.604L23.137,14.604L23.137,14.604c-0.008-6.652-3.43-9.944-8.136-9.944  s-8.13,3.292-8.136,9.944l0,0l0,0c0,0.004,0-0.005,0,0l0,0l-0.15,4.665l1.379-0.09l-0.301-4.551  c0.018-5.827,3.222-9.113,7.162-9.113c3.939,0,7.143,3.285,7.161,9.11l-0.298,4.554l1.379,0.09L23.137,14.604L23.137,14.604  C23.137,14.599,23.137,14.607,23.137,14.604z" fill="url(#SVGID_9_)"/>
<linearGradient gradientUnits="userSpaceOnUse" id="SVGID_10_" x1="14.9556" x2="14.9556" y1="11.7949" y2="4.3813">
<stop offset="0" style="stop-color:#9C9DA1"/>
<stop offset="0.0545" style="stop-color:#9C9DA1"/>
<stop offset="0.3333" style="stop-color:#88898C"/>
<stop offset="1" style="stop-color:#E3E6EB"/>
</linearGradient>
<path d="M23.498,14.651h-0.002c-0.007-6.652-3.835-10.573-8.541-10.573c-4.703,0-8.535,3.921-8.543,10.573  v0.007c0,0.004,0,0.009,0,0.013h0.002l0.451,0.386c0.148-6.425,3.475-10.397,8.09-10.397c4.619,0,8.037,3.966,8.182,10.397  l0.359-0.386h0.002c0-0.004-0.002-0.009-0.002-0.013L23.498,14.651z" fill="url(#SVGID_10_)"/>
<path d="M6.914,14.152c-0.031,0-0.066,0-0.101,0.003c-0.13,0.009-0.259,0.037-0.385,0.078  c-0.005,0.141-0.017,0.273-0.017,0.418v0.007c0,0.004,0,0.009,0,0.013h0.002l0.067,1.04l0.104-0.007l0.068-0.029  c0.072-0.028,0.146-0.048,0.26-0.053c0.541,0,0.914,0.945,1.022,2.597c0.011,0.148,0.016,0.296,0.019,0.439h0.104l-0.266-4.03  c0-0.055,0.007-0.105,0.008-0.16C7.549,14.259,7.255,14.152,6.914,14.152z" fill="#020202" fill-opacity="0.2" stroke-opacity="0.2"/>
<path d="M7.745,19.433c-0.079-0.236-0.335-0.363-0.571-0.284c-0.238,0.078-0.367,0.335-0.285,0.571  c0.006,0.019,0.225,0.648,0.733,1.485c0.29-0.087,0.532-0.257,0.722-0.518C7.947,20.01,7.766,19.497,7.745,19.433z" fill="#020202" fill-opacity="0.2" stroke-opacity="0.2"/>
<linearGradient gradientTransform="matrix(-1.1528 0.0088 -0.0088 1.0194 -298.4327 16.782)" gradientUnits="userSpaceOnUse" id="SVGID_11_" x1="-264.8071" x2="-264.8071" y1="-0.9863" y2="6.1154">
<stop offset="0" style="stop-color:#A6A8AB"/>
<stop offset="0.8303" style="stop-color:#58595B"/>
<stop offset="1" style="stop-color:#808184"/>
</linearGradient>
<path d="M5.211,17.832c0.114,1.716,1.029,3.052,2.044,2.984s1.245-1.478,1.133-3.193  c-0.112-1.715-0.527-3.085-1.542-3.017C5.83,14.674,5.098,16.117,5.211,17.832z" fill="url(#SVGID_11_)"/>
<linearGradient gradientTransform="matrix(-1 0 0 1 -270.8379 0)" gradientUnits="userSpaceOnUse" id="SVGID_12_" x1="-277.2915" x2="-277.2915" y1="14.4619" y2="20.8704">
<stop offset="0" style="stop-color:#7A7A7A"/>
<stop offset="0.7818" style="stop-color:#212121"/>
<stop offset="1" style="stop-color:#666666"/>
</linearGradient>
<path d="M5.068,17.847c0.111,1.683,0.914,3.001,1.795,2.942c0.882-0.059,1.07-1.441,0.959-3.124  c-0.111-1.685-0.48-3.03-1.361-2.972C5.582,14.752,4.958,16.162,5.068,17.847z" fill="url(#SVGID_12_)"/>
<linearGradient gradientTransform="matrix(-1 0 0 1 -270.8379 0)" gradientUnits="userSpaceOnUse" id="SVGID_13_" x1="-276.9038" x2="-276.9038" y1="14.2993" y2="20.566">
<stop offset="0" style="stop-color:#BDC3C4"/>
<stop offset="0.3515" style="stop-color:#DDE3E6"/>
<stop offset="0.6545" style="stop-color:#949DA1"/>
<stop offset="0.9636" style="stop-color:#ADB3B5"/>
<stop offset="1" style="stop-color:#595C5E"/>
</linearGradient>
<path d="M6.168,14.951c0.486,0.53,0.693,1.586,0.739,2.788c0.042,1.098-0.036,2.056-0.414,2.648  c-0.646-0.279-1.183-1.337-1.267-2.637C5.138,16.429,5.544,15.291,6.168,14.951z" fill="url(#SVGID_13_)"/>
<path d="M6.461,15.258c0.006,0,0.012,0.002,0.018,0.002c0.117-0.049,0.24-0.079,0.367-0.088  c1.015-0.066,1.43,1.302,1.542,3.017c0.011,0.155,0.016,0.307,0.021,0.457c0.01-0.323,0.002-0.665-0.021-1.022  c-0.112-1.715-0.527-3.085-1.542-3.017c-0.127,0.007-0.25,0.039-0.367,0.088c-0.006,0-0.012-0.001-0.018-0.001  c-0.862,0.056-1.473,1.41-1.396,3.044C5.135,16.367,5.703,15.309,6.461,15.258z" fill="#FFFFFF" fill-opacity="0.3" stroke-opacity="0.3"/>
<path d="M23.086,14.152c-0.38,0-0.703,0.134-0.975,0.395c0.002,0.026,0.005,0.052,0.005,0.078  l-0.264,4.033h0.192c0.004-0.144,0.01-0.291,0.019-0.439c0.109-1.649,0.481-2.596,1.062-2.596h0.002  c0.072,0.004,0.147,0.023,0.221,0.052l0.066,0.029l0.016,0.001l0.066-1.034h0.002c0-0.004-0.002-0.009-0.002-0.013l0.002-0.007  h-0.002c0-0.153-0.012-0.294-0.016-0.444c-0.096-0.026-0.194-0.047-0.295-0.052C23.152,14.152,23.118,14.152,23.086,14.152z" fill="#020202" fill-opacity="0.2" stroke-opacity="0.2"/>
<linearGradient gradientTransform="matrix(1.1528 0.0088 0.0088 1.0194 459.8604 16.782)" gradientUnits="userSpaceOnUse" id="SVGID_14_" x1="-378.8218" x2="-378.8218" y1="-0.002" y2="7.0997">
<stop offset="0" style="stop-color:#A6A8AB"/>
<stop offset="0.8303" style="stop-color:#58595B"/>
<stop offset="1" style="stop-color:#808184"/>
</linearGradient>
<path d="M24.789,17.832c-0.113,1.716-1.027,3.052-2.043,2.984s-1.245-1.478-1.133-3.193  c0.113-1.715,0.527-3.085,1.543-3.017C24.172,14.674,24.902,16.117,24.789,17.832z" fill="url(#SVGID_14_)"/>
<linearGradient gradientTransform="matrix(1 0 0 1 432.2656 0)" gradientUnits="userSpaceOnUse" id="SVGID_15_" x1="-408.7183" x2="-408.7183" y1="14.4619" y2="20.8704">
<stop offset="0" style="stop-color:#7A7A7A"/>
<stop offset="0.7818" style="stop-color:#212121"/>
<stop offset="1" style="stop-color:#666666"/>
</linearGradient>
<path d="M24.932,17.847c-0.111,1.683-0.914,3.001-1.795,2.942c-0.88-0.059-1.07-1.441-0.957-3.124  c0.109-1.685,0.479-3.03,1.359-2.972S25.042,16.162,24.932,17.847z" fill="url(#SVGID_15_)"/>
<linearGradient gradientTransform="matrix(1 0 0 1 432.2656 0)" gradientUnits="userSpaceOnUse" id="SVGID_16_" x1="-408.3306" x2="-408.3306" y1="14.2993" y2="20.566">
<stop offset="0" style="stop-color:#BDC3C4"/>
<stop offset="0.3515" style="stop-color:#DDE3E6"/>
<stop offset="0.6545" style="stop-color:#949DA1"/>
<stop offset="0.9636" style="stop-color:#ADB3B5"/>
<stop offset="1" style="stop-color:#595C5E"/>
</linearGradient>
<path d="M23.832,14.951c-0.484,0.53-0.693,1.586-0.739,2.788c-0.04,1.098,0.038,2.056,0.414,2.648  c0.647-0.279,1.183-1.337,1.268-2.637C24.861,16.429,24.456,15.291,23.832,14.951z" fill="url(#SVGID_16_)"/>
<path d="M23.539,15.258c-0.007,0-0.012,0.002-0.017,0.002c-0.118-0.049-0.239-0.079-0.366-0.088  c-1.016-0.066-1.43,1.302-1.543,3.017c-0.012,0.155-0.018,0.307-0.021,0.457c-0.011-0.323-0.003-0.665,0.021-1.022  c0.113-1.715,0.527-3.085,1.543-3.017c0.127,0.007,0.248,0.039,0.366,0.088c0.005,0,0.01-0.001,0.017-0.001  c0.861,0.056,1.475,1.41,1.396,3.044C24.866,16.367,24.299,15.309,23.539,15.258z" fill="#FFFFFF" fill-opacity="0.3" stroke-opacity="0.3"/>
<linearGradient gradientUnits="userSpaceOnUse" id="SVGID_17_" x1="15.0005" x2="15.0005" y1="23.5908" y2="25.8961">
<stop offset="0" style="stop-color:#7A7A7A"/>
<stop offset="0.7818" style="stop-color:#212121"/>
<stop offset="1" style="stop-color:#666666"/>
</linearGradient>
<ellipse cx="15.001" cy="24.773" fill="url(#SVGID_17_)" rx="1.808" ry="1.131"/>
</g>
</svg>
