<?xml version="1.0" encoding="UTF-8"?>
<!DOCTYPE svg PUBLIC "-//W3C//DTD SVG 1.1 Tiny//EN" "http://www.w3.org/Graphics/SVG/1.1/DTD/svg11-tiny.dtd">
<svg baseProfile="tiny" height="34" viewBox="0 0 34 34" width="34" xmlns="http://www.w3.org/2000/svg" xmlns:xlink="http://www.w3.org/1999/xlink">
<g>
<path d="M17,31C9.28,31,3,24.72,3,17S9.28,3,17,3s14,6.28,14,14S24.72,31,17,31L17,31z" fill-opacity="0.6" stroke-opacity="0.6"/>
<circle cx="17" cy="17" fill="url(#SVGID_1_)" r="13"/>
<path d="M26.75,19.307c0,1.563-0.315,2.916-0.942,4.059c-0.762,1.408-1.865,2.115-3.308,2.115  c-1.401,0-2.413-0.707-3.045-2.115c-0.762,0.824-1.744,1.237-2.948,1.237c-1.414,0-2.546-0.542-3.401-1.621  c-0.792-1.001-1.189-2.216-1.189-3.66c0-1.45,0.397-2.662,1.189-3.638c0.844-1.052,1.979-1.574,3.401-1.574  c1.059,0,1.894,0.287,2.503,0.863v-0.635h2.055v7.098c0,1.377,0.478,2.068,1.436,2.068c0.782,0,1.385-0.541,1.807-1.62  c0.311-0.804,0.467-1.659,0.467-2.577c0-2.12-0.766-3.93-2.289-5.437c-1.523-1.509-3.352-2.26-5.484-2.26  c-2.144,0-3.964,0.747-5.462,2.244c-1.498,1.498-2.25,3.313-2.25,5.453c0,2.139,0.751,3.963,2.258,5.467  c1.503,1.512,3.321,2.264,5.454,2.264v2.034c-2.688,0-4.987-0.956-6.89-2.865c-1.906-1.915-2.86-4.217-2.86-6.899  c0-2.673,0.956-4.964,2.866-6.874c1.911-1.906,4.203-2.862,6.884-2.862c2.688,0,4.986,0.95,6.892,2.856  C25.796,14.329,26.75,16.623,26.75,19.307z M18.885,19.229c0-2.074-0.793-3.114-2.378-3.114c-0.794,0-1.409,0.354-1.839,1.061  c-0.374,0.599-0.557,1.312-0.557,2.146c0,2.182,0.798,3.272,2.394,3.272C18.092,22.594,18.885,21.473,18.885,19.229z" fill-opacity="0.2" stroke-opacity="0.2"/>
<path d="M26.75,16.985c0,1.563-0.315,2.917-0.942,4.06c-0.762,1.406-1.865,2.114-3.308,2.114  c-1.401,0-2.413-0.708-3.045-2.114c-0.762,0.822-1.744,1.236-2.948,1.236c-1.414,0-2.546-0.543-3.401-1.621  c-0.792-1.002-1.189-2.217-1.189-3.66c0-1.451,0.397-2.663,1.189-3.638c0.844-1.052,1.979-1.574,3.401-1.574  c1.059,0,1.894,0.287,2.503,0.863v-0.635h2.055v7.099c0,1.376,0.478,2.066,1.436,2.066c0.782,0,1.385-0.54,1.807-1.619  c0.311-0.803,0.467-1.659,0.467-2.577c0-2.12-0.766-3.93-2.289-5.437c-1.523-1.509-3.352-2.26-5.484-2.26  c-2.144,0-3.964,0.747-5.462,2.243c-1.498,1.498-2.25,3.313-2.25,5.454c0,2.138,0.751,3.963,2.258,5.466  c1.503,1.514,3.321,2.264,5.454,2.264v2.035c-2.688,0-4.987-0.956-6.89-2.865c-1.906-1.916-2.86-4.217-2.86-6.899  c0-2.673,0.956-4.964,2.866-6.874C12.027,8.206,14.319,7.25,17,7.25c2.688,0,4.986,0.95,6.892,2.856  C25.796,12.007,26.75,14.301,26.75,16.985z M18.885,16.907c0-2.075-0.793-3.114-2.378-3.114c-0.794,0-1.409,0.354-1.839,1.061  c-0.374,0.599-0.557,1.311-0.557,2.146c0,2.182,0.798,3.271,2.394,3.271C18.092,20.271,18.885,19.15,18.885,16.907z" fill="#FFFFFF"/>
<rect fill="none" height="34" width="34"/>
<defs>
<linearGradient gradientUnits="userSpaceOnUse" id="SVGID_1_" x1="16.9995" x2="16.9995" y1="3.9409" y2="30.3052">
<stop offset="0" style="stop-color:#4EDEFF"/>
<stop offset="1" style="stop-color:#048CC6"/>
</linearGradient>
</defs>
</g>
</svg>
