<?xml version="1.0" encoding="UTF-8"?>
<!DOCTYPE svg PUBLIC "-//W3C//DTD SVG 1.1 Tiny//EN" "http://www.w3.org/Graphics/SVG/1.1/DTD/svg11-tiny.dtd">
<svg baseProfile="tiny" height="30px" version="1.1" viewBox="0 0 30 30" width="30px" x="0px" xmlns="http://www.w3.org/2000/svg" xmlns:xlink="http://www.w3.org/1999/xlink" y="0px">
<g fill-opacity="0.5" stroke-opacity="0.5">
<rect fill="none" height="30" width="30"/>
</g>
<polygon points="15.521,19.178 16,14 10.82,14.478 "/>
<polygon points="3.313,15.407 5.032,19.953 10.045,24.968 14.593,26.686 15.385,20.408 9.592,14.614 "/>
<polygon points="7.104,30 11.347,30 13.212,28.135 10.399,26.705 "/>
<polygon points="4.02,21.771 0,25.79 0,30 4.275,30 8.262,26.014 "/>
<polygon points="1.898,16.821 0,18.72 0,22.962 3.328,19.634 "/>
<path d="M13.123,12.251l5.096-0.47l-0.371,4.007h3.582l0.001,0.001c-0.037-0.108-0.073-0.217-0.08-0.318  c-0.011-0.157,0-0.437,0.003-0.596c1.086-0.732,2.027-1.654,2.6-2.776c1.061-2.08,0.672-7.392,0.672-7.392  C24.625,2.538,21.383,0,19.189,0h-1.391c-2.193,0-5.424,2.538-5.424,4.707c0,0-0.332,5.294,0.658,7.392  C13.059,12.152,13.096,12.198,13.123,12.251z"/>
<path d="M21.903,16.591L18.5,24.286l-1.233-2.789l-0.764,6.06l0.003,0.002l-0.02,0.13L16.175,28H29v-6.125  C28.706,21.486,23.599,18.725,21.903,16.591z"/>
</svg>
