<?xml version="1.0" encoding="UTF-8"?>
<!DOCTYPE svg PUBLIC "-//W3C//DTD SVG 1.1 Tiny//EN" "http://www.w3.org/Graphics/SVG/1.1/DTD/svg11-tiny.dtd">
<svg baseProfile="tiny" height="60" viewBox="0 0 60 60" width="60" xmlns="http://www.w3.org/2000/svg" xmlns:xlink="http://www.w3.org/1999/xlink">
<g>
<polygon fill="url(#SVGID_1_)" points="30.254,44.813 15.638,52.732 18.242,36.314 6.194,24.861 22.612,22.267 29.782,7.268   37.326,22.082 53.806,24.266 42.048,36.018 45.063,52.364 "/>
<radialGradient cx="-21.0806" cy="-41.9727" gradientTransform="matrix(0.9721 0 0 0.9721 50.2463 54.5754)" gradientUnits="userSpaceOnUse" id="SVGID_2_" r="38.9294">
<stop offset="0" style="stop-color:#FEE16E"/>
<stop offset="0.1394" style="stop-color:#FEE16E"/>
<stop offset="0.5515" style="stop-color:#FFC501"/>
<stop offset="0.7273" style="stop-color:#F6A800"/>
<stop offset="1" style="stop-color:#FED43A"/>
</radialGradient>
<polygon fill="url(#SVGID_2_)" points="19.516,35.884 8.763,25.66 23.417,23.344 29.817,9.958 36.55,23.18 51.258,25.129   40.764,35.618 43.455,50.208 30.236,43.469 17.191,50.537 "/>
<radialGradient cx="-20.6577" cy="-11.8521" gradientTransform="matrix(0.9721 0 0 0.9721 50.2463 54.5754)" gradientUnits="userSpaceOnUse" id="SVGID_3_" r="13.9404">
<stop offset="0" style="stop-color:#FED95A"/>
<stop offset="1" style="stop-color:#FFC501"/>
</radialGradient>
<polygon fill="url(#SVGID_3_)" points="30.236,42.278 17.397,49.234 17.191,50.537 30.236,43.469 43.455,50.208 43.213,48.894 "/>
<radialGradient cx="-20.6465" cy="-37.2441" gradientTransform="matrix(0.9721 0 0 0.9721 50.2463 54.5754)" gradientUnits="userSpaceOnUse" id="SVGID_4_" r="54.1061">
<stop offset="0" style="stop-color:#FEF4CE"/>
<stop offset="1" style="stop-color:#FFC501"/>
</radialGradient>
<polygon fill="url(#SVGID_4_)" points="24.013,24.534 29.817,12.339 35.954,24.369 50.202,26.185 51.258,25.129 36.55,23.18   29.817,9.958 23.417,23.344 8.763,25.66 9.842,26.688 "/>
<rect fill="none" height="60" width="60"/>
<defs>
<linearGradient gradientTransform="matrix(0.9999 -0.0125 0.0125 0.9999 -24.8399 22.8368)" gradientUnits="userSpaceOnUse" id="SVGID_1_" x1="54.8154" x2="54.8154" y1="-15.0161" y2="29.5575">
<stop offset="0" style="stop-color:#F2C352"/>
<stop offset="0.3576" style="stop-color:#F2C352"/>
<stop offset="0.8909" style="stop-color:#DE7600"/>
<stop offset="1" style="stop-color:#E79A26"/>
</linearGradient>
</defs>
</g>
</svg>
