<?xml version="1.0" encoding="UTF-8"?>
<!DOCTYPE svg PUBLIC "-//W3C//DTD SVG 1.1 Tiny//EN" "http://www.w3.org/Graphics/SVG/1.1/DTD/svg11-tiny.dtd">
<svg baseProfile="tiny" height="30" viewBox="0 0 30 30" width="30" xmlns="http://www.w3.org/2000/svg" xmlns:xlink="http://www.w3.org/1999/xlink">
<g>
<polygon fill-opacity="0.6" points="5,20 5,1 20.414,1 27,7.586 27,20 " stroke-opacity="0.6"/>
<linearGradient gradientUnits="userSpaceOnUse" id="SVGID_1_" x1="15.9995" x2="15.9995" y1="1.9458" y2="18.9463">
<stop offset="0" style="stop-color:#EDEDED"/>
<stop offset="1" style="stop-color:#BDBDBD"/>
</linearGradient>
<polygon fill="url(#SVGID_1_)" points="26,8 26,19 6,19 6,2 20,2 "/>
<rect height="1.5" width="2" x="9" y="5"/>
<rect height="1.5" width="11" x="12" y="5"/>
<path d="M26,11H10.857C10.41,9.279,8.858,8,7,8c-1.915,0-3.517,1.354-3.906,3.155C1.884,11.542,1,12.664,1,14v12  c0,1.654,1.346,3,3,3h22c1.654,0,3-1.346,3-3V14C29,12.346,27.654,11,26,11z" fill-opacity="0.6" stroke-opacity="0.6"/>
<rect height="1.5" width="2" x="9" y="8.5"/>
<rect height="1.5" width="11" x="12" y="8.5"/>
<polygon fill="#FFFFFF" points="20,8 26,8 20,2 "/>
<linearGradient gradientUnits="userSpaceOnUse" id="SVGID_2_" x1="14.9995" x2="14.9995" y1="12.1538" y2="28.0072">
<stop offset="0" style="stop-color:#E6E6E6"/>
<stop offset="1" style="stop-color:#626262"/>
</linearGradient>
<path d="M28,26c0,1.1-0.9,2-2,2H4c-1.1,0-2-0.9-2-2V14c0-1.1,0.9-2,2-2h22c1.1,0,2,0.9,2,2V26z" fill="url(#SVGID_2_)"/>
<path d="M26,12H4c-1.1,0-2,0.9-2,2v1c0-1.1,0.9-2,2-2h22c1.1,0,2,0.9,2,2v-1C28,12.9,27.1,12,26,12z" fill="#FFFFFF" fill-opacity="0.4" stroke-opacity="0.4"/>
<path d="M7,27c2.206,0,4-1.794,4-4V12H3v11C3,25.206,4.794,27,7,27z" fill-opacity="0.1" stroke-opacity="0.1"/>
<linearGradient gradientUnits="userSpaceOnUse" id="SVGID_3_" x1="7" x2="7" y1="9.1636" y2="26.0077">
<stop offset="0" style="stop-color:#A0A7A8"/>
<stop offset="1" style="stop-color:#252629"/>
</linearGradient>
<path d="M10,23c0,1.65-1.35,3-3,3l0,0c-1.65,0-3-1.35-3-3V12c0-1.65,1.35-3,3-3l0,0c1.65,0,3,1.35,3,3V23z" fill="url(#SVGID_3_)"/>
<path d="M7,9c-1.65,0-3,1.35-3,3v1c0-1.65,1.35-3,3-3s3,1.35,3,3v-1C10,10.35,8.65,9,7,9z" fill="#FFFFFF" fill-opacity="0.3" stroke-opacity="0.3"/>
<path d="M9,15v10.217c0.609-0.55,1-1.337,1-2.217V13L9,15z" fill-opacity="0.3" stroke-opacity="0.3"/>
<path d="M5,25.217V15l-1-2v10C4,23.88,4.391,24.667,5,25.217z" fill-opacity="0.3" stroke-opacity="0.3"/>
<linearGradient gradientUnits="userSpaceOnUse" id="SVGID_4_" x1="15.4995" x2="15.4995" y1="18" y2="27.9798">
<stop offset="0" style="stop-color:#696D6F"/>
<stop offset="1" style="stop-color:#252629"/>
</linearGradient>
<rect fill="url(#SVGID_4_)" height="2" width="3" x="14" y="18"/>
<linearGradient gradientUnits="userSpaceOnUse" id="SVGID_5_" x1="19.5" x2="19.5" y1="18" y2="27.9798">
<stop offset="0" style="stop-color:#696D6F"/>
<stop offset="1" style="stop-color:#252629"/>
</linearGradient>
<rect fill="url(#SVGID_5_)" height="2" width="3" x="18" y="18"/>
<linearGradient gradientUnits="userSpaceOnUse" id="SVGID_6_" x1="23.5" x2="23.5" y1="18" y2="27.9798">
<stop offset="0" style="stop-color:#696D6F"/>
<stop offset="1" style="stop-color:#252629"/>
</linearGradient>
<rect fill="url(#SVGID_6_)" height="2" width="3" x="22" y="18"/>
<linearGradient gradientUnits="userSpaceOnUse" id="SVGID_7_" x1="15.4995" x2="15.4995" y1="17" y2="26.9798">
<stop offset="0" style="stop-color:#696D6F"/>
<stop offset="1" style="stop-color:#252629"/>
</linearGradient>
<rect fill="url(#SVGID_7_)" height="2" width="3" x="14" y="21"/>
<linearGradient gradientUnits="userSpaceOnUse" id="SVGID_8_" x1="19.5" x2="19.5" y1="17" y2="26.9798">
<stop offset="0" style="stop-color:#696D6F"/>
<stop offset="1" style="stop-color:#252629"/>
</linearGradient>
<rect fill="url(#SVGID_8_)" height="2" width="3" x="18" y="21"/>
<linearGradient gradientUnits="userSpaceOnUse" id="SVGID_9_" x1="23.5" x2="23.5" y1="17" y2="26.9798">
<stop offset="0" style="stop-color:#696D6F"/>
<stop offset="1" style="stop-color:#252629"/>
</linearGradient>
<rect fill="url(#SVGID_9_)" height="2" width="3" x="22" y="21"/>
<linearGradient gradientUnits="userSpaceOnUse" id="SVGID_10_" x1="15.4995" x2="15.4995" y1="16" y2="25.9798">
<stop offset="0" style="stop-color:#696D6F"/>
<stop offset="1" style="stop-color:#252629"/>
</linearGradient>
<rect fill="url(#SVGID_10_)" height="2" width="3" x="14" y="24"/>
<linearGradient gradientUnits="userSpaceOnUse" id="SVGID_11_" x1="19.5" x2="19.5" y1="16" y2="25.9798">
<stop offset="0" style="stop-color:#696D6F"/>
<stop offset="1" style="stop-color:#252629"/>
</linearGradient>
<rect fill="url(#SVGID_11_)" height="2" width="3" x="18" y="24"/>
<linearGradient gradientUnits="userSpaceOnUse" id="SVGID_12_" x1="23.5" x2="23.5" y1="16" y2="25.9798">
<stop offset="0" style="stop-color:#696D6F"/>
<stop offset="1" style="stop-color:#252629"/>
</linearGradient>
<rect fill="url(#SVGID_12_)" height="2" width="3" x="22" y="24"/>
<linearGradient gradientUnits="userSpaceOnUse" id="SVGID_13_" x1="19.5" x2="19.5" y1="14.1875" y2="17.0636">
<stop offset="0" style="stop-color:#30BCE8"/>
<stop offset="1" style="stop-color:#048CC6"/>
</linearGradient>
<rect fill="url(#SVGID_13_)" height="3" width="11" x="14" y="14"/>
<rect fill="none" height="30" width="30"/>
</g>
</svg>
