<?xml version="1.0" encoding="UTF-8"?>
<!DOCTYPE svg PUBLIC "-//W3C//DTD SVG 1.1 Tiny//EN" "http://www.w3.org/Graphics/SVG/1.1/DTD/svg11-tiny.dtd">
<svg baseProfile="tiny" height="60" viewBox="0 0 60 60" width="60" xmlns="http://www.w3.org/2000/svg" xmlns:xlink="http://www.w3.org/1999/xlink">
<g>
<linearGradient gradientTransform="matrix(0.2118 0.9773 -0.9773 0.2118 -634.5609 -270.4865)" gradientUnits="userSpaceOnUse" id="SVGID_1_" x1="423.0967" x2="429.6524" y1="-578.646" y2="-582.9078">
<stop offset="0" style="stop-color:#A7E722"/>
<stop offset="0.1333" style="stop-color:#A7E722"/>
<stop offset="0.6303" style="stop-color:#428C0F"/>
<stop offset="1" style="stop-color:#5CA617"/>
</linearGradient>
<path d="M19.081,33.91c2.089-3.595,4.591-6.496,7.281-9.188c2.593-2.591,6.72-5.3,8.562-6.256l9.604-10.282  c-0.845-0.3-3.693-0.464-7.279,0.616c-3.586,1.083-11.736,6.303-16.979,11.547c-5.242,5.246-9.727,12.347-10.581,14.595  c-1.343,3.541-1.221,7.445-0.929,8.58c0,0,0.34,1.035,1.144,2.377C10.248,46.475,19.081,33.91,19.081,33.91z" fill="url(#SVGID_1_)"/>
<path d="M31.184,20.8c1.488-1.036,2.87-1.882,3.74-2.334L44.271,8.46  c-0.132-0.058-0.209-0.088-0.209-0.088c-0.247-0.088-0.642-0.162-1.124-0.219c-0.793,0.006-1.596,0.093-2.401,0.27  C34.843,9.673,31.019,14.958,31.184,20.8z" fill="#020202" fill-opacity="0.05" stroke-opacity="0.05"/>
<path d="M31.906,20.306c1.205-0.809,2.291-1.462,3.018-1.84l9.377-10.04  c-0.146-0.063-0.233-0.098-0.233-0.098c-0.231-0.08-0.604-0.152-1.06-0.203c-0.751,0.006-1.51,0.087-2.27,0.253  C35.275,9.576,31.636,14.695,31.906,20.306z" fill="#020202" fill-opacity="0.1" stroke-opacity="0.1"/>
<path d="M44.079,8.263c-0.21-0.073-0.55-0.137-0.962-0.186c-0.681,0.006-1.369,0.08-2.06,0.231  c-5.087,1.116-8.426,5.984-7.978,11.233c0.725-0.455,1.363-0.826,1.844-1.076l9.424-10.088C44.178,8.302,44.079,8.263,44.079,8.263z  " fill="#020202" fill-opacity="0.1" stroke-opacity="0.1"/>
<radialGradient cx="40.9697" cy="9.21" gradientUnits="userSpaceOnUse" id="SVGID_2_" r="12.2872">
<stop offset="0" style="stop-color:#A7E722"/>
<stop offset="0.6242" style="stop-color:#428C0F"/>
<stop offset="1" style="stop-color:#5CA617"/>
</radialGradient>
<path d="M34.924,18.466l0.929,1.55c0,0,15.101-6.784,14.084-8.038c-0.513-0.631-0.577-0.656-1.237-1.263  c-1.985-1.815-4.172-2.531-4.172-2.531c-0.186-0.063-0.481-0.12-0.845-0.161c-0.596,0.004-1.2,0.068-1.806,0.201  c-4.591,1.009-7.57,5.501-6.963,10.257C34.916,18.477,34.921,18.47,34.924,18.466z" fill="url(#SVGID_2_)"/>
<path d="M17.483,34.105c-0.988-0.139-2.007-0.119-3.027,0.105c-2.418,0.531-4.376,2.066-5.646,4.131  c-0.367,2.35-0.25,4.408-0.05,5.18c0,0,0.34,1.035,1.144,2.377c0.29,0.482,6.54-8.264,8.556-11.107L17.483,34.105z" fill="#020202" fill-opacity="0.1" stroke-opacity="0.1"/>
<path d="M18.366,34.135c-0.989-0.139-2.008-0.117-3.029,0.105c-3.313,0.727-5.775,3.332-6.76,6.623  c-0.026,1.025,0.034,1.873,0.127,2.398c0.003,0.012,0.005,0.033,0.01,0.047c0,0,0.34,1.033,1.144,2.379  c0.3,0.498,6.981-8.887,8.75-11.383L18.366,34.135z" fill="#020202" fill-opacity="0.1" stroke-opacity="0.1"/>
<radialGradient cx="437.4258" cy="-571.231" gradientTransform="matrix(0.2095 0.9787 -0.9682 0.2124 -629.4526 -270.6148)" gradientUnits="userSpaceOnUse" id="SVGID_3_" r="14.6187">
<stop offset="0" style="stop-color:#A7E722"/>
<stop offset="0.6242" style="stop-color:#428C0F"/>
<stop offset="1" style="stop-color:#5CA617"/>
</radialGradient>
<path d="M11.202,47.738c0.616,0.74,0.646,0.953,1.295,1.523c1.194,1.055,9.301-13.611,9.301-13.611  l-2.683-1.719c-0.941-0.111-1.914-0.08-2.89,0.135c-4.777,1.049-7.806,5.869-6.87,10.832C9.749,45.686,10.349,46.709,11.202,47.738z  " fill="url(#SVGID_3_)"/>
<path d="M49.937,11.978c-0.179-0.22-0.381-0.446-0.578-0.67l-13.944,7.959l0.438,0.749  C35.853,20.016,50.953,13.231,49.937,11.978z" fill="#020202" fill-opacity="0.4" stroke-opacity="0.4"/>
<linearGradient gradientTransform="matrix(0.2118 0.9773 -0.9773 0.2118 -634.5599 -270.4865)" gradientUnits="userSpaceOnUse" id="SVGID_4_" x1="422.2881" x2="427.4786" y1="-610.9287" y2="-594.4409">
<stop offset="0" style="stop-color:#C6FF45"/>
<stop offset="0.6788" style="stop-color:#387300"/>
<stop offset="1" style="stop-color:#66A00E"/>
</linearGradient>
<path d="M35.853,20.016l1.178,1.981c0.302,0.515,0.972,0.674,1.569,0.422l4.09-2.334l8.043-4.668  c0.632-0.363,0.878-1.119,0.549-1.686c0,0-0.333-0.501-1.349-1.751L35.853,20.016z" fill="url(#SVGID_4_)"/>
<path d="M21.798,35.65l-0.725-0.473l-9.215,13.486c0.216,0.205,0.43,0.414,0.639,0.598  C13.691,50.316,21.798,35.65,21.798,35.65z" fill="#020202" fill-opacity="0.4" stroke-opacity="0.4"/>
<linearGradient gradientTransform="matrix(0.2118 0.9773 -0.9773 0.2118 -634.5599 -270.4865)" gradientUnits="userSpaceOnUse" id="SVGID_5_" x1="439.6982" x2="451.5232" y1="-577.7549" y2="-564.7323">
<stop offset="0" style="stop-color:#C6FF45"/>
<stop offset="0.6788" style="stop-color:#387300"/>
<stop offset="1" style="stop-color:#66A00E"/>
</linearGradient>
<path d="M12.498,49.262c1.193,1.049,1.686,1.369,1.686,1.369c0.567,0.367,1.363,0.17,1.781-0.441l7.9-11.605  c0.419-0.615,0.307-1.412-0.26-1.777l-1.808-1.156L12.498,49.262z" fill="url(#SVGID_5_)"/>
<rect fill="none" height="60" width="60"/>
</g>
<g transform="matrix(1 0 0 1 30 30)">
<linearGradient gradientUnits="userSpaceOnUse" id="SVGID_1__" x1="15.0005" x2="15.0005" y1="2.1309" y2="27.8037">
<stop offset="0" style="stop-color:#D1D7D9"/>
<stop offset="0.0667" style="stop-color:#D1D7D9"/>
<stop offset="0.2606" style="stop-color:#BDC2C4"/>
<stop offset="0.6606" style="stop-color:#949DA1"/>
<stop offset="0.9636" style="stop-color:#ADB3B5"/>
<stop offset="1" style="stop-color:#595C5E"/>
</linearGradient>
<path d="M23.287,26.461c0,0.778-0.632,1.409-1.411,1.409H8.124c-0.779,0-1.41-0.631-1.41-1.409V3.541  c0-0.778,0.631-1.41,1.41-1.41h13.752c0.779,0,1.411,0.632,1.411,1.41V26.461z" fill="url(#SVGID_1__)"/>
<linearGradient gradientUnits="userSpaceOnUse" id="SVGID_2__" x1="15.0005" x2="15.0005" y1="2.1309" y2="27.3644">
<stop offset="0" style="stop-color:#E4EBED"/>
<stop offset="0.0667" style="stop-color:#E4EBED"/>
<stop offset="0.2606" style="stop-color:#D6DCDE"/>
<stop offset="0.6606" style="stop-color:#B2BEC2"/>
<stop offset="1" style="stop-color:#ADB3B5"/>
</linearGradient>
<path d="M21.876,2.131H8.124c-0.779,0-1.41,0.632-1.41,1.41v22.92c0,0.376,0.15,0.716,0.39,0.969  c-0.022-0.086-0.036-0.172-0.036-0.265v-0.704V4.246V3.541c0-0.584,0.475-1.059,1.057-1.059h13.752c0.583,0,1.057,0.475,1.057,1.059  v0.705v22.215v0.704c0,0.093-0.014,0.179-0.036,0.265c0.241-0.253,0.391-0.593,0.391-0.969V3.541  C23.287,2.763,22.655,2.131,21.876,2.131z" fill="url(#SVGID_2__)"/>
<linearGradient gradientUnits="userSpaceOnUse" id="SVGID_3__" x1="14.9995" x2="14.9995" y1="3.9189" y2="21.1728">
<stop offset="0" style="stop-color:#B6BBBD"/>
<stop offset="1" style="stop-color:#F0FBFF"/>
</linearGradient>
<rect fill="url(#SVGID_3__)" fill-opacity="0.6" height="17.277" stroke-opacity="0.6" width="14.459" x="7.771" y="3.894"/>
<linearGradient gradientUnits="userSpaceOnUse" id="SVGID_4__" x1="14.9995" x2="14.9995" y1="4.2705" y2="20.8212">
<stop offset="0" style="stop-color:#6E6E6E"/>
<stop offset="1" style="stop-color:#333333"/>
</linearGradient>
<rect fill="url(#SVGID_4__)" height="16.573" width="13.752" x="8.124" y="4.246"/>
<linearGradient gradientUnits="userSpaceOnUse" id="SVGID_5__" x1="14.9995" x2="14.9995" y1="4.6221" y2="20.4687">
<stop offset="0" style="stop-color:#3BC8EB"/>
<stop offset="0.3879" style="stop-color:#2D9BD2"/>
<stop offset="0.8909" style="stop-color:#1347BA"/>
<stop offset="1" style="stop-color:#1347BA"/>
</linearGradient>
<rect fill="url(#SVGID_5__)" height="15.868" width="13.047" x="8.477" y="4.599"/>
<linearGradient gradientUnits="userSpaceOnUse" id="SVGID_6_" x1="14.9995" x2="14.9995" y1="4.876" y2="11.1806">
<stop offset="0" style="stop-color:#85EFFF"/>
<stop offset="1" style="stop-color:#3BA1D9"/>
</linearGradient>
<polygon fill="url(#SVGID_6_)" points="21.523,10.24 8.477,11.65 8.477,4.952 21.523,4.952 "/>
<rect fill="#9FE4FF" height="0.354" width="13.047" x="8.477" y="4.599"/>
<linearGradient gradientUnits="userSpaceOnUse" id="SVGID_7_" x1="15.103" x2="15.103" y1="3.9106" y2="2.4995">
<stop offset="0" style="stop-color:#FFFFFF"/>
<stop offset="1" style="stop-color:#D1D7D9"/>
</linearGradient>
<path d="M13.544,3.894c-0.396,0-0.706-0.258-0.706-0.588V3.07c0-0.329,0.311-0.588,0.706-0.588h3.119  c0.395,0,0.704,0.259,0.704,0.588v0.235c0,0.33-0.31,0.588-0.704,0.588H13.544z" fill="url(#SVGID_7_)"/>
<linearGradient gradientUnits="userSpaceOnUse" id="SVGID_8_" x1="15.103" x2="15.103" y1="2.6895" y2="3.6004">
<stop offset="0" style="stop-color:#6C7375"/>
<stop offset="1" style="stop-color:#BDC2C4"/>
</linearGradient>
<path d="M17.017,3.306c0,0.13-0.159,0.235-0.354,0.235h-3.119c-0.195,0-0.354-0.105-0.354-0.235V3.07  c0-0.131,0.158-0.234,0.354-0.234h3.119c0.194,0,0.354,0.104,0.354,0.234V3.306z" fill="url(#SVGID_8_)"/>
<linearGradient gradientUnits="userSpaceOnUse" id="SVGID_9_" x1="14.9448" x2="14.9448" y1="21.5391" y2="26.7801">
<stop offset="0" style="stop-color:#B6BBBD"/>
<stop offset="1" style="stop-color:#FFFFFF"/>
</linearGradient>
<path d="M13.672,26.813c-0.756,0-1.372-0.608-1.372-1.356V22.88  c0-0.747,0.616-1.355,1.372-1.355h2.547c0.757,0,1.372,0.608,1.372,1.355v2.577c0,0.748-0.615,1.356-1.372,1.356H13.672z" fill="url(#SVGID_9_)" fill-opacity="0.6" stroke-opacity="0.6"/>
<path d="M13.67,26.461c-0.561,0-1.016-0.451-1.016-1.004V22.88c0-0.554,0.455-1.004,1.016-1.004h2.552  c0.561,0,1.015,0.45,1.015,1.004v2.577c0,0.553-0.454,1.004-1.015,1.004H13.67z" fill="#020202" fill-opacity="0.5" stroke-opacity="0.5"/>
<linearGradient gradientUnits="userSpaceOnUse" id="SVGID_10_" x1="14.9458" x2="14.9458" y1="22.2129" y2="26.1145">
<stop offset="0" style="stop-color:#A6A8AB"/>
<stop offset="0.703" style="stop-color:#58595B"/>
<stop offset="1" style="stop-color:#808184"/>
</linearGradient>
<path d="M16.886,25.457c0,0.359-0.297,0.65-0.66,0.65h-2.56c-0.364,0-0.66-0.291-0.66-0.65V22.88  c0-0.358,0.296-0.649,0.66-0.649h2.56c0.363,0,0.66,0.291,0.66,0.649V25.457z" fill="url(#SVGID_10_)"/>
<path d="M14.418,25.402c-0.391,0-0.707-0.316-0.707-0.705v-1.059c0-0.388,0.316-0.704,0.707-0.704  h1.056c0.39,0,0.706,0.316,0.706,0.704v1.059c0,0.389-0.316,0.705-0.706,0.705H14.418z" fill="#020202" fill-opacity="0.2" stroke-opacity="0.2"/>
<linearGradient gradientUnits="userSpaceOnUse" id="SVGID_11_" x1="14.9458" x2="14.9458" y1="23.2793" y2="25.0522">
<stop offset="0" style="stop-color:#D1D7D9"/>
<stop offset="0.0667" style="stop-color:#D1D7D9"/>
<stop offset="0.2606" style="stop-color:#BDC2C4"/>
<stop offset="0.6606" style="stop-color:#949DA1"/>
<stop offset="0.9636" style="stop-color:#ADB3B5"/>
<stop offset="1" style="stop-color:#595C5E"/>
</linearGradient>
<path d="M14.418,25.049c-0.196,0-0.354-0.157-0.354-0.352v-1.059c0-0.193,0.157-0.352,0.354-0.352h1.056  c0.195,0,0.354,0.158,0.354,0.352v1.059c0,0.194-0.158,0.352-0.354,0.352H14.418z" fill="url(#SVGID_11_)"/>
<linearGradient gradientUnits="userSpaceOnUse" id="SVGID_12_" x1="9.3306" x2="9.3306" y1="21.8564" y2="26.1148">
<stop offset="0" style="stop-color:#B6BBBD"/>
<stop offset="1" style="stop-color:#F0FBFF"/>
</linearGradient>
<path d="M9.128,26.107c-0.748,0-1.357-0.608-1.357-1.356v-1.518  c0-0.749,0.609-1.357,1.357-1.357h0.405c0.749,0,1.357,0.608,1.357,1.357v1.518c0,0.748-0.608,1.356-1.357,1.356H9.128z" fill="url(#SVGID_12_)" fill-opacity="0.4" stroke-opacity="0.4"/>
<linearGradient gradientUnits="userSpaceOnUse" id="SVGID_13_" x1="9.3311" x2="9.3311" y1="22.2139" y2="25.7607">
<stop offset="0" style="stop-color:#231F20"/>
<stop offset="1" style="stop-color:#6D6E70"/>
</linearGradient>
<path d="M9.128,25.755c-0.553,0-1.004-0.45-1.004-1.004v-1.518  c0-0.555,0.451-1.003,1.004-1.003h0.405c0.555,0,1.005,0.448,1.005,1.003v1.518c0,0.554-0.45,1.004-1.005,1.004H9.128z" fill="url(#SVGID_13_)" fill-opacity="0.7" stroke-opacity="0.7"/>
<linearGradient gradientUnits="userSpaceOnUse" id="SVGID_14_" x1="9.3306" x2="9.3306" y1="22.5693" y2="25.4076">
<stop offset="0" style="stop-color:#C6FF45"/>
<stop offset="0.7273" style="stop-color:#66A00E"/>
<stop offset="1" style="stop-color:#387300"/>
</linearGradient>
<path d="M10.185,24.751c0,0.36-0.291,0.651-0.651,0.651H9.128c-0.359,0-0.651-0.291-0.651-0.651v-1.518  c0-0.36,0.292-0.651,0.651-0.651h0.405c0.36,0,0.651,0.291,0.651,0.651V24.751z" fill="url(#SVGID_14_)"/>
<linearGradient gradientUnits="userSpaceOnUse" id="SVGID_15_" x1="20.3652" x2="20.3652" y1="21.8564" y2="26.1148">
<stop offset="0" style="stop-color:#B6BBBD"/>
<stop offset="1" style="stop-color:#F0FBFF"/>
</linearGradient>
<path d="M20.161,26.107c-0.747,0-1.355-0.608-1.355-1.356v-1.518  c0-0.749,0.608-1.357,1.355-1.357h0.406c0.75,0,1.357,0.608,1.357,1.357v1.518c0,0.748-0.607,1.356-1.357,1.356H20.161z" fill="url(#SVGID_15_)" fill-opacity="0.4" stroke-opacity="0.4"/>
<linearGradient gradientUnits="userSpaceOnUse" id="SVGID_16_" x1="20.3643" x2="20.3643" y1="22.2139" y2="25.7607">
<stop offset="0" style="stop-color:#231F20"/>
<stop offset="1" style="stop-color:#6D6E70"/>
</linearGradient>
<path d="M20.161,25.755c-0.554,0-1.004-0.45-1.004-1.004v-1.518  c0-0.555,0.45-1.003,1.004-1.003h0.406c0.555,0,1.004,0.448,1.004,1.003v1.518c0,0.554-0.449,1.004-1.004,1.004H20.161z" fill="url(#SVGID_16_)" fill-opacity="0.7" stroke-opacity="0.7"/>
<linearGradient gradientUnits="userSpaceOnUse" id="SVGID_17_" x1="20.3652" x2="20.3652" y1="22.5693" y2="25.4076">
<stop offset="0" style="stop-color:#FFC142"/>
<stop offset="0.7455" style="stop-color:#CF4E18"/>
<stop offset="1" style="stop-color:#B52100"/>
</linearGradient>
<path d="M21.219,24.751c0,0.36-0.291,0.651-0.651,0.651h-0.406c-0.358,0-0.65-0.291-0.65-0.651v-1.518  c0-0.36,0.292-0.651,0.65-0.651h0.406c0.36,0,0.651,0.291,0.651,0.651V24.751z" fill="url(#SVGID_17_)"/>
<rect fill="none" height="30" width="30"/>
</g>
</svg>
