<?xml version="1.0" encoding="UTF-8"?>
<!DOCTYPE svg PUBLIC "-//W3C//DTD SVG 1.1 Tiny//EN" "http://www.w3.org/Graphics/SVG/1.1/DTD/svg11-tiny.dtd">
<svg baseProfile="tiny" height="32" viewBox="0 0 32 32" width="32" xmlns="http://www.w3.org/2000/svg" xmlns:xlink="http://www.w3.org/1999/xlink">
<g transform="matrix(1 0 0 1 3 3)">
<path d="M13.001,26C5.832,26,0,20.169,0,13.001C0,5.832,5.832,0,13.001,0C20.169,0,26,5.832,26,13.001  C26,20.169,20.169,26,13.001,26L13.001,26z" fill-opacity="0.6" stroke-opacity="0.6"/>
<radialGradient cx="-456.3818" cy="-300.6348" gradientTransform="matrix(0.3502 0 0 0.3502 172.6504 114.022)" gradientUnits="userSpaceOnUse" id="SVGID_1_" r="42.3345">
<stop offset="0" style="stop-color:#94FFFF"/>
<stop offset="0.5" style="stop-color:#36B5FF"/>
<stop offset="1" style="stop-color:#1B66D8"/>
</radialGradient>
<circle cx="13" cy="13.001" fill="url(#SVGID_1_)" r="12"/>
<linearGradient gradientUnits="userSpaceOnUse" id="SVGID_2_" x1="1" x2="3.7539" y1="14.3691" y2="14.3691">
<stop offset="0" style="stop-color:#58595B"/>
<stop offset="1" style="stop-color:#000000"/>
</linearGradient>
<path d="M1.606,16.752l2.147-1.825v-1.414l-1.206-1.206l-0.221-0.234l-0.332-0.047  c0,0-0.284-0.039-0.411-0.039L1.051,11.99C1.023,12.324,1,12.66,1,13.001C1,14.313,1.218,15.57,1.606,16.752z" fill="url(#SVGID_2_)" fill-opacity="0.3" stroke-opacity="0.3"/>
<linearGradient gradientUnits="userSpaceOnUse" id="SVGID_3_" x1="4.2256" x2="24.8359" y1="11.4331" y2="11.4331">
<stop offset="0" style="stop-color:#58595B"/>
<stop offset="1" style="stop-color:#000000"/>
</linearGradient>
<path d="M16.332,1.479c-0.065,0.038-0.132,0.076-0.196,0.112  c-0.109-0.014-0.244-0.03-0.389-0.048l0.018-0.211C15.725,1.323,13.897,1,13.001,1c-2.824,0-5.415,0.982-7.465,2.615l1.286,0.428  c0.173,0.059,0.356,0.088,0.546,0.088c0.54,0,1.009-0.238,1.35-0.412c0.048-0.023,0.094-0.048,0.136-0.069  C8.919,3.658,8.984,3.662,9.05,3.662C8.969,3.827,8.907,3.981,8.878,4.148c-0.26,0.001-0.781,0.036-1.714,1.265L6.698,6.025  l0.227,0.291C4.815,7.957,4.799,8.055,4.746,8.385l-0.05,0.16c-0.426,1.327-0.618,2.221-0.342,2.862  c0.498,1.144,1.117,2.37,2.161,2.456c0.074,0.006,0.156,0.009,0.245,0.009c0.494,0,1.185-0.105,1.711-0.201  c0.016,0.03,0.318,0.577,0.318,0.577l0.717-0.021c0.21,0.68,0.461,1.609,0.487,2.009c-0.873,1.554,0.257,3.375,0.749,4.169  l0.064,0.106c0.152,0.424,0.517,1.248,1.479,1.248c0,0,0.949,0.107,1.125,0.107c0.524,0,0.98-0.184,1.357-0.546  c0.349-0.1,0.567-0.307,0.689-0.542c0.1-0.092,0.223-0.209,0.335-0.353c0.011-0.006,0.41-0.124,0.41-0.124l0.276-0.341  c0.026-0.032,0.038-0.065,0.06-0.098c0.034,0.054,0.055,0.111,0.1,0.163c0.241,0.277,0.582,0.43,0.958,0.43  c0.106,0,0.217-0.013,0.326-0.037c0.927-0.21,2.117-1.908,2.226-2.901c0.071-0.65-0.226-1.214-0.773-1.473l-0.636-0.299  l-0.617,0.617c-0.046-0.547-0.011-0.736,0.157-0.854c0,0,0.496-0.438,0.684-0.589c0.517-0.415,1.159-0.931,1.551-1.888  c0.1-0.256,0.286-0.738,0.138-1.222l0.969-0.93c1.034,2.417,1.305,2.825,2.036,2.837l0.636-0.015l0.3-0.361  c0.147-0.177,0.304-0.483,0.222-0.941c-0.011-0.202,0-0.797,0.019-1.322C24.088,6.474,20.736,2.75,16.332,1.479z" fill="url(#SVGID_3_)" fill-opacity="0.3" stroke-opacity="0.3"/>
<radialGradient cx="12.8745" cy="8.7515" gradientUnits="userSpaceOnUse" id="SVGID_4_" r="11.2241">
<stop offset="0" style="stop-color:#7AF200"/>
<stop offset="0.3152" style="stop-color:#7AF200"/>
<stop offset="1" style="stop-color:#1CAD0F"/>
</radialGradient>
<path d="M1.546,12.994L1.546,12.994c0,0.005,0.001,0.007,0.001,0.01c0,0.357,0.022,0.711,0.053,1.06  c0.011,0.114,0.027,0.229,0.04,0.344c0.03,0.239,0.066,0.477,0.109,0.711c0.024,0.124,0.047,0.25,0.073,0.372  c0.054,0.242,0.152,0.153,0.152,0.153l0.779-1.048v-0.669l-0.913-0.913C1.841,13.014,1.547,12.968,1.546,12.994z" fill="url(#SVGID_4_)"/>
<radialGradient cx="12.875" cy="7.3735" gradientUnits="userSpaceOnUse" id="SVGID_5_" r="12.4986">
<stop offset="0" style="stop-color:#7AF200"/>
<stop offset="0.3152" style="stop-color:#7AF200"/>
<stop offset="1" style="stop-color:#1CAD0F"/>
</radialGradient>
<path d="M8.88,2.634c0.337,0.11,0.613-0.115,0.927-0.315c0.111-0.022,1.345-0.515,1.478-0.515  s0.581-0.018,0.692-0.195c0,0,1.93,0.335,2.22,0.224C14.354,1.77,15.02,1.717,15.59,1.68c-0.031-0.007-0.062-0.017-0.093-0.023  c-0.031-0.006-0.062-0.011-0.093-0.017c-0.358-0.072-0.72-0.13-1.089-0.167c-0.003,0-0.005,0-0.009-0.001  c-0.387-0.039-0.78-0.06-1.179-0.06c-0.369,0-0.734,0.021-1.096,0.056c-0.063,0.007-0.127,0.014-0.19,0.021  c-0.35,0.038-0.695,0.089-1.034,0.157c-0.006,0.002-0.013,0.003-0.018,0.003c-0.354,0.073-0.698,0.163-1.036,0.267  C9.695,1.933,9.639,1.952,9.581,1.971C9.28,2.067,8.983,2.175,8.692,2.295C8.659,2.31,8.624,2.322,8.59,2.336  C8.27,2.473,7.958,2.624,7.653,2.787c-0.046,0.024-0.09,0.051-0.135,0.077c-0.131,0.072-0.253,0.153-0.38,0.23  C7.766,3.304,8.549,2.521,8.88,2.634z" fill="url(#SVGID_5_)"/>
<radialGradient cx="12.792" cy="7.4399" gradientUnits="userSpaceOnUse" id="SVGID_6_" r="12.4089">
<stop offset="0" style="stop-color:#7AF200"/>
<stop offset="0.3152" style="stop-color:#7AF200"/>
<stop offset="1" style="stop-color:#1CAD0F"/>
</radialGradient>
<path d="M19.984,8.141l0.656,0.281c0,0,0.12,0.108,0.453,0.453c0.272-0.022,0.771,0.302,1.018,0.615  c0.049,0.063,1.314,3.224,1.563,3.228c0.109,0,0.542-0.657,0.606-1.468c0.039-0.488-0.26-1.492-0.271-1.526  c-1.031-3.457-3.641-6.23-6.995-7.486c-0.25,0.147-0.678,0.389-0.678,0.389s-2.954-0.403-3.155-0.202  c-0.202,0.202-0.989,0.408-1.169,0.432c-0.178,0.022-0.549,0.118-0.104,0.667c-0.067,0.068-1.337,0.952-1.337,0.55  c0-0.403,0.283-1.122-0.115-0.737c-0.286,0.277-0.457,0.652-0.494,0.723c-0.094,0.18-0.15,0.266-0.084,0.78  C9.948,5.353,9.06,5.35,8.999,5.217C8.84,4.859,7.96,6.018,7.96,6.018l0.371,0.476c0,0-2.592,1.997-2.614,2.131  c-0.022,0.135-0.668,1.868-0.445,2.384c0.225,0.516,0.791,1.814,1.326,1.858c0.701,0.058,2.405-0.321,2.405-0.321  c0.046,0.113,0.366,0.684,0.366,0.684s0.835-0.027,0.882,0.063c0.016,0.03,1.006,2.943,0.679,3.33  c-0.779,1.168,0.446,2.88,0.787,3.459c0.342,0.995,0.562,0.55,1.011,0.713c0.553,0.048,1.019,0.252,1.488-0.352  c0.136-0.112,0.367-0.023,0.367-0.18c0-0.088,0.401-0.344,0.505-0.585c0.108-0.051,0.387-0.238,0.576-0.329  c0.172-0.011-0.163-0.471,0.177-0.958c0.368-0.145,1.359-0.813,1.359-0.813c0.045-0.979-0.482-2.19,0.502-2.886  c0.635-0.646,1.467-1.014,1.87-1.998c0.112-0.291,0.36-0.886-0.356-0.708c-0.673,0.17-1.425,0.208-1.068-0.089  c-0.042-0.364-0.489-0.535-0.891-0.892c-0.208-0.49-0.535-1.366-0.535-1.366l-0.713-1.084l1.194-0.274l0.484,0.813l0.938,0.984  c0.312,1.024,0.492,1.355,0.492,1.355c0.469-0.166,0.836-0.339,0.836-0.339l1.091-1.047c0,0-0.112-0.334-0.556-0.757l-0.797,0.081  L18.75,8.244l0.351-0.071L19.984,8.141z M13.352,3.05c0.089-0.265,0.602-0.354,0.602-0.354s0.325,0.294,0.359,0.435  s-0.407,0.38-0.438,0.713c-0.029,0.332-0.942-0.034-0.992-0.151C12.833,3.576,13.261,3.313,13.352,3.05z M15.549,7.533  C15.169,7.533,13,8.313,13,8.313l-1.595-1.225L9.667,7.542L8.854,7.125L8.338,6.651l1.02-0.35c0,0,0.822-0.676,1.067-0.877  c0.209-0.171,1.041-0.074,1.041-0.074l0.667-0.223l1.513,0.06l-0.564,0.604l0.794,0.542l0.367-0.33  c0.119,0.282,1.307,0.876,1.307,0.876s0.49-0.06,0.728,0.148C16.246,7.95,15.706,7.578,15.549,7.533z M16.417,6.042L14.531,5  l0.198-0.541l1.063,0.25L17,4.688L16.417,6.042z M17.771,6.167c0,0-0.171-0.582,0.453-0.9c0.771-0.097,0.984,0.421,0.984,0.421l1,1  l-0.271,0.646L17.771,6.167z" fill="url(#SVGID_6_)"/>
<radialGradient cx="12.875" cy="7.375" gradientUnits="userSpaceOnUse" id="SVGID_7_" r="12.5006">
<stop offset="0" style="stop-color:#7AF200"/>
<stop offset="0.3152" style="stop-color:#7AF200"/>
<stop offset="1" style="stop-color:#1CAD0F"/>
</radialGradient>
<path d="M18.949,16.95l-0.743,0.742c0,0-0.447,0-0.469,0.179c-0.01,0.076-0.035,0.407-0.11,0.578  c-0.148,0.104-0.327,0.445-0.327,0.445s-0.092,0.661,0.402,0.549C18.194,19.332,19.711,17.309,18.949,16.95z" fill="url(#SVGID_7_)"/>
</g>
</svg>
