<?xml version="1.0" encoding="UTF-8"?>
<!DOCTYPE svg PUBLIC "-//W3C//DTD SVG 1.1 Tiny//EN" "http://www.w3.org/Graphics/SVG/1.1/DTD/svg11-tiny.dtd">
<svg xmlns="http://www.w3.org/2000/svg" xmlns:xlink="http://www.w3.org/1999/xlink" baseProfile="tiny" height="16px" version="1.1" viewBox="0 0 16 16" width="16px" x="0px" y="0px">
<path d="M0,8c0,4.411,3.59,8,8,8c4.412,0,8-3.589,8-8s-3.588-8-8-8C3.59,0,0,3.589,0,8z" fill="#030303" fill-opacity="0.7" stroke-opacity="0.7"/>
<linearGradient gradientUnits="userSpaceOnUse" id="SVGID_1_" x1="8.0059" x2="8.0059" y1="1.0044" y2="36.368">
<stop offset="0" style="stop-color:#FFF2A9"/>
<stop offset="0.1337" style="stop-color:#FFE89A"/>
<stop offset="0.3918" style="stop-color:#FFCF72"/>
<stop offset="0.7449" style="stop-color:#FFA732"/>
<stop offset="1" style="stop-color:#FF8800"/>
</linearGradient>
<path d="M1.006,8c0,3.859,3.141,7,7,7c3.859,0,7-3.141,7-7c0-1.782-3.141-6.625-7-6.625  C4.147,1.375,1.006,5.59,1.006,8z" fill="url(#SVGID_1_)"/>
<circle cx="4.199" cy="7.218" r="1"/>
<circle cx="7.855" cy="7.218" r="1"/>
<linearGradient gradientUnits="userSpaceOnUse" id="SVGID_2_" x1="9.8877" x2="9.8877" y1="2.8271" y2="15.285">
<stop offset="0" style="stop-color:#3687FF"/>
<stop offset="1" style="stop-color:#051F7D"/>
</linearGradient>
<path d="M13.057,4.552c-1.094,0-1.982,1.252-1.982,2.798c0,0.848,0.273,1.601,0.697,2.113  c-0.258,0.365-1.563,2.127-4.104,2.153v-0.418H4.734v1.738h2.935v-0.699c2.81,0.019,4.206-0.669,5.237-2.113  c0.219,0.111,2.031-0.097,2.135-2.776C15.043,5.804,14.152,4.552,13.057,4.552z" fill="url(#SVGID_2_)"/>
<linearGradient gradientUnits="userSpaceOnUse" id="SVGID_3_" x1="7.7612" x2="7.7612" y1="-2.0005" y2="7.0004">
<stop offset="0" style="stop-color:#FFE23D"/>
<stop offset="0.2239" style="stop-color:#FAD337"/>
<stop offset="0.6537" style="stop-color:#EFAB26"/>
<stop offset="1" style="stop-color:#E48717"/>
</linearGradient>
<path d="M6.365,5.244c2.934-0.2,3.754-0.931,4.258-0.882c0.195,0.019,0.672,0.333,1.119,0.907  c1.217-1.407,2.404-0.407,2.781,0.209C13.508,2.862,10.971,1,8,1C4.14,1,1,4.14,1,8c0,0.15,0.013,0.298,0.022,0.446  C1.248,7.587,1.792,5.544,2.281,5C2.86,4.357,3.453,5.443,6.365,5.244z" fill="url(#SVGID_3_)"/>
<path d="M6.365,5.244c2.934-0.2,3.754-0.931,4.258-0.882c0.195,0.019,0.672,0.333,1.119,0.907  c1.217-1.407,2.404-0.407,2.781,0.209C13.508,2.862,10.971,1,8,1C4.14,1,1,4.14,1,8c0,0.15,0.013,0.298,0.022,0.446  C1.248,7.587,1.792,5.544,2.281,5C2.86,4.357,3.453,5.443,6.365,5.244z" fill-opacity="0.5" stroke-opacity="0.5"/>
<path d="M14.996,7.932c-0.412,2.409-2.039,2.198-2.09,2.193c-1.406,1.757-2.844,2.132-5.237,2.113v0.699H5.093v0.446  h2.935v-0.698c1.932-0.138,3.516,0.008,5.238-2.113c0.191,0.124,0.926-0.085,1.48-0.73C14.906,9.254,15,8.638,15,8  C15,7.978,14.996,7.954,14.996,7.932z" fill-opacity="0.4" stroke-opacity="0.4"/>
<polygon fill="none" points="16,16 0.008,16 0,0 15.992,0 "/>
</svg>
