<?xml version="1.0" encoding="UTF-8"?>
<!DOCTYPE svg PUBLIC "-//W3C//DTD SVG 1.1 Tiny//EN" "http://www.w3.org/Graphics/SVG/1.1/DTD/svg11-tiny.dtd">
<svg baseProfile="tiny" height="16px" version="1.1" viewBox="0 0 16 16" width="16px" x="0px" xmlns="http://www.w3.org/2000/svg" xmlns:xlink="http://www.w3.org/1999/xlink" y="0px">
<g>
<rect fill="none" height="16" width="16"/>
<path d="M14.999,1.999H1c-0.552,0-1,0.448-1,1v10.002c0,0.552,0.448,1,1,1h2v0.997c0,0.927,1.104,1.313,1.707,0.708   l1.708-1.705h8.584c0.552,0,1-0.448,1-1V2.999C15.999,2.447,15.551,1.999,14.999,1.999z" fill-opacity="0.7" stroke-opacity="0.7"/>
<polygon fill="url(#SVGID_1_)" points="15,3 15,13 6,13 4,15 4,13 1,13 1,3  "/>
<rect fill-opacity="0.5" height="1" stroke-opacity="0.5" width="10" x="3" y="6"/>
<rect fill-opacity="0.5" height="1" stroke-opacity="0.5" width="7" x="3" y="9"/>
<defs>
<linearGradient gradientUnits="userSpaceOnUse" id="SVGID_1_" x1="8" x2="8" y1="1.5" y2="16.5">
<stop offset="0" style="stop-color:#FFE23D"/>
<stop offset="0.2239" style="stop-color:#FAD337"/>
<stop offset="0.6537" style="stop-color:#EFAB26"/>
<stop offset="1" style="stop-color:#E48717"/>
</linearGradient>
</defs>
</g>
</svg>
