<?xml version="1.0" encoding="UTF-8"?>
<!DOCTYPE svg PUBLIC "-//W3C//DTD SVG 1.1 Tiny//EN" "http://www.w3.org/Graphics/SVG/1.1/DTD/svg11-tiny.dtd">
<svg xmlns="http://www.w3.org/2000/svg" xmlns:xlink="http://www.w3.org/1999/xlink" baseProfile="tiny" height="15.997px" version="1.1" viewBox="0 0 16 15.997" width="16px" x="0px" y="0px">
<path d="M13.74,8.839c0.131-0.479,0.211-0.979,0.236-1.494c0.326-1.067,0.248-2.101-0.249-2.932  c-0.146-0.243-0.327-0.453-0.528-0.639C12.032,1.535,9.691,0,6.997,0C3.14,0,0.003,3.14,0.003,6.999  c0,3.704,2.892,6.737,6.534,6.975c0.301,1.815,3.368,2.021,4.709,2.021c1.099,0,4.689-0.16,4.742-2.229  C16.027,12.569,16.098,9.991,13.74,8.839z" fill="#030303" fill-opacity="0.7" stroke-opacity="0.7"/>
<linearGradient gradientUnits="userSpaceOnUse" id="SVGID_1_" x1="6.9971" x2="6.9971" y1="1.8945" y2="17.6041">
<stop offset="0" style="stop-color:#3687FF"/>
<stop offset="1" style="stop-color:#051F7D"/>
</linearGradient>
<circle cx="6.997" cy="6.999" fill="url(#SVGID_1_)" r="5.995"/>
<linearGradient gradientUnits="userSpaceOnUse" id="SVGID_2_" x1="6.9971" x2="6.9971" y1="6.3228" y2="78.9478">
<stop offset="0" style="stop-color:#79CD19"/>
<stop offset="1" style="stop-color:#1B6332"/>
</linearGradient>
<path d="M8.795,5.201c0,0-0.027,0.6,0.601,0.6c0.599,0,0.599-0.6,0.599-1.201C9.994,4,9.994,4,10.594,4h1.591  c-0.805-1.391-2.151-2.424-3.75-2.818L7.596,1.6v1.201l0.601,0.6l0.598-0.6l-0.598-0.6h0.598l0.601,0.6c0,0-1.015,1.016-1.199,1.199  c-0.601,0.599,0,0.599,0,0.599h0.598V5.201z M12.992,6.999c0-0.626-0.098-1.231-0.275-1.798L9.396,6.399c0,0-0.601,0-0.601,0.599  V8.2c0,0.6,0.601,0.6,0.601,0.6h1.198c0,0,0,0.199,0,0.598c0,0.6,0.6,0.6,0.601,0.6c0,0,0,0.75,0,1.283  C12.303,10.19,12.992,8.677,12.992,6.999z M5.417,1.22C2.874,1.915,1.002,4.236,1.002,6.999L2.8,8.8v0.598  C3.172,9.771,4,10.597,4,10.597v1.592c0.55,0.318,1.153,0.559,1.797,0.689v-1.08c0.6,0,0.6-0.6,0.6-0.6V8.8c0-0.6-0.6-0.6-0.6-0.6  H5.199c-0.6-0.602-0.6-0.602-1.199,0H3.4L2.8,7.599v-0.6C2.587,6.786,2.201,6.399,2.201,6.399V5.8H2.8l0.6,0.599v0.599  c0,0.6,0.6,0.6,0.6,0V5.8l0.599-1.201c0,0,0.2,0,0.6,0C5.797,4.599,5.797,4,5.797,4s0-0.6-0.599-0.6h-0.6c-0.599,0-0.599-0.6,0-0.6  h0.6l1.199,0.6c0.6-0.6,0-1.199,0-1.199C6.374,2.178,5.754,1.557,5.417,1.22z" fill="url(#SVGID_2_)"/>
<path d="M11.479,3.024C11.395,3.017,11.313,3,11.229,3c-1.013,0-1.932,0.524-2.456,1.401  c-0.654,1.097-0.595,2.531,0.16,3.936c0.066,0.125,0.137,0.23,0.206,0.336c-2.262,0.865-2.612,2.893-2.641,4.299  c0.165,0.014,0.331,0.025,0.5,0.025c3.312,0,5.995-2.686,5.995-5.999C12.992,5.473,12.418,4.083,11.479,3.024z" fill-opacity="0.6" stroke-opacity="0.6"/>
<linearGradient gradientUnits="userSpaceOnUse" id="SVGID_3_" x1="11.2461" x2="11.2461" y1="7.7363" y2="16.7766">
<stop offset="0" style="stop-color:#A1CD3A"/>
<stop offset="0.3022" style="stop-color:#A1CD3A"/>
<stop offset="1" style="stop-color:#328A43"/>
</linearGradient>
<path d="M12.245,9.384c-0.628,0.387-1.347,0.441-2.05,0.012c-2.491,0.525-2.757,2.361-2.691,4.338  c0.097,1.696,7.442,1.67,7.484,0C15.049,11.86,14.852,9.895,12.245,9.384z" fill="url(#SVGID_3_)"/>
<linearGradient gradientUnits="userSpaceOnUse" id="SVGID_4_" x1="11.248" x2="11.248" y1="3.8657" y2="16.7059">
<stop offset="0" style="stop-color:#FFF2A9"/>
<stop offset="0.1337" style="stop-color:#FFE89A"/>
<stop offset="0.3918" style="stop-color:#FFCF72"/>
<stop offset="0.7449" style="stop-color:#FFA732"/>
<stop offset="1" style="stop-color:#FF8800"/>
</linearGradient>
<path d="M12.679,7.868c1.203-2.235,0.024-3.867-1.433-3.867C11.24,4.001,11.235,4,11.227,4  C9.766,4,8.631,5.665,9.814,7.868C10.568,9.282,11.791,9.331,12.679,7.868z" fill="url(#SVGID_4_)"/>
<polygon fill="none" points="15.997,15.997 0.008,15.997 0,0 15.989,0 "/>
</svg>
