<?xml version="1.0" encoding="UTF-8"?>
<!DOCTYPE svg PUBLIC "-//W3C//DTD SVG 1.1 Tiny//EN" "http://www.w3.org/Graphics/SVG/1.1/DTD/svg11-tiny.dtd">
<svg baseProfile="tiny" height="36px" version="1.1" viewBox="0 0 42 36" width="42px" x="0px" xmlns="http://www.w3.org/2000/svg" xmlns:xlink="http://www.w3.org/1999/xlink" y="0px">
<path d="M36,28c0,0.552-0.447,1-1,1H6c-0.553,0-1-0.448-1-1V8c0-0.552,0.447-1,1-1h29c0.553,0,1,0.448,1,1V28z" fill-opacity="0.2" stroke-opacity="0.2"/>
<rect fill-opacity="0.5" height="1.614" stroke-opacity="0.5" width="28.998" x="6.002" y="26.389"/>
<rect fill="none" height="36" width="42"/>
<linearGradient gradientUnits="userSpaceOnUse" id="SVGID_1_" x1="20.5005" x2="20.5005" y1="6.8789" y2="34.3729">
<stop offset="0" style="stop-color:#FFE23D"/>
<stop offset="0.2239" style="stop-color:#FAD337"/>
<stop offset="0.6537" style="stop-color:#EFAB26"/>
<stop offset="1" style="stop-color:#E48717"/>
</linearGradient>
<rect fill="url(#SVGID_1_)" height="20.004" width="28.998" x="6.002" y="7.001"/>
<polygon fill-opacity="0.2" points="24.604,15.632 23.974,16.432 35,26.992 35,25.586 " stroke-opacity="0.2"/>
<polygon fill="#FFFFFF" fill-opacity="0.3" points="16.452,15.622 6.002,25.579 6.002,26.983 17.085,16.424   " stroke-opacity="0.3"/>
<linearGradient gradientUnits="userSpaceOnUse" id="SVGID_2_" x1="20.5005" x2="20.5005" y1="6.7666" y2="31.1066">
<stop offset="0" style="stop-color:#FFE23D"/>
<stop offset="0.2239" style="stop-color:#FAD337"/>
<stop offset="0.6537" style="stop-color:#EFAB26"/>
<stop offset="1" style="stop-color:#E48717"/>
</linearGradient>
<path d="M6.002,8.24l12.956,9.568c0,0,1.498,1.181,3.164,0L35,8.24V7.001H6.002V8.24z" fill="url(#SVGID_2_)"/>
<path d="M22.567,18.772c-1.253,0.954-2.958,0.827-4.07-0.01L6.002,9.532v1.293l12.099,8.94  c1.696,1.068,3.282,1.154,4.918-0.028L35,10.843V9.547L22.567,18.772z" fill-opacity="0.2" stroke-opacity="0.2"/>
<path d="M22.122,17.809c-1.666,1.181-3.164,0-3.164,0L6.002,8.24v1.292l12.495,9.23  c1.519,1.056,3.066,0.725,4.07,0.01L35,9.547V8.24L22.122,17.809z" fill-opacity="0.4" stroke-opacity="0.4"/>
</svg>
