<?xml version="1.0" encoding="UTF-8"?>
<!DOCTYPE svg PUBLIC "-//W3C//DTD SVG 1.1 Tiny//EN" "http://www.w3.org/Graphics/SVG/1.1/DTD/svg11-tiny.dtd">
<svg xmlns="http://www.w3.org/2000/svg" xmlns:xlink="http://www.w3.org/1999/xlink" baseProfile="tiny" height="16px" version="1.1" viewBox="0 0 16 16" width="16px" x="0px" y="0px">
<rect fill="none" height="16" width="16"/>
<path d="M11.908,2c-0.4-1.154-2.182-1.498-2.816,0H6.908C6.414,0.721,4.695,0.596,4.092,2H1v12  c0,0.552,0.447,1,1,1h12c0.553,0,1-0.448,1-1V2H11.908z" fill="#020202" fill-opacity="0.7" stroke-opacity="0.7"/>
<linearGradient gradientUnits="userSpaceOnUse" id="SVGID_1_" x1="7.9995" x2="7.9995" y1="-5" y2="9">
<stop offset="0" style="stop-color:#FFFFFF"/>
<stop offset="1" style="stop-color:#B3B2B2"/>
</linearGradient>
<rect fill="url(#SVGID_1_)" height="11" width="12" x="2" y="3"/>
<linearGradient gradientUnits="userSpaceOnUse" id="SVGID_2_" x1="7.9995" x2="7.9995" y1="4.7427" y2="40.5969">
<stop offset="0" style="stop-color:#FFFFFF"/>
<stop offset="1" style="stop-color:#B2B2C9"/>
</linearGradient>
<rect fill="url(#SVGID_2_)" height="9" width="10" x="3" y="4"/>
<linearGradient gradientUnits="userSpaceOnUse" id="SVGID_3_" x1="5.1396" x2="5.7622" y1="3.4976" y2="3.4976">
<stop offset="0" style="stop-color:#B3B2B2"/>
<stop offset="0.1999" style="stop-color:#ADACAC"/>
<stop offset="0.4615" style="stop-color:#9D9C9C"/>
<stop offset="0.756" style="stop-color:#828282"/>
<stop offset="1" style="stop-color:#666666"/>
</linearGradient>
<path d="M6,4.499c-0.086,0.69-1,0.612-1,0V2.5c0-0.576,0.914-0.732,1,0V4.499z" fill="url(#SVGID_3_)"/>
<linearGradient gradientUnits="userSpaceOnUse" id="SVGID_4_" x1="10.1396" x2="10.7622" y1="3.4985" y2="3.4985">
<stop offset="0" style="stop-color:#B3B2B2"/>
<stop offset="0.1999" style="stop-color:#ADACAC"/>
<stop offset="0.4615" style="stop-color:#9D9C9C"/>
<stop offset="0.756" style="stop-color:#828282"/>
<stop offset="1" style="stop-color:#666666"/>
</linearGradient>
<path d="M11,4.499c-0.039,0.659-0.945,0.675-1,0V2.5c0.055-0.686,0.961-0.654,1,0V4.499z" fill="url(#SVGID_4_)"/>
<linearGradient gradientUnits="userSpaceOnUse" id="SVGID_5_" x1="6.3198" x2="6.3198" y1="1" y2="9">
<stop offset="0" style="stop-color:#E4282A"/>
<stop offset="0.3558" style="stop-color:#C92325"/>
<stop offset="1" style="stop-color:#911A1C"/>
</linearGradient>
<polygon fill="url(#SVGID_5_)" points="6.821,6.343 6.309,6.343 4.964,6.762 4.964,7.269 5.872,7.073 5.872,10.161 4.964,10.161   4.964,10.669 7.676,10.669 7.676,10.161 6.821,10.161 "/>
<linearGradient gradientUnits="userSpaceOnUse" id="SVGID_6_" x1="9.6748" x2="9.6748" y1="1" y2="9">
<stop offset="0" style="stop-color:#E4282A"/>
<stop offset="0.3558" style="stop-color:#C92325"/>
<stop offset="1" style="stop-color:#911A1C"/>
</linearGradient>
<path d="M9.227,10.098c0.041-0.466,0.389-0.777,0.92-1.227c0.502-0.425,0.855-0.76,0.855-1.396  c0-0.796-0.531-1.145-1.393-1.145c-0.389,0-0.771,0.064-1.149,0.178v0.583c0.284-0.1,0.577-0.194,0.909-0.194  c0.465,0,0.658,0.218,0.658,0.613c0,0.366-0.229,0.59-0.602,0.901c-0.549,0.46-1.113,1.016-1.113,1.881v0.377h2.725v-0.571H9.227z" fill="url(#SVGID_6_)"/>
</svg>
