<?xml version="1.0" encoding="UTF-8"?>
<!DOCTYPE svg PUBLIC "-//W3C//DTD SVG 1.1 Tiny//EN" "http://www.w3.org/Graphics/SVG/1.1/DTD/svg11-tiny.dtd">
<svg baseProfile="tiny" height="16px" version="1.1" viewBox="0 0 16 16" width="16px" x="0px" xmlns="http://www.w3.org/2000/svg" xmlns:xlink="http://www.w3.org/1999/xlink" y="0px">
<g>
<polygon fill="none" points="16,16 0.008,16 0,0 16,0  "/>
<path d="M13.413,4.211C12.333,1.736,9.865,0,6.998,0C3.14,0,0,3.141,0,7.001   c0,2.892,1.762,5.38,4.269,6.446c0.199,0.77,0.587,1.475,1.145,2.027c0.563,0.664,1.503,0.594,2.068-0.049l1.241-1.648   c2.478-0.631,4.426-2.585,5.053-5.066c0,0,1.753-1.317,1.777-1.34C16.485,6.133,16,5.176,13.413,4.211z" fill="#030303" fill-opacity="0.7" stroke-opacity="0.7"/>
<linearGradient gradientUnits="userSpaceOnUse" id="SVGID_1_" x1="6.9971" x2="6.9971" y1="1.8936" y2="17.6076">
<stop offset="0" style="stop-color:#3687FF"/>
<stop offset="1" style="stop-color:#051F7D"/>
</linearGradient>
<circle cx="6.997" cy="7" fill="url(#SVGID_1_)" r="5.999"/>
<linearGradient gradientUnits="userSpaceOnUse" id="SVGID_2_" x1="6.9873" x2="6.9873" y1="7.7969" y2="19.4117">
<stop offset="0" style="stop-color:#79CD19"/>
<stop offset="1" style="stop-color:#1B6332"/>
</linearGradient>
<path d="M8.789,5.201c0,0.914,1.2,0.805,1.2,0.033c0-0.338,0-0.033,0-0.635c0-0.6,0-0.6,0.6-0.6h1.604   c-0.74-1.15-1.749-2.321-3.766-2.818L7.589,1.6v1.201L8.19,3.4l0.599-0.6l-0.599-0.6h0.599l0.601,0.6c0,0-1.016,1.016-1.199,1.199   c-0.601,0.6,0,0.6,0,0.6h0.599C8.789,4.6,8.789,4.803,8.789,5.201z M12.958,6.4H9.389c0,0-0.601,0-0.601,0.6v1.838h1.8V9.4   c0,0.6,0.6,0.6,0.601,0.6c0,0,0,0.748,0,1.281c0.001-0.001,0.003-0.002,0.005-0.004c0.568-0.559,1.024-1.23,1.334-1.979   c0.001,0,0.001,0,0.002,0C13.136,7.842,12.958,6.4,12.958,6.4z M5.409,1.219C2.689,1.961,0.992,4.434,0.992,7L2.79,8.801v0.6   C3.163,9.773,3.991,10.6,3.991,10.6s0.004,1.594,0.006,1.596c1.172,0.701,2.392,0.774,2.392,0.774V8.801c0-0.6-0.601-0.6-0.601-0.6   H5.191C4.59,7.6,4.59,7.6,3.991,8.201H3.39L2.79,7.6V7C2.577,6.787,2.191,6.4,2.191,6.4v-0.6H2.79L3.39,6.4V7   c0,0.6,0.601,0.6,0.601,0V5.801L4.59,4.6c0,0,0.2,0,0.601,0c0.762,0,0.825-1.199,0-1.199H4.59c-0.6,0-0.6-0.6,0-0.6h0.601   l1.198,0.6c0.601-0.6,0-1.199,0-1.199C6.366,2.178,5.746,1.557,5.409,1.219z" fill="url(#SVGID_2_)"/>
<path d="M12.229,4.069c-0.696,0.013-0.87,0.12-1.007,0.218c-1.459,0.949-4.615,3.824-6.863,6.855   c-0.231,0.305-0.238,0.715-0.238,1.122c1.724,0.991,3.843,0.857,5.216,0.263c0.003-0.39-0.173-0.733-0.402-0.965   c-0.002-0.002-0.134-0.141-0.277-0.365l2.592-2.592c0.225,0.143,0.361,0.272,0.361,0.272c0.335,0.333,0.687,0.407,0.933,0.411   C13.172,7.912,13.188,5.631,12.229,4.069z" fill-opacity="0.6" stroke-opacity="0.6"/>
<linearGradient gradientUnits="userSpaceOnUse" id="SVGID_3_" x1="10.0542" x2="10.0542" y1="8.1016" y2="25.5852">
<stop offset="0" style="stop-color:#3687FF"/>
<stop offset="1" style="stop-color:#051F7D"/>
</linearGradient>
<path d="M12.316,8.171c0,0-0.512-0.512-1.281-0.766l-3.582,3.582c0.256,0.768,0.769,1.279,0.769,1.279   c0.207,0.207,0.104,0.381,0,0.512l-1.539,2.045c-0.187,0.207-0.439,0.086-0.51,0.002l0,0c-0.837-0.836-1.177-1.982-1.022-3.07   v-0.002c1.628-2.282,4.722-5.329,6.652-6.652V5.099c1.09-0.154,2.235,0.188,3.073,1.025c0.082,0.068,0.221,0.307,0,0.512   l-2.048,1.535C12.697,8.274,12.523,8.378,12.316,8.171L12.316,8.171z" fill="url(#SVGID_3_)"/>
</g>
</svg>
