<?xml version="1.0" encoding="UTF-8"?>
<!DOCTYPE svg PUBLIC "-//W3C//DTD SVG 1.1 Tiny//EN" "http://www.w3.org/Graphics/SVG/1.1/DTD/svg11-tiny.dtd">
<svg xmlns="http://www.w3.org/2000/svg" xmlns:xlink="http://www.w3.org/1999/xlink" baseProfile="tiny" height="16px" version="1.1" viewBox="0 0 16 16" width="16px" x="0px" y="0px">
<path d="M13.998,3.101h-1.193C11.547,1.232,9.413,0,6.996,0C3.138,0,0,3.141,0,7  c0,3.858,3.138,6.999,6.996,6.999c0.036,0,0.071-0.005,0.107-0.005v0.005c0,1.103,0.898,2.001,2,2.001h4.896  c1.104,0,2.002-0.898,2.002-2.001V5.1C16,3.999,15.102,3.101,13.998,3.101z" fill="#030303" fill-opacity="0.7" stroke-opacity="0.7"/>
<linearGradient gradientUnits="userSpaceOnUse" id="SVGID_1_" x1="6.9985" x2="6.9985" y1="1.8965" y2="17.606">
<stop offset="0" style="stop-color:#3687FF"/>
<stop offset="1" style="stop-color:#051F7D"/>
</linearGradient>
<circle cx="6.999" cy="7.001" fill="url(#SVGID_1_)" r="5.996"/>
<linearGradient gradientUnits="userSpaceOnUse" id="SVGID_2_" x1="6.5874" x2="6.5874" y1="6.2993" y2="78.9244">
<stop offset="0" style="stop-color:#79CD19"/>
<stop offset="1" style="stop-color:#1B6332"/>
</linearGradient>
<path d="M9.99,4.576c0-0.599,0-0.599,0.6-0.599h1.59c-0.805-1.391-2.15-2.424-3.751-2.818L7.591,1.577v1.201  l0.601,0.6l0.598-0.6l-0.598-0.6H8.79l0.6,0.6c0,0-1.015,1.016-1.198,1.199c-0.601,0.599,0,0.599,0,0.599H8.79  C8.79,4.576,9.99,5.178,9.99,4.576z M5.411,1.196C2.868,1.891,0.996,4.213,0.996,6.976l1.797,1.801v0.6  c0.373,0.373,1.201,1.198,1.201,1.198v1.591c0.55,0.318,1.153,0.559,1.797,0.689v-1.079c0.601,0,0.601-0.6,0.601-0.6V8.776  c0-0.6-0.601-0.6-0.601-0.6H5.193c-0.601-0.602-0.601-0.602-1.199,0h-0.6L2.793,7.575v-0.6C2.581,6.763,2.195,6.376,2.195,6.376  v-0.6h0.598l0.601,0.6v0.599c0,0.6,0.6,0.6,0.6,0V5.777l0.599-1.201c0,0,0.2,0,0.601,0c0.598,0,0.598-0.599,0.598-0.599  s0-0.6-0.598-0.6H4.593c-0.599,0-0.599-0.6,0-0.6h0.601l1.199,0.6c0.6-0.6,0-1.199,0-1.199C6.369,2.155,5.749,1.534,5.411,1.196z" fill="url(#SVGID_2_)"/>
<path d="M9.032,3.044c-1.1,0.122-1.928,1.007-1.928,2.057v7.893c3.263-0.058,5.89-2.715,5.89-5.993  c0-1.521-0.57-2.907-1.504-3.964L9.032,3.044z" fill-opacity="0.4" stroke-opacity="0.4"/>
<linearGradient gradientUnits="userSpaceOnUse" id="SVGID_3_" x1="11.5527" x2="11.5527" y1="7.959" y2="21.0344">
<stop offset="0" style="stop-color:#3687FF"/>
<stop offset="1" style="stop-color:#051F7D"/>
</linearGradient>
<path d="M9.143,4.037C8.552,4.102,8.104,4.55,8.104,5.102v8.897c0,0.553,0.448,1,0.999,1h4.898  c0.551,0,0.998-0.447,0.998-1V5.102c0-0.552-0.447-1-0.961-1.065H9.143z" fill="url(#SVGID_3_)"/>
<linearGradient gradientUnits="userSpaceOnUse" id="SVGID_4_" x1="11.5459" x2="11.5459" y1="2.4189" y2="16.5984">
<stop offset="0" style="stop-color:#F2F2F2"/>
<stop offset="0.1364" style="stop-color:#E4EDF0"/>
<stop offset="0.3929" style="stop-color:#C0DFEB"/>
<stop offset="0.7391" style="stop-color:#86C8E3"/>
<stop offset="0.9945" style="stop-color:#57B6DD"/>
<stop offset="1" style="stop-color:#57B6DD"/>
</linearGradient>
<rect fill="url(#SVGID_4_)" height="6.897" width="4.896" x="9.098" y="5.102"/>
<linearGradient gradientUnits="userSpaceOnUse" id="SVGID_5_" x1="11.5459" x2="11.5459" y1="12.999" y2="13.999">
<stop offset="0" style="stop-color:#FFFFFF"/>
<stop offset="1" style="stop-color:#B2B2B2"/>
</linearGradient>
<rect fill="url(#SVGID_5_)" height="1" width="0.9" x="11.096" y="12.999"/>
<polygon fill="none" points="16,16 0.008,16 0,0.002 15.992,0.002 "/>
</svg>
