<?xml version="1.0" encoding="UTF-8"?>
<!DOCTYPE svg PUBLIC "-//W3C//DTD SVG 1.1 Tiny//EN" "http://www.w3.org/Graphics/SVG/1.1/DTD/svg11-tiny.dtd">
<svg xmlns="http://www.w3.org/2000/svg" xmlns:xlink="http://www.w3.org/1999/xlink" baseProfile="tiny" height="16px" version="1.1" viewBox="0 0 16 16" width="16px" x="0px" y="0px">
<path d="M15,9h-1V6.059c0.314-0.416,0.5-0.945,0.5-1.559c0-2.012-1.797-3.291-2.5-3.701  c-0.679,0.411-1.441,0.984-2,1.953C9.441,1.783,8.684,1.273,8,0.799C7.28,1.252,6.559,1.783,6,2.752  C5.441,1.783,4.516,1.125,4,0.799C3.346,1.167,1.5,2.488,1.5,4.5c0,0.613,0.186,1.143,0.5,1.559V9H1c-0.553,0-1,0.449-1,1v5  c0,0.553,0.447,1,1,1h14c0.553,0,1-0.447,1-1v-5C16,9.449,15.553,9,15,9z" fill="#030303" fill-opacity="0.7" stroke-opacity="0.7"/>
<rect fill="none" height="16" width="16"/>
<rect fill="#FFFFFF" height="3.148" width="2" x="11" y="7"/>
<rect fill="#FFFFFF" height="3.148" width="2" x="3" y="7"/>
<rect fill="#FFFFFF" height="3.148" width="2" x="7" y="7"/>
<linearGradient gradientUnits="userSpaceOnUse" id="SVGID_1_" x1="8" x2="8" y1="0.4072" y2="14.8359">
<stop offset="0" style="stop-color:#FFE23D"/>
<stop offset="0.2239" style="stop-color:#FAD337"/>
<stop offset="0.6537" style="stop-color:#EFAB26"/>
<stop offset="1" style="stop-color:#E48717"/>
</linearGradient>
<rect fill="url(#SVGID_1_)" height="5" width="14" x="1" y="10"/>
<linearGradient gradientUnits="userSpaceOnUse" id="SVGID_2_" x1="4" x2="4" y1="3.6113" y2="7.2783">
<stop offset="0" style="stop-color:#FFE23D"/>
<stop offset="0.2239" style="stop-color:#FAD337"/>
<stop offset="0.6537" style="stop-color:#EFAB26"/>
<stop offset="1" style="stop-color:#E48717"/>
</linearGradient>
<path d="M2.5,4.5C2.5,5.328,3,6,4,6s1.5-0.672,1.5-1.5C5.5,3,4,2,4,2S2.5,3,2.5,4.5z" fill="url(#SVGID_2_)"/>
<linearGradient gradientUnits="userSpaceOnUse" id="SVGID_3_" x1="8" x2="8" y1="3.6113" y2="7.2783">
<stop offset="0" style="stop-color:#FFE23D"/>
<stop offset="0.2239" style="stop-color:#FAD337"/>
<stop offset="0.6537" style="stop-color:#EFAB26"/>
<stop offset="1" style="stop-color:#E48717"/>
</linearGradient>
<path d="M6.5,4.5C6.5,5.328,7,6,8,6s1.5-0.672,1.5-1.5C9.5,3,8,2,8,2S6.5,3,6.5,4.5z" fill="url(#SVGID_3_)"/>
<linearGradient gradientUnits="userSpaceOnUse" id="SVGID_4_" x1="12" x2="12" y1="3.6113" y2="7.2783">
<stop offset="0" style="stop-color:#FFE23D"/>
<stop offset="0.2239" style="stop-color:#FAD337"/>
<stop offset="0.6537" style="stop-color:#EFAB26"/>
<stop offset="1" style="stop-color:#E48717"/>
</linearGradient>
<path d="M10.5,4.5C10.5,5.328,11,6,12,6s1.5-0.672,1.5-1.5C13.5,3,12,2,12,2S10.5,3,10.5,4.5z" fill="url(#SVGID_4_)"/>
</svg>
