<?xml version="1.0" encoding="UTF-8"?>
<!DOCTYPE svg PUBLIC "-//W3C//DTD SVG 1.1 Tiny//EN" "http://www.w3.org/Graphics/SVG/1.1/DTD/svg11-tiny.dtd">
<svg xmlns="http://www.w3.org/2000/svg" xmlns:xlink="http://www.w3.org/1999/xlink" baseProfile="tiny" height="16px" version="1.1" viewBox="0 0 16 16" width="16px" x="0px" y="0px">
<polygon fill="none" points="16,16 0.008,16 0,0 15.994,0 "/>
<path d="M14.5,5h-13C0.336,5,0,5.982,0,6.5v5.491h16V6.5C16,5.965,15.605,5,14.5,5z" fill="#030303" fill-opacity="0.7" stroke-opacity="0.7"/>
<path d="M14.5,6h-13C1.224,6,1,6.224,1,6.5c0,0-0.002,3.744-0.002,4.5H15V6.5C15,6.224,14.775,6,14.5,6z" fill="url(#SVGID_1_)"/>
<rect fill="#79CD19" height="1" width="1" x="11.5" y="7.5"/>
<rect fill="#79CD19" height="1" width="1" x="13" y="7.5"/>
<rect fill="#FFE23D" height="1" width="1" x="10" y="7.5"/>
<rect fill="#FFE23D" height="1" width="1" x="11.5" y="9"/>
<rect fill="#FFE23D" height="1" width="1" x="13" y="9"/>
<rect fill="#79CD19" height="1" width="1" x="10" y="9"/>
<defs>
<linearGradient gradientUnits="userSpaceOnUse" id="SVGID_1_" x1="7.9985" x2="7.9985" y1="2.9995" y2="15.0007">
<stop offset="0" style="stop-color:#E3E3E3"/>
<stop offset="1" style="stop-color:#404040"/>
</linearGradient>
</defs>
</svg>
