<?xml version="1.0" encoding="UTF-8"?>
<!DOCTYPE svg PUBLIC "-//W3C//DTD SVG 1.1 Tiny//EN" "http://www.w3.org/Graphics/SVG/1.1/DTD/svg11-tiny.dtd">
<svg baseProfile="tiny" height="36px" version="1.1" viewBox="0 0 42 36" width="42px" x="0px" xmlns="http://www.w3.org/2000/svg" xmlns:xlink="http://www.w3.org/1999/xlink" y="0px">
<g>
<path d="M34.73,7.833c-0.871-1.499-5.996-5.108-9.727-3.395C19.656,7.1,9.957,15.447,7.342,22.043   c-0.571,1.202-0.886,5.519,2.998,9.403c0.595,0.594,1.913,0.922,2.887-0.153l4.5-6.03c1.352-1.679-0.217-2.916-0.217-2.916   c-0.002,0-1.744-1.294-1.936-2.268c0.879-1.156,7.129-7.449,7.49-7.449c0.951,0.188,2.258,1.945,2.258,1.945   c1.334,1.478,2.666,0.414,2.926,0.229l6.016-4.434C35.185,9.565,35.156,8.584,34.73,7.833z" fill-opacity="0.2" stroke-opacity="0.2"/>
<path d="M8.275,22.401c-1.029,2.686,1.047,6.941,2.691,8.266c0.549,0.401,1.117,0.454,1.484-0.004l4.475-5.997   c0.305-0.39,0.605-0.899-0.004-1.51c0,0-3.078-2.235-2.18-3.651c0.629-0.982,6.77-7.095,7.754-7.711   c1.424-0.892,3.639,2.197,3.639,2.197c0.613,0.615,1.121,0.314,1.514,0.014l6.023-4.439c0.459-0.369,0.379-0.902,0.184-1.25   C33.855,8.315,26.292-1.9,8.275,22.401z" fill-opacity="0.5" stroke-opacity="0.5"/>
<rect fill="none" height="36" width="42"/>
<path d="M25.43,4.343C20.48,6.652,10.629,15.275,8.275,21.401c-1.029,2.686,1.047,6.941,2.691,8.266   c0.401,0.408,1.117,0.454,1.484-0.004l4.475-5.997c0.305-0.39,0.605-0.899-0.004-1.51c0,0-3.078-2.235-2.18-3.651   c0.629-0.982,6.77-7.095,7.754-7.711c1.424-0.892,3.639,2.197,3.639,2.197c0.613,0.615,1.121,0.314,1.514,0.014l6.023-4.439   c0.77-0.68,0.016-1.49,0.014-1.49C32.367,5.427,28.045,3.124,25.43,4.343z" fill="url(#SVGID_1_)"/>
<path d="M32.992,7.825c0,0-6.074,4.475-6.109,4.496c-3.011-3.795-4.584-2.585-4.916-2.376   c-1.104,0.69-7.357,6.912-8.068,8.019c-1.279,2.023,1.553,4.341,2.35,4.938c-0.021,0.033-4.535,6.078-4.535,6.078l-0.057,1.014   c0.271,0.031,0.564-0.044,0.795-0.33l4.475-5.997c0.305-0.39,0.605-0.899-0.004-1.51c0,0-3.078-2.235-2.18-3.651   c0.629-0.982,6.77-7.095,7.754-7.711c1.424-0.892,3.639,2.197,3.639,2.197c0.613,0.615,1.121,0.314,1.514,0.014l6.023-4.439   c0.256-0.206,0.344-0.463,0.338-0.711L32.992,7.825z" fill-opacity="0.2" stroke-opacity="0.2"/>
<path d="M25.43,4.343C20.48,6.652,10.629,15.275,8.275,21.401c-1.192,3.344,2.058,8.592,3.381,8.592   l0.057-1.014c-1.546-1.13-3.316-5.102-2.504-7.219C11.428,15.983,21.01,7.507,25.852,5.247c2.356-1.002,6.481,1.415,7.141,2.578   l1.018,0.029C34.104,6.475,28.563,2.912,25.43,4.343z" fill="#FFFFFF" fill-opacity="0.25" stroke-opacity="0.25"/>
<defs>
<linearGradient gradientUnits="userSpaceOnUse" id="SVGID_1_" x1="21.0093" x2="21.0093" y1="-1.3447" y2="37.2649">
<stop offset="0" style="stop-color:#3687FF"/>
<stop offset="1" style="stop-color:#051F7D"/>
</linearGradient>
</defs>
</g>
</svg>
