<?xml version="1.0" encoding="UTF-8"?>
<!DOCTYPE svg PUBLIC "-//W3C//DTD SVG 1.1 Tiny//EN" "http://www.w3.org/Graphics/SVG/1.1/DTD/svg11-tiny.dtd">
<svg xmlns="http://www.w3.org/2000/svg" xmlns:xlink="http://www.w3.org/1999/xlink" baseProfile="tiny" height="16px" version="1.1" viewBox="0 0 16 16" width="16px" x="0px" y="0px">
<path d="M16,12.016c0,0.552-0.447,1-1,1H1c-0.552,0-1-0.448-1-1v-9c0-0.552,0.448-1,1-1h14  c0.553,0,1,0.448,1,1V12.016z" fill="#030303" fill-opacity="0.7" stroke-opacity="0.7"/>
<linearGradient gradientUnits="userSpaceOnUse" id="SVGID_1_" x1="7.9995" x2="7.9995" y1="1.3506" y2="17.9655">
<stop offset="0" style="stop-color:#E3E3E3"/>
<stop offset="1" style="stop-color:#404040"/>
</linearGradient>
<rect fill="url(#SVGID_1_)" height="9" width="14" x="1" y="3.016"/>
<linearGradient gradientUnits="userSpaceOnUse" id="SVGID_2_" x1="7.9995" x2="7.9995" y1="5.0874" y2="15.0884">
<stop offset="0" style="stop-color:#FFFFFF"/>
<stop offset="1" style="stop-color:#B2B2B2"/>
</linearGradient>
<polygon fill="url(#SVGID_2_)" points="2.01,4.016 14,4.016 13.99,9.016 2,9.016 "/>
<rect height="1" width="1" x="9" y="10.016"/>
<rect height="1" width="1" x="11" y="10.016"/>
<rect height="1" width="1" x="13" y="10.016"/>
<rect fill="none" height="16" width="16"/>
</svg>
