<?xml version="1.0" encoding="UTF-8"?>
<!DOCTYPE svg PUBLIC "-//W3C//DTD SVG 1.1 Tiny//EN" "http://www.w3.org/Graphics/SVG/1.1/DTD/svg11-tiny.dtd">
<svg baseProfile="tiny" height="16px" version="1.1" viewBox="0 0 16 16" width="16px" x="0px" xmlns="http://www.w3.org/2000/svg" xmlns:xlink="http://www.w3.org/1999/xlink" y="0px">
<g>
<rect fill="#030303" fill-opacity="0.7" height="11" stroke-opacity="0.7" width="16" y="3"/>
<polygon fill="none" points="0,0 16,0.012 16,16 0,16  "/>
<linearGradient gradientUnits="userSpaceOnUse" id="SVGID_1_" x1="8" x2="8" y1="3.9453" y2="16.3149">
<stop offset="0" style="stop-color:#FFE23D"/>
<stop offset="0.2239" style="stop-color:#FAD337"/>
<stop offset="0.6537" style="stop-color:#EFAB26"/>
<stop offset="1" style="stop-color:#E48717"/>
</linearGradient>
<rect fill="url(#SVGID_1_)" height="9" width="14" x="1" y="4"/>
<polygon fill="#FFFFFF" fill-opacity="0.5" points="8,7 1,12 1,13 8,8  " stroke-opacity="0.5"/>
<polygon fill-opacity="0.3" points="8,7 8,8 15,13 15,12  " stroke-opacity="0.3"/>
<path d="M1,5.029l5.606,4.005c0.837,0.6,2.151,0.523,2.789-0.002L15,5.028V4H1V5.029z" fill-opacity="0.4" stroke-opacity="0.4"/>
<linearGradient gradientUnits="userSpaceOnUse" id="SVGID_2_" x1="8" x2="8" y1="3.9033" y2="13.9082">
<stop offset="0" style="stop-color:#FFE23D"/>
<stop offset="0.2239" style="stop-color:#FAD337"/>
<stop offset="0.6537" style="stop-color:#EFAB26"/>
<stop offset="1" style="stop-color:#E48717"/>
</linearGradient>
<path d="M15,4H1l6.187,4.419c0.447,0.319,1.18,0.319,1.627,0L15,4z" fill="url(#SVGID_2_)"/>
</g>
</svg>
