<?xml version="1.0" encoding="UTF-8"?>
<!DOCTYPE svg PUBLIC "-//W3C//DTD SVG 1.1 Tiny//EN" "http://www.w3.org/Graphics/SVG/1.1/DTD/svg11-tiny.dtd">
<svg xmlns="http://www.w3.org/2000/svg" xmlns:xlink="http://www.w3.org/1999/xlink" baseProfile="tiny" height="16px" version="1.1" viewBox="0 0 16 16" width="16px" x="0px" y="0px">
<path d="M15.414,5.586c0,0-0.424-0.424-0.666-0.666c-0.125-0.379-0.85-2.553-0.85-2.553  C13.625,1.549,12.861,1,12,1H4C3.139,1,2.375,1.549,2.104,2.367c0,0-0.637,1.91-0.852,2.553C1.039,5.133,0.586,5.586,0.586,5.586  C0.209,5.963,0,6.465,0,7v6c0,0.553,0.447,1,1,1h2c0.553,0,1-0.447,1-1v-1h8v1c0,0.553,0.447,1,1,1h2c0.553,0,1-0.447,1-1V7  C16,6.465,15.793,5.963,15.414,5.586z" fill="#030303" fill-opacity="0.7" stroke-opacity="0.7"/>
<polygon fill="none" points="16,16 0.008,16 0,0 15.992,0 "/>
<linearGradient gradientUnits="userSpaceOnUse" id="SVGID_1_" x1="2" x2="2" y1="5.0005" y2="17.0005">
<stop offset="0" style="stop-color:#E3E3E3"/>
<stop offset="1" style="stop-color:#404040"/>
</linearGradient>
<rect fill="url(#SVGID_1_)" fill-rule="evenodd" height="3" width="2" x="1" y="10"/>
<linearGradient gradientUnits="userSpaceOnUse" id="SVGID_2_" x1="14" x2="14" y1="5.0005" y2="17.0005">
<stop offset="0" style="stop-color:#E3E3E3"/>
<stop offset="1" style="stop-color:#404040"/>
</linearGradient>
<rect fill="url(#SVGID_2_)" fill-rule="evenodd" height="3" width="2" x="13" y="10"/>
<linearGradient gradientUnits="userSpaceOnUse" id="SVGID_3_" x1="7.9995" x2="7.9995" y1="4" y2="17.0003">
<stop offset="0" style="stop-color:#3687FF"/>
<stop offset="1" style="stop-color:#051F7D"/>
</linearGradient>
<path d="M4,2C3.57,2,3.188,2.275,3.051,2.684c0,0-0.797,2.393-0.924,2.775  C1.895,5.691,1.293,6.293,1.293,6.293C1.105,6.48,1,6.734,1,7v3c0,0.553,0.447,1,1,1h12c0.553,0,1-0.447,1-1V7  c0-0.266-0.105-0.52-0.293-0.707c0,0-0.602-0.602-0.832-0.834c-0.129-0.383-0.926-2.775-0.926-2.775C12.813,2.275,12.432,2,12,2H4z" fill="url(#SVGID_3_)"/>
<polygon fill="#FFFFFF" points="4,3 12,3 13,6 3,6 "/>
<circle cx="3.18" cy="8.381" fill="#FFFFFF" r="1.254"/>
<circle cx="12.821" cy="8.381" fill="#FFFFFF" r="1.253"/>
</svg>
