<?xml version="1.0" encoding="UTF-8"?>
<!DOCTYPE svg PUBLIC "-//W3C//DTD SVG 1.1 Tiny//EN" "http://www.w3.org/Graphics/SVG/1.1/DTD/svg11-tiny.dtd">
<svg xmlns="http://www.w3.org/2000/svg" xmlns:xlink="http://www.w3.org/1999/xlink" baseProfile="tiny" height="16px" version="1.1" viewBox="0 0 16 16" width="16px" x="0px" y="0px">
<path d="M1,3C0.447,3,0,3.447,0,4v9c0,0.553,0.447,1,1,1h14c0.553,0,1-0.447,1-1V4  c0-0.553-0.447-1-1-1H1z" fill="#030303" fill-opacity="0.7" stroke-opacity="0.7"/>
<linearGradient gradientUnits="userSpaceOnUse" id="SVGID_1_" x1="7.9995" x2="7.9995" y1="3.2114" y2="15.0201">
<stop offset="0" style="stop-color:#E6E6F5"/>
<stop offset="1" style="stop-color:#333342"/>
</linearGradient>
<rect fill="url(#SVGID_1_)" height="9" width="14" x="1" y="4"/>
<rect height="7" width="3" x="1" y="5"/>
<rect fill="none" height="16" width="16"/>
<path d="M9,5.5c-1.656,0-3,1.342-3,3c0,1.656,1.344,3,3,3s3-1.344,3-3C12,6.842,10.656,5.5,9,5.5z" fill="#FFFFFF" fill-opacity="0.5" stroke-opacity="0.5"/>
<linearGradient gradientUnits="userSpaceOnUse" id="SVGID_2_" x1="9" x2="9" y1="10.5" y2="6.5005">
<stop offset="0" style="stop-color:#404040"/>
<stop offset="1" style="stop-color:#000000"/>
</linearGradient>
<path d="M9,6.5c-1.104,0-2,0.896-2,2s0.896,2,2,2s2-0.896,2-2S10.104,6.5,9,6.5z" fill="url(#SVGID_2_)"/>
<circle cx="9" cy="8.5" r="1.5"/>
<rect fill="#FFFFFF" height="1" width="2" x="12" y="5"/>
</svg>
