<?xml version="1.0" encoding="UTF-8"?>
<!DOCTYPE svg PUBLIC "-//W3C//DTD SVG 1.1 Tiny//EN" "http://www.w3.org/Graphics/SVG/1.1/DTD/svg11-tiny.dtd">
<svg baseProfile="tiny" height="16px" version="1.1" viewBox="0 0 16 16" width="16px" x="0px" xmlns="http://www.w3.org/2000/svg" xmlns:xlink="http://www.w3.org/1999/xlink" y="0px">
<g>
<path d="M0,8c0,4.411,3.589,8,8,8c4.156,0,8-3.342,8-8c0-4.527-3.688-8-8-8C3.589,0,0,3.589,0,8z" fill="#030303" fill-opacity="0.7" stroke-opacity="0.7"/>
<linearGradient gradientUnits="userSpaceOnUse" id="SVGID_1_" x1="8" x2="8" y1="4" y2="32">
<stop offset="0" style="stop-color:#FFFFFF"/>
<stop offset="1" style="stop-color:#B2B2B2"/>
</linearGradient>
<circle cx="8" cy="8" fill="url(#SVGID_1_)" r="7"/>
<rect fill="none" height="16" width="16"/>
<linearGradient gradientUnits="userSpaceOnUse" id="SVGID_2_" x1="8.0239" x2="8.0239" y1="3.0117" y2="22.7721">
<stop offset="0" style="stop-color:#3687FF"/>
<stop offset="1" style="stop-color:#051F7D"/>
</linearGradient>
<path d="M10.346,5.3c-0.168,0.996-0.408,2.545-0.408,3.492c0,0.996,0.217,1.129,0.637,1.129   c0.588,0,1.044-0.757,1.044-2.113c0-2.315-1.14-3.719-3.323-3.719c-1.98,0-3.781,1.188-3.781,3.863c0,5.44,5.393,3.94,6.276,3.612   v1.008c-2.696,1.008-7.512,0.617-7.512-4.56c0-3.42,2.472-4.92,4.991-4.92c3,0,4.5,1.836,4.5,4.655   c0,2.064-1.031,3.072-2.459,3.072c-0.696,0-1.236-0.42-1.428-1.116c-0.336,0.637-0.744,1.116-1.608,1.116   c-0.828,0-1.669-0.685-1.669-2.172c0-2.196,1.32-3.349,3.121-3.349H10.346z M8.822,6.224H8.463c-0.732,0-1.465,0.781-1.465,2.365   c0,1.031,0.229,1.319,0.684,1.319c0.601,0,0.793-0.948,0.924-1.968L8.822,6.224z" fill="url(#SVGID_2_)"/>
</g>
</svg>
