<?xml version="1.0" encoding="utf-8"?>
<!-- Generator: Adobe Illustrator 13.0.1, SVG Export Plug-In  -->
<!DOCTYPE svg PUBLIC "-//W3C//DTD SVG 1.1//EN" "http://www.w3.org/Graphics/SVG/1.1/DTD/svg11.dtd" [
	<!ENTITY ns_flows "http://ns.adobe.com/Flows/1.0/">
]>
<svg version="1.1"
	 xmlns="http://www.w3.org/2000/svg" xmlns:xlink="http://www.w3.org/1999/xlink" xmlns:a="http://ns.adobe.com/AdobeSVGViewerExtensions/3.0/"
	 x="0px" y="0px" width="15px" height="15px" viewBox="0 0 15 15" enable-background="new 0 0 15 15" xml:space="preserve">
<defs>
</defs>
<path opacity="0.7" fill="#56C3EF" enable-background="new    " d="M15,5.996h-0.99c-4.957,0-6.605-2.279-7.808-3.943
	C6.135,1.959,6.066,1.867,6,1.775v12.227V15h9V5.996z"/>
<path fill="#FFFFFF" enable-background="new    " d="M6,14.002V1.775c0.066,0.092,0.135,0.184,0.202,0.277
	c1.203,1.664,2.851,3.943,7.808,3.943H15V4.994h-0.992c-5.266,0-6.271-2.736-7.619-4.35C5.63-0.363,5-0.215,5,1.27
	c0,3.068,0,10.297,0,12.732V15h1V14.002z"/>
<rect fill="none" width="15" height="15"/>
</svg>
