<?xml version="1.0" encoding="utf-8"?>
<!-- Generator: Adobe Illustrator 13.0.1, SVG Export Plug-In  -->
<!DOCTYPE svg PUBLIC "-//W3C//DTD SVG 1.1//EN" "http://www.w3.org/Graphics/SVG/1.1/DTD/svg11.dtd" [
	<!ENTITY ns_flows "http://ns.adobe.com/Flows/1.0/">
]>
<svg version="1.1"
	 xmlns="http://www.w3.org/2000/svg" xmlns:xlink="http://www.w3.org/1999/xlink" xmlns:a="http://ns.adobe.com/AdobeSVGViewerExtensions/3.0/"
	 x="0px" y="0px" width="15px" height="15px" viewBox="0 0 15 15" enable-background="new 0 0 15 15" xml:space="preserve">
<defs>
</defs>
<path opacity="0.7" fill="#69FF00" enable-background="new    " d="M0,9.004h0.99c4.957,0,6.605,2.279,7.809,3.943
	C8.865,13.041,8.934,13.133,9,13.225V0.998V0H0V9.004z"/>
<path fill="#FFFFFF" enable-background="new    " d="M9,0.998v12.227c-0.066-0.092-0.135-0.184-0.201-0.277
	C7.596,11.283,5.947,9.004,0.99,9.004H0v1.002h0.992c5.266,0,6.271,2.736,7.619,4.35C9.369,15.363,10,15.215,10,13.73
	c0-3.068,0-10.297,0-12.732V0H9V0.998z"/>
<rect fill="none" width="15" height="15"/>
</svg>
